<?xml version="1.0" standalone="no"?>
 <!DOCTYPE svg PUBLIC "-//W3C//DTD SVG 1.1//EN" 
 "http://www.w3.org/Graphics/SVG/1.1/DTD/svg11.dtd"> 
<svg xmlns="http://www.w3.org/2000/svg" version="1.1" 
    width="29.7002cm" height="21.0007cm" viewBox="0 0 116930 82680 ">
<title>SVG Picture created as leveling_package-Edge_Cuts.svg date 2021/03/09 11:56:17 </title>
  <desc>Picture generated by PCBNEW </desc>
<g style="fill:#000000; fill-opacity:1;stroke:#000000; stroke-opacity:1;
stroke-linecap:round; stroke-linejoin:round; "
 transform="translate(0 0) scale(1 1)">
</g>
<g style="fill:#000000; fill-opacity:0.0; 
stroke:#000000; stroke-width:-0.000393701; stroke-opacity:1; 
stroke-linecap:round; stroke-linejoin:round;">
</g>
<g style="fill:#000000; fill-opacity:0.0; 
stroke:#000000; stroke-width:19.685; stroke-opacity:1; 
stroke-linecap:round; stroke-linejoin:round;">
<path d="M43251 48818
L48818 43251
" />
<path d="M39763 34196
L48818 43251
" />
<path d="M34196 39763
L43251 48818
" />
<path d="M9448 43251
L15016 48818
" />
<path d="M15016 48818
L24071 39763
" />
<path d="M18503 34196
L9448 43251
" />
<path d="M15016 9448
L24071 18503
" />
<path d="M9448 15016
L15016 9448
" />
<path d="M18503 24071
L9448 15016
" />
<path d="M43251 9448
L48818 15016
" />
<path d="M48818 15016
L39763 24071
" />
<path d="M34196 18503
L43251 9448
" />
<path d="M24071 39763
L34196 39763
" />
<path d="M39763 24071
L39763 34196
" />
<path d="M18503 24071
L18503 34196
" />
<path d="M24071 18503
L34196 18503
" />
<g >
</g>
<g >
</g>
<g >
</g>
<g >
</g>
<g >
</g>
<g >
</g>
<g >
</g>
<g >
</g>
<g >
</g>
<g >
</g>
<g >
</g>
<g >
</g>
<g >
</g>
<g >
</g>
<g >
</g>
<g >
</g>
<g >
</g>
<g >
</g>
<g >
</g>
<g >
</g>
<g >
</g>
</g> 
</svg>
