<?xml version="1.0" standalone="no"?>
 <!DOCTYPE svg PUBLIC "-//W3C//DTD SVG 1.1//EN" 
 "http://www.w3.org/Graphics/SVG/1.1/DTD/svg11.dtd"> 
<svg xmlns="http://www.w3.org/2000/svg" version="1.1" 
    width="29.7002cm" height="21.0007cm" viewBox="0 0 116930 82680 ">
<title>SVG Picture created as leveling_package-F_Cu.svg date 2021/03/05 10:59:07 </title>
  <desc>Picture generated by PCBNEW </desc>
<g style="fill:#000000; fill-opacity:1;stroke:#000000; stroke-opacity:1;
stroke-linecap:round; stroke-linejoin:round; "
 transform="translate(0 0) scale(1 1)">
</g>
<g style="fill:#000000; fill-opacity:0.0; 
stroke:#000000; stroke-width:-0.000393701; stroke-opacity:1; 
stroke-linecap:round; stroke-linejoin:round;">
<g >
</g>
<g style="fill:#000000; fill-opacity:0.0; 
stroke:#000000; stroke-width:0; stroke-opacity:1; 
stroke-linecap:round; stroke-linejoin:round;">
</g>
<g style="fill:#000000; fill-opacity:1.0; 
stroke:#000000; stroke-width:0; stroke-opacity:1; 
stroke-linecap:round; stroke-linejoin:round;">
<path style="fill:#000000; fill-opacity:1.0; 
stroke:#000000; stroke-width:0; stroke-opacity:1; 
stroke-linecap:round; stroke-linejoin:round;fill-rule:evenodd;"
d="M 13464.6,12637.8
13464.6,13031.5
12874,13031.5
12874,12637.8
Z" /> 
<path style="fill:#000000; fill-opacity:1.0; 
stroke:#000000; stroke-width:0; stroke-opacity:1; 
stroke-linecap:round; stroke-linejoin:round;fill-rule:evenodd;"
d="M 13464.6,11378
13464.6,11771.7
12874,11771.7
12874,11378
Z" /> 
<path style="fill:#000000; fill-opacity:1.0; 
stroke:#000000; stroke-width:0; stroke-opacity:1; 
stroke-linecap:round; stroke-linejoin:round;fill-rule:evenodd;"
d="M 11535.4,12637.8
11535.4,13031.5
10944.9,13031.5
10944.9,12637.8
Z" /> 
<path style="fill:#000000; fill-opacity:1.0; 
stroke:#000000; stroke-width:0; stroke-opacity:1; 
stroke-linecap:round; stroke-linejoin:round;fill-rule:evenodd;"
d="M 11535.4,11378
11535.4,11771.7
10944.9,11771.7
10944.9,11378
Z" /> 
</g>
<g >
</g>
<g style="fill:#000000; fill-opacity:1.0; 
stroke:#000000; stroke-width:0; stroke-opacity:1; 
stroke-linecap:round; stroke-linejoin:round;">
<path style="fill:#000000; fill-opacity:1.0; 
stroke:#000000; stroke-width:0; stroke-opacity:1; 
stroke-linecap:round; stroke-linejoin:round;fill-rule:evenodd;"
d="M 20551.2,19724.4
20551.2,20118.1
19960.6,20118.1
19960.6,19724.4
Z" /> 
<path style="fill:#000000; fill-opacity:1.0; 
stroke:#000000; stroke-width:0; stroke-opacity:1; 
stroke-linecap:round; stroke-linejoin:round;fill-rule:evenodd;"
d="M 20551.2,18464.6
20551.2,18858.3
19960.6,18858.3
19960.6,18464.6
Z" /> 
<path style="fill:#000000; fill-opacity:1.0; 
stroke:#000000; stroke-width:0; stroke-opacity:1; 
stroke-linecap:round; stroke-linejoin:round;fill-rule:evenodd;"
d="M 18622,19724.4
18622,20118.1
18031.5,20118.1
18031.5,19724.4
Z" /> 
<path style="fill:#000000; fill-opacity:1.0; 
stroke:#000000; stroke-width:0; stroke-opacity:1; 
stroke-linecap:round; stroke-linejoin:round;fill-rule:evenodd;"
d="M 18622,18464.6
18622,18858.3
18031.5,18858.3
18031.5,18464.6
Z" /> 
</g>
<g >
</g>
<g style="fill:#000000; fill-opacity:1.0; 
stroke:#000000; stroke-width:0; stroke-opacity:1; 
stroke-linecap:round; stroke-linejoin:round;">
<path style="fill:#000000; fill-opacity:1.0; 
stroke:#000000; stroke-width:0; stroke-opacity:1; 
stroke-linecap:round; stroke-linejoin:round;fill-rule:evenodd;"
d="M 47322.8,12637.8
47322.8,13031.5
46732.3,13031.5
46732.3,12637.8
Z" /> 
<path style="fill:#000000; fill-opacity:1.0; 
stroke:#000000; stroke-width:0; stroke-opacity:1; 
stroke-linecap:round; stroke-linejoin:round;fill-rule:evenodd;"
d="M 47322.8,11378
47322.8,11771.7
46732.3,11771.7
46732.3,11378
Z" /> 
<path style="fill:#000000; fill-opacity:1.0; 
stroke:#000000; stroke-width:0; stroke-opacity:1; 
stroke-linecap:round; stroke-linejoin:round;fill-rule:evenodd;"
d="M 45393.7,12637.8
45393.7,13031.5
44803.1,13031.5
44803.1,12637.8
Z" /> 
<path style="fill:#000000; fill-opacity:1.0; 
stroke:#000000; stroke-width:0; stroke-opacity:1; 
stroke-linecap:round; stroke-linejoin:round;fill-rule:evenodd;"
d="M 45393.7,11378
45393.7,11771.7
44803.1,11771.7
44803.1,11378
Z" /> 
</g>
<g >
</g>
<g style="fill:#000000; fill-opacity:1.0; 
stroke:#000000; stroke-width:0; stroke-opacity:1; 
stroke-linecap:round; stroke-linejoin:round;">
<path style="fill:#000000; fill-opacity:1.0; 
stroke:#000000; stroke-width:0; stroke-opacity:1; 
stroke-linecap:round; stroke-linejoin:round;fill-rule:evenodd;"
d="M 40236.2,19724.4
40236.2,20118.1
39645.7,20118.1
39645.7,19724.4
Z" /> 
<path style="fill:#000000; fill-opacity:1.0; 
stroke:#000000; stroke-width:0; stroke-opacity:1; 
stroke-linecap:round; stroke-linejoin:round;fill-rule:evenodd;"
d="M 40236.2,18464.6
40236.2,18858.3
39645.7,18858.3
39645.7,18464.6
Z" /> 
<path style="fill:#000000; fill-opacity:1.0; 
stroke:#000000; stroke-width:0; stroke-opacity:1; 
stroke-linecap:round; stroke-linejoin:round;fill-rule:evenodd;"
d="M 38307.1,19724.4
38307.1,20118.1
37716.5,20118.1
37716.5,19724.4
Z" /> 
<path style="fill:#000000; fill-opacity:1.0; 
stroke:#000000; stroke-width:0; stroke-opacity:1; 
stroke-linecap:round; stroke-linejoin:round;fill-rule:evenodd;"
d="M 38307.1,18464.6
38307.1,18858.3
37716.5,18858.3
37716.5,18464.6
Z" /> 
</g>
<g >
</g>
<g style="fill:#000000; fill-opacity:1.0; 
stroke:#000000; stroke-width:0; stroke-opacity:1; 
stroke-linecap:round; stroke-linejoin:round;">
<path style="fill:#000000; fill-opacity:1.0; 
stroke:#000000; stroke-width:0; stroke-opacity:1; 
stroke-linecap:round; stroke-linejoin:round;fill-rule:evenodd;"
d="M 44803.1,45629.9
44803.1,45236.2
45393.7,45236.2
45393.7,45629.9
Z" /> 
<path style="fill:#000000; fill-opacity:1.0; 
stroke:#000000; stroke-width:0; stroke-opacity:1; 
stroke-linecap:round; stroke-linejoin:round;fill-rule:evenodd;"
d="M 44803.1,46889.8
44803.1,46496.1
45393.7,46496.1
45393.7,46889.8
Z" /> 
<path style="fill:#000000; fill-opacity:1.0; 
stroke:#000000; stroke-width:0; stroke-opacity:1; 
stroke-linecap:round; stroke-linejoin:round;fill-rule:evenodd;"
d="M 46732.3,45629.9
46732.3,45236.2
47322.8,45236.2
47322.8,45629.9
Z" /> 
<path style="fill:#000000; fill-opacity:1.0; 
stroke:#000000; stroke-width:0; stroke-opacity:1; 
stroke-linecap:round; stroke-linejoin:round;fill-rule:evenodd;"
d="M 46732.3,46889.8
46732.3,46496.1
47322.8,46496.1
47322.8,46889.8
Z" /> 
</g>
<g >
</g>
<g style="fill:#000000; fill-opacity:1.0; 
stroke:#000000; stroke-width:0; stroke-opacity:1; 
stroke-linecap:round; stroke-linejoin:round;">
<path style="fill:#000000; fill-opacity:1.0; 
stroke:#000000; stroke-width:0; stroke-opacity:1; 
stroke-linecap:round; stroke-linejoin:round;fill-rule:evenodd;"
d="M 37716.5,38543.3
37716.5,38149.6
38307.1,38149.6
38307.1,38543.3
Z" /> 
<path style="fill:#000000; fill-opacity:1.0; 
stroke:#000000; stroke-width:0; stroke-opacity:1; 
stroke-linecap:round; stroke-linejoin:round;fill-rule:evenodd;"
d="M 37716.5,39803.1
37716.5,39409.4
38307.1,39409.4
38307.1,39803.1
Z" /> 
<path style="fill:#000000; fill-opacity:1.0; 
stroke:#000000; stroke-width:0; stroke-opacity:1; 
stroke-linecap:round; stroke-linejoin:round;fill-rule:evenodd;"
d="M 39645.7,38543.3
39645.7,38149.6
40236.2,38149.6
40236.2,38543.3
Z" /> 
<path style="fill:#000000; fill-opacity:1.0; 
stroke:#000000; stroke-width:0; stroke-opacity:1; 
stroke-linecap:round; stroke-linejoin:round;fill-rule:evenodd;"
d="M 39645.7,39803.1
39645.7,39409.4
40236.2,39409.4
40236.2,39803.1
Z" /> 
</g>
<g >
</g>
<g style="fill:#000000; fill-opacity:1.0; 
stroke:#000000; stroke-width:0; stroke-opacity:1; 
stroke-linecap:round; stroke-linejoin:round;">
<path style="fill:#000000; fill-opacity:1.0; 
stroke:#000000; stroke-width:0; stroke-opacity:1; 
stroke-linecap:round; stroke-linejoin:round;fill-rule:evenodd;"
d="M 10944.9,45629.9
10944.9,45236.2
11535.4,45236.2
11535.4,45629.9
Z" /> 
<path style="fill:#000000; fill-opacity:1.0; 
stroke:#000000; stroke-width:0; stroke-opacity:1; 
stroke-linecap:round; stroke-linejoin:round;fill-rule:evenodd;"
d="M 10944.9,46889.8
10944.9,46496.1
11535.4,46496.1
11535.4,46889.8
Z" /> 
<path style="fill:#000000; fill-opacity:1.0; 
stroke:#000000; stroke-width:0; stroke-opacity:1; 
stroke-linecap:round; stroke-linejoin:round;fill-rule:evenodd;"
d="M 12874,45629.9
12874,45236.2
13464.6,45236.2
13464.6,45629.9
Z" /> 
<path style="fill:#000000; fill-opacity:1.0; 
stroke:#000000; stroke-width:0; stroke-opacity:1; 
stroke-linecap:round; stroke-linejoin:round;fill-rule:evenodd;"
d="M 12874,46889.8
12874,46496.1
13464.6,46496.1
13464.6,46889.8
Z" /> 
</g>
<g >
</g>
<g style="fill:#000000; fill-opacity:1.0; 
stroke:#000000; stroke-width:0; stroke-opacity:1; 
stroke-linecap:round; stroke-linejoin:round;">
<path style="fill:#000000; fill-opacity:1.0; 
stroke:#000000; stroke-width:0; stroke-opacity:1; 
stroke-linecap:round; stroke-linejoin:round;fill-rule:evenodd;"
d="M 18031.5,38543.3
18031.5,38149.6
18622,38149.6
18622,38543.3
Z" /> 
<path style="fill:#000000; fill-opacity:1.0; 
stroke:#000000; stroke-width:0; stroke-opacity:1; 
stroke-linecap:round; stroke-linejoin:round;fill-rule:evenodd;"
d="M 18031.5,39803.1
18031.5,39409.4
18622,39409.4
18622,39803.1
Z" /> 
<path style="fill:#000000; fill-opacity:1.0; 
stroke:#000000; stroke-width:0; stroke-opacity:1; 
stroke-linecap:round; stroke-linejoin:round;fill-rule:evenodd;"
d="M 19960.6,38543.3
19960.6,38149.6
20551.2,38149.6
20551.2,38543.3
Z" /> 
<path style="fill:#000000; fill-opacity:1.0; 
stroke:#000000; stroke-width:0; stroke-opacity:1; 
stroke-linecap:round; stroke-linejoin:round;fill-rule:evenodd;"
d="M 19960.6,39803.1
19960.6,39409.4
20551.2,39409.4
20551.2,39803.1
Z" /> 
</g>
<g >
</g>
<g style="fill:#000000; fill-opacity:1.0; 
stroke:#000000; stroke-width:0; stroke-opacity:1; 
stroke-linecap:round; stroke-linejoin:round;">
<path style="fill:#000000; fill-opacity:1.0; 
stroke:#000000; stroke-width:0; stroke-opacity:1; 
stroke-linecap:round; stroke-linejoin:round;fill-rule:evenodd;"
d="M 27874,31850.4
27874,31456.7
28464.6,31456.7
28464.6,31850.4
Z" /> 
<path style="fill:#000000; fill-opacity:1.0; 
stroke:#000000; stroke-width:0; stroke-opacity:1; 
stroke-linecap:round; stroke-linejoin:round;fill-rule:evenodd;"
d="M 27874,33110.2
27874,32716.5
28464.6,32716.5
28464.6,33110.2
Z" /> 
<path style="fill:#000000; fill-opacity:1.0; 
stroke:#000000; stroke-width:0; stroke-opacity:1; 
stroke-linecap:round; stroke-linejoin:round;fill-rule:evenodd;"
d="M 29803.1,31850.4
29803.1,31456.7
30393.7,31456.7
30393.7,31850.4
Z" /> 
<path style="fill:#000000; fill-opacity:1.0; 
stroke:#000000; stroke-width:0; stroke-opacity:1; 
stroke-linecap:round; stroke-linejoin:round;fill-rule:evenodd;"
d="M 29803.1,33110.2
29803.1,32716.5
30393.7,32716.5
30393.7,33110.2
Z" /> 
</g>
<g >
</g>
<g style="fill:#000000; fill-opacity:1.0; 
stroke:#000000; stroke-width:0; stroke-opacity:1; 
stroke-linecap:round; stroke-linejoin:round;">
<path style="fill:#000000; fill-opacity:1.0; 
stroke:#000000; stroke-width:0; stroke-opacity:1; 
stroke-linecap:round; stroke-linejoin:round;fill-rule:evenodd;"
d="M 27874,25551.2
27874,25157.5
28464.6,25157.5
28464.6,25551.2
Z" /> 
<path style="fill:#000000; fill-opacity:1.0; 
stroke:#000000; stroke-width:0; stroke-opacity:1; 
stroke-linecap:round; stroke-linejoin:round;fill-rule:evenodd;"
d="M 27874,26811
27874,26417.3
28464.6,26417.3
28464.6,26811
Z" /> 
<path style="fill:#000000; fill-opacity:1.0; 
stroke:#000000; stroke-width:0; stroke-opacity:1; 
stroke-linecap:round; stroke-linejoin:round;fill-rule:evenodd;"
d="M 29803.1,25551.2
29803.1,25157.5
30393.7,25157.5
30393.7,25551.2
Z" /> 
<path style="fill:#000000; fill-opacity:1.0; 
stroke:#000000; stroke-width:0; stroke-opacity:1; 
stroke-linecap:round; stroke-linejoin:round;fill-rule:evenodd;"
d="M 29803.1,26811
29803.1,26417.3
30393.7,26417.3
30393.7,26811
Z" /> 
</g>
<g >
</g>
<g style="fill:#000000; fill-opacity:1.0; 
stroke:#000000; stroke-width:0; stroke-opacity:1; 
stroke-linecap:round; stroke-linejoin:round;">
<path style="fill:#000000; fill-opacity:1.0; 
stroke:#000000; stroke-width:0; stroke-opacity:1; 
stroke-linecap:round; stroke-linejoin:round;fill-rule:evenodd;"
d="M 23234.1,31224.9
23243.6,31226.3
23253,31228.6
23262.1,31231.9
23270.8,31236
23279.1,31241
23286.8,31246.8
23294,31253.2
23300.5,31260.4
23306.2,31268.2
23311.2,31276.4
23315.3,31285.2
23318.6,31294.3
23320.9,31303.6
23322.4,31313.2
23322.8,31322.8
23322.8,31677.2
23322.4,31686.8
23320.9,31696.4
23318.6,31705.7
23315.3,31714.8
23311.2,31723.6
23306.2,31731.8
23300.5,31739.6
23294,31746.8
23286.8,31753.2
23279.1,31759
23270.8,31764
23262.1,31768.1
23253,31771.4
23243.6,31773.7
23234.1,31775.1
23224.4,31775.6
22968.5,31775.6
22958.9,31775.1
22949.3,31773.7
22939.9,31771.4
22930.8,31768.1
22922.1,31764
22913.8,31759
22906.1,31753.2
22898.9,31746.8
22892.4,31739.6
22886.7,31731.8
22881.7,31723.6
22877.6,31714.8
22874.3,31705.7
22872,31696.4
22870.6,31686.8
22870.1,31677.2
22870.1,31322.8
22870.6,31313.2
22872,31303.6
22874.3,31294.3
22877.6,31285.2
22881.7,31276.4
22886.7,31268.2
22892.4,31260.4
22898.9,31253.2
22906.1,31246.8
22913.8,31241
22922.1,31236
22930.8,31231.9
22939.9,31228.6
22949.3,31226.3
22958.9,31224.9
22968.5,31224.4
23224.4,31224.4
Z" /> 
<path style="fill:#000000; fill-opacity:1.0; 
stroke:#000000; stroke-width:0; stroke-opacity:1; 
stroke-linecap:round; stroke-linejoin:round;fill-rule:evenodd;"
d="M 24041.1,31224.9
24050.7,31226.3
24060.1,31228.6
24069.2,31231.9
24077.9,31236
24086.2,31241
24093.9,31246.8
24101.1,31253.2
24107.6,31260.4
24113.3,31268.2
24118.3,31276.4
24122.4,31285.2
24125.7,31294.3
24128,31303.6
24129.4,31313.2
24129.9,31322.8
24129.9,31677.2
24129.4,31686.8
24128,31696.4
24125.7,31705.7
24122.4,31714.8
24118.3,31723.6
24113.3,31731.8
24107.6,31739.6
24101.1,31746.8
24093.9,31753.2
24086.2,31759
24077.9,31764
24069.2,31768.1
24060.1,31771.4
24050.7,31773.7
24041.1,31775.1
24031.5,31775.6
23775.6,31775.6
23765.9,31775.1
23756.4,31773.7
23747,31771.4
23737.9,31768.1
23729.2,31764
23720.9,31759
23713.2,31753.2
23706,31746.8
23699.5,31739.6
23693.8,31731.8
23688.8,31723.6
23684.7,31714.8
23681.4,31705.7
23679.1,31696.4
23677.6,31686.8
23677.2,31677.2
23677.2,31322.8
23677.6,31313.2
23679.1,31303.6
23681.4,31294.3
23684.7,31285.2
23688.8,31276.4
23693.8,31268.2
23699.5,31260.4
23706,31253.2
23713.2,31246.8
23720.9,31241
23729.2,31236
23737.9,31231.9
23747,31228.6
23756.4,31226.3
23765.9,31224.9
23775.6,31224.4
24031.5,31224.4
Z" /> 
</g>
<g >
</g>
<g style="fill:#000000; fill-opacity:1.0; 
stroke:#000000; stroke-width:0; stroke-opacity:1; 
stroke-linecap:round; stroke-linejoin:round;">
<path style="fill:#000000; fill-opacity:1.0; 
stroke:#000000; stroke-width:0; stroke-opacity:1; 
stroke-linecap:round; stroke-linejoin:round;fill-rule:evenodd;"
d="M 25186.8,33370.6
25196.4,33372
25205.7,33374.3
25214.8,33377.6
25223.6,33381.7
25231.8,33386.7
25239.6,33392.4
25246.8,33398.9
25253.2,33406.1
25259,33413.8
25264,33422.1
25268.1,33430.8
25271.4,33439.9
25273.7,33449.3
25275.1,33458.9
25275.6,33468.5
25275.6,33724.4
25275.1,33734.1
25273.7,33743.6
25271.4,33753
25268.1,33762.1
25264,33770.8
25259,33779.1
25253.2,33786.8
25246.8,33794
25239.6,33800.5
25231.8,33806.2
25223.6,33811.2
25214.8,33815.3
25205.7,33818.6
25196.4,33820.9
25186.8,33822.4
25177.2,33822.8
24822.8,33822.8
24813.2,33822.4
24803.6,33820.9
24794.3,33818.6
24785.2,33815.3
24776.4,33811.2
24768.2,33806.2
24760.4,33800.5
24753.2,33794
24746.8,33786.8
24741,33779.1
24736,33770.8
24731.9,33762.1
24728.6,33753
24726.3,33743.6
24724.9,33734.1
24724.4,33724.4
24724.4,33468.5
24724.9,33458.9
24726.3,33449.3
24728.6,33439.9
24731.9,33430.8
24736,33422.1
24741,33413.8
24746.8,33406.1
24753.2,33398.9
24760.4,33392.4
24768.2,33386.7
24776.4,33381.7
24785.2,33377.6
24794.3,33374.3
24803.6,33372
24813.2,33370.6
24822.8,33370.1
25177.2,33370.1
Z" /> 
<path style="fill:#000000; fill-opacity:1.0; 
stroke:#000000; stroke-width:0; stroke-opacity:1; 
stroke-linecap:round; stroke-linejoin:round;fill-rule:evenodd;"
d="M 25186.8,34177.6
25196.4,34179.1
25205.7,34181.4
25214.8,34184.7
25223.6,34188.8
25231.8,34193.8
25239.6,34199.5
25246.8,34206
25253.2,34213.2
25259,34220.9
25264,34229.2
25268.1,34237.9
25271.4,34247
25273.7,34256.4
25275.1,34265.9
25275.6,34275.6
25275.6,34531.5
25275.1,34541.1
25273.7,34550.7
25271.4,34560.1
25268.1,34569.2
25264,34577.9
25259,34586.2
25253.2,34593.9
25246.8,34601.1
25239.6,34607.6
25231.8,34613.3
25223.6,34618.3
25214.8,34622.4
25205.7,34625.7
25196.4,34628
25186.8,34629.4
25177.2,34629.9
24822.8,34629.9
24813.2,34629.4
24803.6,34628
24794.3,34625.7
24785.2,34622.4
24776.4,34618.3
24768.2,34613.3
24760.4,34607.6
24753.2,34601.1
24746.8,34593.9
24741,34586.2
24736,34577.9
24731.9,34569.2
24728.6,34560.1
24726.3,34550.7
24724.9,34541.1
24724.4,34531.5
24724.4,34275.6
24724.9,34265.9
24726.3,34256.4
24728.6,34247
24731.9,34237.9
24736,34229.2
24741,34220.9
24746.8,34213.2
24753.2,34206
24760.4,34199.5
24768.2,34193.8
24776.4,34188.8
24785.2,34184.7
24794.3,34181.4
24803.6,34179.1
24813.2,34177.6
24822.8,34177.2
25177.2,34177.2
Z" /> 
</g>
<g >
</g>
<g style="fill:#000000; fill-opacity:1.0; 
stroke:#000000; stroke-width:0; stroke-opacity:1; 
stroke-linecap:round; stroke-linejoin:round;">
<path style="fill:#000000; fill-opacity:1.0; 
stroke:#000000; stroke-width:0; stroke-opacity:1; 
stroke-linecap:round; stroke-linejoin:round;fill-rule:evenodd;"
d="M 23342.5,33216.5
23657.5,33216.5
23657.5,33570.9
23342.5,33570.9
Z" /> 
<path style="fill:#000000; fill-opacity:1.0; 
stroke:#000000; stroke-width:0; stroke-opacity:1; 
stroke-linecap:round; stroke-linejoin:round;fill-rule:evenodd;"
d="M 22968.5,32429.1
23283.5,32429.1
23283.5,32783.5
22968.5,32783.5
Z" /> 
<path style="fill:#000000; fill-opacity:1.0; 
stroke:#000000; stroke-width:0; stroke-opacity:1; 
stroke-linecap:round; stroke-linejoin:round;fill-rule:evenodd;"
d="M 23716.5,32429.1
24031.5,32429.1
24031.5,32783.5
23716.5,32783.5
Z" /> 
</g>
<g >
</g>
<g style="fill:#000000; fill-opacity:1.0; 
stroke:#000000; stroke-width:0; stroke-opacity:1; 
stroke-linecap:round; stroke-linejoin:round;">
<path style="fill:#000000; fill-opacity:1.0; 
stroke:#000000; stroke-width:0; stroke-opacity:1; 
stroke-linecap:round; stroke-linejoin:round;fill-rule:evenodd;"
d="M 34186.8,29177.6
34196.4,29179.1
34205.7,29181.4
34214.8,29184.7
34223.6,29188.8
34231.8,29193.8
34239.6,29199.5
34246.8,29206
34253.2,29213.1
34259,29220.9
34264,29229.2
34268.1,29237.9
34271.4,29247
34273.7,29256.4
34275.1,29265.9
34275.6,29275.6
34275.6,29531.5
34275.1,29541.1
34273.7,29550.7
34271.4,29560.1
34268.1,29569.2
34264,29577.9
34259,29586.2
34253.2,29593.9
34246.8,29601.1
34239.6,29607.6
34231.8,29613.3
34223.6,29618.3
34214.8,29622.4
34205.7,29625.7
34196.4,29628
34186.8,29629.4
34177.2,29629.9
33822.8,29629.9
33813.2,29629.4
33803.6,29628
33794.3,29625.7
33785.2,29622.4
33776.4,29618.3
33768.2,29613.3
33760.4,29607.6
33753.2,29601.1
33746.8,29593.9
33741,29586.2
33736,29577.9
33731.9,29569.2
33728.6,29560.1
33726.3,29550.7
33724.9,29541.1
33724.4,29531.5
33724.4,29275.6
33724.9,29265.9
33726.3,29256.4
33728.6,29247
33731.9,29237.9
33736,29229.2
33741,29220.9
33746.8,29213.1
33753.2,29206
33760.4,29199.5
33768.2,29193.8
33776.4,29188.8
33785.2,29184.7
33794.3,29181.4
33803.6,29179.1
33813.2,29177.6
33822.8,29177.2
34177.2,29177.2
Z" /> 
<path style="fill:#000000; fill-opacity:1.0; 
stroke:#000000; stroke-width:0; stroke-opacity:1; 
stroke-linecap:round; stroke-linejoin:round;fill-rule:evenodd;"
d="M 34186.8,28370.6
34196.4,28372
34205.7,28374.3
34214.8,28377.6
34223.6,28381.7
34231.8,28386.7
34239.6,28392.4
34246.8,28398.9
34253.2,28406.1
34259,28413.8
34264,28422.1
34268.1,28430.8
34271.4,28439.9
34273.7,28449.3
34275.1,28458.9
34275.6,28468.5
34275.6,28724.4
34275.1,28734.1
34273.7,28743.6
34271.4,28753
34268.1,28762.1
34264,28770.8
34259,28779.1
34253.2,28786.8
34246.8,28794
34239.6,28800.5
34231.8,28806.2
34223.6,28811.2
34214.8,28815.3
34205.7,28818.6
34196.4,28820.9
34186.8,28822.4
34177.2,28822.8
33822.8,28822.8
33813.2,28822.4
33803.6,28820.9
33794.3,28818.6
33785.2,28815.3
33776.4,28811.2
33768.2,28806.2
33760.4,28800.5
33753.2,28794
33746.8,28786.8
33741,28779.1
33736,28770.8
33731.9,28762.1
33728.6,28753
33726.3,28743.6
33724.9,28734.1
33724.4,28724.4
33724.4,28468.5
33724.9,28458.9
33726.3,28449.3
33728.6,28439.9
33731.9,28430.8
33736,28422.1
33741,28413.8
33746.8,28406.1
33753.2,28398.9
33760.4,28392.4
33768.2,28386.7
33776.4,28381.7
33785.2,28377.6
33794.3,28374.3
33803.6,28372
33813.2,28370.6
33822.8,28370.1
34177.2,28370.1
Z" /> 
</g>
<g >
</g>
<g style="fill:#000000; fill-opacity:1.0; 
stroke:#000000; stroke-width:0; stroke-opacity:1; 
stroke-linecap:round; stroke-linejoin:round;">
<circle cx="30413.4" cy="28248" r="393.701" /> 
</g>
<g style="fill:#000000; fill-opacity:1.0; 
stroke:#000000; stroke-width:39.3701; stroke-opacity:1; 
stroke-linecap:round; stroke-linejoin:round;">
</g>
<g style="fill:#000000; fill-opacity:1.0; 
stroke:#000000; stroke-width:0; stroke-opacity:1; 
stroke-linecap:round; stroke-linejoin:round;">
<circle cx="30413.4" cy="30019.7" r="393.701" /> 
</g>
<g style="fill:#000000; fill-opacity:1.0; 
stroke:#000000; stroke-width:39.3701; stroke-opacity:1; 
stroke-linecap:round; stroke-linejoin:round;">
</g>
<g style="fill:#000000; fill-opacity:1.0; 
stroke:#000000; stroke-width:0; stroke-opacity:1; 
stroke-linecap:round; stroke-linejoin:round;">
<circle cx="27854.3" cy="28248" r="393.701" /> 
</g>
<g style="fill:#000000; fill-opacity:1.0; 
stroke:#000000; stroke-width:39.3701; stroke-opacity:1; 
stroke-linecap:round; stroke-linejoin:round;">
</g>
<g style="fill:#000000; fill-opacity:1.0; 
stroke:#000000; stroke-width:0; stroke-opacity:1; 
stroke-linecap:round; stroke-linejoin:round;">
<circle cx="27854.3" cy="30019.7" r="393.701" /> 
</g>
<g style="fill:#000000; fill-opacity:1.0; 
stroke:#000000; stroke-width:39.3701; stroke-opacity:1; 
stroke-linecap:round; stroke-linejoin:round;">
</g>
<g >
</g>
<g style="fill:#000000; fill-opacity:1.0; 
stroke:#000000; stroke-width:39.3701; stroke-opacity:1; 
stroke-linecap:round; stroke-linejoin:round;">
</g>
<g style="fill:#000000; fill-opacity:1.0; 
stroke:#000000; stroke-width:0; stroke-opacity:1; 
stroke-linecap:round; stroke-linejoin:round;">
<path style="fill:#000000; fill-opacity:1.0; 
stroke:#000000; stroke-width:0; stroke-opacity:1; 
stroke-linecap:round; stroke-linejoin:round;fill-rule:evenodd;"
d="M 25259.8,25933.1
25259.8,26326.8
24669.3,26326.8
24669.3,25933.1
Z" /> 
<path style="fill:#000000; fill-opacity:1.0; 
stroke:#000000; stroke-width:0; stroke-opacity:1; 
stroke-linecap:round; stroke-linejoin:round;fill-rule:evenodd;"
d="M 25259.8,24673.2
25259.8,25066.9
24669.3,25066.9
24669.3,24673.2
Z" /> 
<path style="fill:#000000; fill-opacity:1.0; 
stroke:#000000; stroke-width:0; stroke-opacity:1; 
stroke-linecap:round; stroke-linejoin:round;fill-rule:evenodd;"
d="M 23330.7,25933.1
23330.7,26326.8
22740.2,26326.8
22740.2,25933.1
Z" /> 
<path style="fill:#000000; fill-opacity:1.0; 
stroke:#000000; stroke-width:0; stroke-opacity:1; 
stroke-linecap:round; stroke-linejoin:round;fill-rule:evenodd;"
d="M 23330.7,24673.2
23330.7,25066.9
22740.2,25066.9
22740.2,24673.2
Z" /> 
</g>
<g >
</g>
<g style="fill:#000000; fill-opacity:1.0; 
stroke:#000000; stroke-width:0; stroke-opacity:1; 
stroke-linecap:round; stroke-linejoin:round;">
</g>
<g style="fill:#000000; fill-opacity:1.0; 
stroke:#000000; stroke-width:669.291; stroke-opacity:1; 
stroke-linecap:round; stroke-linejoin:round;">
</g>
<g style="fill:#000000; fill-opacity:0.0; 
stroke:#000000; stroke-width:669.291; stroke-opacity:1; 
stroke-linecap:round; stroke-linejoin:round;">
<path d="M37795 36633
L37795 36633
" />
<path d="M37795 35633
L37795 35633
" />
<path d="M37795 34633
L37795 34633
" />
<path d="M37795 33633
L37795 33633
" />
<path d="M37795 32633
L37795 32633
" />
<path d="M37795 31633
L37795 31633
" />
<path d="M37795 30633
L37795 30633
" />
<path d="M37795 29633
L37795 29633
" />
<path d="M37795 28633
L37795 28633
" />
<path d="M37795 27633
L37795 27633
" />
<path d="M37795 26633
L37795 26633
" />
<path d="M37795 25633
L37795 25633
" />
<path d="M37795 24633
L37795 24633
" />
<path d="M37795 23633
L37795 23633
" />
<path d="M37795 22633
L37795 22633
" />
</g>
<g style="fill:#000000; fill-opacity:0.0; 
stroke:#000000; stroke-width:0; stroke-opacity:1; 
stroke-linecap:round; stroke-linejoin:round;">
</g>
<g style="fill:#000000; fill-opacity:1.0; 
stroke:#000000; stroke-width:0; stroke-opacity:1; 
stroke-linecap:round; stroke-linejoin:round;">
<path style="fill:#000000; fill-opacity:1.0; 
stroke:#000000; stroke-width:0; stroke-opacity:1; 
stroke-linecap:round; stroke-linejoin:round;fill-rule:evenodd;"
d="M 38129.9,21299.2
38129.9,21968.5
37460.6,21968.5
37460.6,21299.2
Z" /> 
</g>
<g >
</g>
<g style="fill:#000000; fill-opacity:1.0; 
stroke:#000000; stroke-width:0; stroke-opacity:1; 
stroke-linecap:round; stroke-linejoin:round;">
</g>
<g style="fill:#000000; fill-opacity:1.0; 
stroke:#000000; stroke-width:669.291; stroke-opacity:1; 
stroke-linecap:round; stroke-linejoin:round;">
</g>
<g style="fill:#000000; fill-opacity:0.0; 
stroke:#000000; stroke-width:669.291; stroke-opacity:1; 
stroke-linecap:round; stroke-linejoin:round;">
<path d="M20472 36633
L20472 36633
" />
<path d="M20472 35633
L20472 35633
" />
<path d="M20472 34633
L20472 34633
" />
<path d="M20472 33633
L20472 33633
" />
<path d="M20472 32633
L20472 32633
" />
<path d="M20472 31633
L20472 31633
" />
<path d="M20472 30633
L20472 30633
" />
<path d="M20472 29633
L20472 29633
" />
<path d="M20472 28633
L20472 28633
" />
<path d="M20472 27633
L20472 27633
" />
<path d="M20472 26633
L20472 26633
" />
<path d="M20472 25633
L20472 25633
" />
<path d="M20472 24633
L20472 24633
" />
<path d="M20472 23633
L20472 23633
" />
<path d="M20472 22633
L20472 22633
" />
</g>
<g style="fill:#000000; fill-opacity:0.0; 
stroke:#000000; stroke-width:0; stroke-opacity:1; 
stroke-linecap:round; stroke-linejoin:round;">
</g>
<g style="fill:#000000; fill-opacity:1.0; 
stroke:#000000; stroke-width:0; stroke-opacity:1; 
stroke-linecap:round; stroke-linejoin:round;">
<path style="fill:#000000; fill-opacity:1.0; 
stroke:#000000; stroke-width:0; stroke-opacity:1; 
stroke-linecap:round; stroke-linejoin:round;fill-rule:evenodd;"
d="M 20807.1,21299.2
20807.1,21968.5
20137.8,21968.5
20137.8,21299.2
Z" /> 
</g>
<g >
</g>
<g style="fill:#000000; fill-opacity:1.0; 
stroke:#000000; stroke-width:0; stroke-opacity:1; 
stroke-linecap:round; stroke-linejoin:round;">
<circle cx="26500" cy="28500" r="157.48" /> 
</g>
<g style="fill:#000000; fill-opacity:1.0; 
stroke:#000000; stroke-width:39.3701; stroke-opacity:1; 
stroke-linecap:round; stroke-linejoin:round;">
</g>
<g style="fill:#000000; fill-opacity:1.0; 
stroke:#000000; stroke-width:0; stroke-opacity:1; 
stroke-linecap:round; stroke-linejoin:round;">
<circle cx="24500" cy="28500" r="157.48" /> 
</g>
<g style="fill:#000000; fill-opacity:1.0; 
stroke:#000000; stroke-width:39.3701; stroke-opacity:1; 
stroke-linecap:round; stroke-linejoin:round;">
</g>
<g style="fill:#000000; fill-opacity:1.0; 
stroke:#000000; stroke-width:0; stroke-opacity:1; 
stroke-linecap:round; stroke-linejoin:round;">
<circle cx="29000" cy="34500" r="157.48" /> 
</g>
<g style="fill:#000000; fill-opacity:1.0; 
stroke:#000000; stroke-width:39.3701; stroke-opacity:1; 
stroke-linecap:round; stroke-linejoin:round;">
</g>
<g style="fill:#000000; fill-opacity:1.0; 
stroke:#000000; stroke-width:0; stroke-opacity:1; 
stroke-linecap:round; stroke-linejoin:round;">
<circle cx="29000" cy="36500" r="157.48" /> 
</g>
<g style="fill:#000000; fill-opacity:1.0; 
stroke:#000000; stroke-width:39.3701; stroke-opacity:1; 
stroke-linecap:round; stroke-linejoin:round;">
</g>
<g style="fill:#000000; fill-opacity:1.0; 
stroke:#000000; stroke-width:0; stroke-opacity:1; 
stroke-linecap:round; stroke-linejoin:round;">
<circle cx="33000" cy="24500" r="157.48" /> 
</g>
<g style="fill:#000000; fill-opacity:1.0; 
stroke:#000000; stroke-width:39.3701; stroke-opacity:1; 
stroke-linecap:round; stroke-linejoin:round;">
</g>
<g style="fill:#000000; fill-opacity:1.0; 
stroke:#000000; stroke-width:0; stroke-opacity:1; 
stroke-linecap:round; stroke-linejoin:round;">
<circle cx="29000" cy="24500" r="157.48" /> 
</g>
<g style="fill:#000000; fill-opacity:1.0; 
stroke:#000000; stroke-width:39.3701; stroke-opacity:1; 
stroke-linecap:round; stroke-linejoin:round;">
</g>
<g style="fill:#000000; fill-opacity:1.0; 
stroke:#000000; stroke-width:0; stroke-opacity:1; 
stroke-linecap:round; stroke-linejoin:round;">
<circle cx="22000" cy="34500" r="157.48" /> 
</g>
<g style="fill:#000000; fill-opacity:1.0; 
stroke:#000000; stroke-width:39.3701; stroke-opacity:1; 
stroke-linecap:round; stroke-linejoin:round;">
</g>
<g style="fill:#000000; fill-opacity:1.0; 
stroke:#000000; stroke-width:0; stroke-opacity:1; 
stroke-linecap:round; stroke-linejoin:round;">
<circle cx="22000" cy="31000" r="157.48" /> 
</g>
<g style="fill:#000000; fill-opacity:1.0; 
stroke:#000000; stroke-width:39.3701; stroke-opacity:1; 
stroke-linecap:round; stroke-linejoin:round;">
</g>
<g style="fill:#000000; fill-opacity:1.0; 
stroke:#000000; stroke-width:0; stroke-opacity:1; 
stroke-linecap:round; stroke-linejoin:round;">
<circle cx="32000" cy="27000" r="157.48" /> 
</g>
<g style="fill:#000000; fill-opacity:1.0; 
stroke:#000000; stroke-width:39.3701; stroke-opacity:1; 
stroke-linecap:round; stroke-linejoin:round;">
</g>
<g style="fill:#000000; fill-opacity:1.0; 
stroke:#000000; stroke-width:0; stroke-opacity:1; 
stroke-linecap:round; stroke-linejoin:round;">
<circle cx="32000" cy="31500" r="157.48" /> 
</g>
<g style="fill:#000000; fill-opacity:1.0; 
stroke:#000000; stroke-width:39.3701; stroke-opacity:1; 
stroke-linecap:round; stroke-linejoin:round;">
</g>
<g style="fill:#000000; fill-opacity:1.0; 
stroke:#000000; stroke-width:0; stroke-opacity:1; 
stroke-linecap:round; stroke-linejoin:round;">
<circle cx="23485.5" cy="23014.5" r="157.48" /> 
</g>
<g style="fill:#000000; fill-opacity:1.0; 
stroke:#000000; stroke-width:39.3701; stroke-opacity:1; 
stroke-linecap:round; stroke-linejoin:round;">
</g>
<g style="fill:#000000; fill-opacity:1.0; 
stroke:#000000; stroke-width:0; stroke-opacity:1; 
stroke-linecap:round; stroke-linejoin:round;">
<circle cx="30500" cy="23000" r="157.48" /> 
</g>
<g style="fill:#000000; fill-opacity:1.0; 
stroke:#000000; stroke-width:39.3701; stroke-opacity:1; 
stroke-linecap:round; stroke-linejoin:round;">
</g>
<g style="fill:#000000; fill-opacity:1.0; 
stroke:#000000; stroke-width:0; stroke-opacity:1; 
stroke-linecap:round; stroke-linejoin:round;">
<circle cx="39463.7" cy="37500" r="157.48" /> 
</g>
<g style="fill:#000000; fill-opacity:1.0; 
stroke:#000000; stroke-width:39.3701; stroke-opacity:1; 
stroke-linecap:round; stroke-linejoin:round;">
</g>
<g style="fill:#000000; fill-opacity:1.0; 
stroke:#000000; stroke-width:0; stroke-opacity:1; 
stroke-linecap:round; stroke-linejoin:round;">
<circle cx="31500" cy="37500" r="157.48" /> 
</g>
<g style="fill:#000000; fill-opacity:1.0; 
stroke:#000000; stroke-width:39.3701; stroke-opacity:1; 
stroke-linecap:round; stroke-linejoin:round;">
</g>
<g style="fill:#000000; fill-opacity:1.0; 
stroke:#000000; stroke-width:0; stroke-opacity:1; 
stroke-linecap:round; stroke-linejoin:round;">
<circle cx="40500" cy="42500" r="157.48" /> 
</g>
<g style="fill:#000000; fill-opacity:1.0; 
stroke:#000000; stroke-width:39.3701; stroke-opacity:1; 
stroke-linecap:round; stroke-linejoin:round;">
</g>
<g style="fill:#000000; fill-opacity:1.0; 
stroke:#000000; stroke-width:0; stroke-opacity:1; 
stroke-linecap:round; stroke-linejoin:round;">
<circle cx="34000" cy="38000" r="157.48" /> 
</g>
<g style="fill:#000000; fill-opacity:1.0; 
stroke:#000000; stroke-width:39.3701; stroke-opacity:1; 
stroke-linecap:round; stroke-linejoin:round;">
</g>
<g style="fill:#000000; fill-opacity:1.0; 
stroke:#000000; stroke-width:0; stroke-opacity:1; 
stroke-linecap:round; stroke-linejoin:round;">
<circle cx="33000" cy="37000" r="157.48" /> 
</g>
<g style="fill:#000000; fill-opacity:1.0; 
stroke:#000000; stroke-width:39.3701; stroke-opacity:1; 
stroke-linecap:round; stroke-linejoin:round;">
</g>
<g style="fill:#000000; fill-opacity:1.0; 
stroke:#000000; stroke-width:0; stroke-opacity:1; 
stroke-linecap:round; stroke-linejoin:round;">
<circle cx="35038" cy="22038" r="157.48" /> 
</g>
<g style="fill:#000000; fill-opacity:1.0; 
stroke:#000000; stroke-width:39.3701; stroke-opacity:1; 
stroke-linecap:round; stroke-linejoin:round;">
</g>
<g style="fill:#000000; fill-opacity:1.0; 
stroke:#000000; stroke-width:0; stroke-opacity:1; 
stroke-linecap:round; stroke-linejoin:round;">
<circle cx="19000" cy="20500" r="157.48" /> 
</g>
<g style="fill:#000000; fill-opacity:1.0; 
stroke:#000000; stroke-width:39.3701; stroke-opacity:1; 
stroke-linecap:round; stroke-linejoin:round;">
</g>
<g style="fill:#000000; fill-opacity:1.0; 
stroke:#000000; stroke-width:0; stroke-opacity:1; 
stroke-linecap:round; stroke-linejoin:round;">
<circle cx="22000" cy="20500" r="157.48" /> 
</g>
<g style="fill:#000000; fill-opacity:1.0; 
stroke:#000000; stroke-width:39.3701; stroke-opacity:1; 
stroke-linecap:round; stroke-linejoin:round;">
</g>
<g >
</g>
<g style="fill:#000000; fill-opacity:1.0; 
stroke:#000000; stroke-width:39.3701; stroke-opacity:1; 
stroke-linecap:round; stroke-linejoin:round;">
</g>
<g style="fill:#000000; fill-opacity:1.0; 
stroke:#000000; stroke-width:275.591; stroke-opacity:1; 
stroke-linecap:round; stroke-linejoin:round;">
</g>
<g style="fill:#000000; fill-opacity:0.0; 
stroke:#000000; stroke-width:275.591; stroke-opacity:1; 
stroke-linecap:round; stroke-linejoin:round;">
<path d="M27854 30019
L30413 30019
" />
<path d="M34000 29629
L34000 29403
" />
<path d="M33610 30019
L34000 29629
" />
<path d="M30413 30019
L33610 30019
" />
<path d="M37795 31633
L35133 31633
" />
<path d="M34000 30500
L34000 29403
" />
<path d="M35133 31633
L34000 30500
" />
<path d="M37795 22633
L34000 26429
" />
<path d="M34000 26429
L34000 28596
" />
<path d="M23874 31529
L23903 31500
" />
<path d="M23874 32606
L23874 31529
" />
<path d="M30413 28248
L27854 28248
" />
<path d="M33500 25500
L37366 21633
" />
<path d="M37366 21633
L37795 21633
" />
<path d="M33500 27000
L33500 25500
" />
<path d="M30413 28248
L32251 28248
" />
<path d="M32251 28248
L33500 27000
" />
<path d="M26751 28248
L26500 28500
" />
<path d="M27854 28248
L26751 28248
" />
<path d="M23903 31224
L23903 31500
" />
<path d="M24000 31127
L23903 31224
" />
<path d="M24000 29000
L24000 31127
" />
<path d="M24500 28500
L24000 29000
" />
</g>
<g style="fill:#000000; fill-opacity:0.0; 
stroke:#000000; stroke-width:196.85; stroke-opacity:1; 
stroke-linecap:round; stroke-linejoin:round;">
<path d="M20500 32606
L20472 32633
" />
</g>
<g style="fill:#000000; fill-opacity:0.0; 
stroke:#000000; stroke-width:275.591; stroke-opacity:1; 
stroke-linecap:round; stroke-linejoin:round;">
<path d="M23125 32606
L20500 32606
" />
<path d="M23125 31529
L23096 31500
" />
<path d="M23125 32606
L23125 31529
" />
<path d="M25275 34403
L27000 32679
" />
<path d="M25000 34403
L25275 34403
" />
<path d="M27598 31653
L28169 31653
" />
<path d="M27000 32251
L27598 31653
" />
<path d="M27000 32679
L27000 32251
" />
<path d="M26645 25354
L28169 25354
" />
<path d="M25870 26129
L26645 25354
" />
<path d="M24964 26129
L25870 26129
" />
<path d="M18153 38346
L18326 38346
" />
<path d="M11240 45259
L18153 38346
" />
<path d="M11240 45433
L11240 45259
" />
<path d="M19000 37500
L18326 38173
" />
<path d="M21000 37500
L19000 37500
" />
<path d="M18326 38173
L18326 38346
" />
<path d="M24096 34403
L21000 37500
" />
<path d="M25000 34403
L24096 34403
" />
<path d="M37440 38346
L38011 38346
" />
<path d="M37000 38787
L37440 38346
" />
<path d="M39940 19921
L40039 19921
" />
<path d="M39940 19921
L40078 19921
" />
<path d="M29000 31913
L29000 34500
" />
<path d="M28740 31653
L29000 31913
" />
<path d="M28169 31653
L28740 31653
" />
<path d="M37000 39000
L37000 38787
" />
<path d="M37000 39463
L37000 39000
" />
<path d="M39036 41500
L37000 39463
" />
<path d="M41165 41500
L39036 41500
" />
<path d="M45098 45433
L41165 41500
" />
<path d="M40078 19921
L42500 17500
" />
<path d="M42500 17500
L45500 14500
" />
<path d="M45500 14500
L46500 13500
" />
<path d="M46500 13500
L47000 13000
" />
<path d="M13334 13000
L13169 12834
" />
<path d="M13500 13000
L13334 13000
" />
<path d="M18000 17500
L13500 13000
" />
<path d="M18500 17500
L18000 17500
" />
<path d="M19500 19736
L19500 18500
" />
<path d="M19685 19921
L19500 19736
" />
<path d="M19500 18500
L18500 17500
" />
<path d="M20255 19921
L19685 19921
" />
<path d="M20472 20137
L20255 19921
" />
<path d="M20472 21633
L20472 20137
" />
<path d="M39940 19921
L39078 19921
" />
<path d="M39078 19921
L38500 20500
" />
<path d="M38500 20500
L37500 20500
" />
<path d="M37500 20500
L35500 22500
" />
<path d="M34500 36500
L37000 39000
" />
<path d="M29000 36500
L34500 36500
" />
<path d="M35500 22500
L34000 24000
" />
<path d="M33500 24500
L33000 24500
" />
<path d="M34000 24000
L33500 24500
" />
<path d="M29000 24523
L28169 25354
" />
<path d="M29000 24500
L29000 24523
" />
<path d="M21082 21633
L20472 21633
" />
<path d="M21948 22500
L21082 21633
" />
<path d="M23500 22500
L21948 22500
" />
<path d="M24000 23000
L23500 22500
" />
<path d="M24000 26000
L24000 23000
" />
<path d="M24129 26129
L24000 26000
" />
<path d="M24964 26129
L24129 26129
" />
<path d="M27000 32251
L25748 31000
" />
<path d="M25748 31000
L25722 31000
" />
<path d="M25500 26500
L25870 26129
" />
<path d="M25500 27000
L25500 26500
" />
<path d="M25000 27500
L25500 27000
" />
<path d="M25000 30251
L25000 27500
" />
<path d="M25748 31000
L25000 30251
" />
<path d="M24964 24397
L25862 23500
" />
<path d="M24964 24870
L24964 24397
" />
<path d="M25862 23500
L29000 23500
" />
<path d="M30098 24598
L30098 25354
" />
<path d="M29000 23500
L30098 24598
" />
<path d="M24797 33393
L25000 33596
" />
<path d="M23500 33393
L24797 33393
" />
<path d="M23500 33393
L23500 34000
" />
<path d="M23500 34000
L23000 34500
" />
<path d="M23000 34500
L22000 34500
" />
<path d="M22000 31000
L22000 28000
" />
<path d="M23035 26964
L23035 26129
" />
<path d="M22000 28000
L23035 26964
" />
<path d="M31614 26614
L32000 27000
" />
<path d="M30098 26614
L31614 26614
" />
<path d="M32000 31500
L32000 32500
" />
<path d="M31586 32913
L30098 32913
" />
<path d="M32000 32500
L31586 32913
" />
<path d="M19500 39791
L19685 39606
" />
<path d="M19500 40500
L19500 39791
" />
<path d="M13307 46692
L19500 40500
" />
<path d="M19685 39606
L20255 39606
" />
<path d="M13169 46692
L13307 46692
" />
<path d="M42070 39606
L39940 39606
" />
<path d="M48000 45536
L42070 39606
" />
<path d="M48000 46500
L48000 45536
" />
<path d="M47807 46692
L48000 46500
" />
<path d="M47027 46692
L47807 46692
" />
<path d="M37000 37500
L32000 32500
" />
<path d="M38500 37500
L37000 37500
" />
<path d="M39000 39236
L39000 38000
" />
<path d="M39000 38000
L38500 37500
" />
<path d="M39370 39606
L39000 39236
" />
<path d="M39940 39606
L39370 39606
" />
<path d="M30098 34901
L30098 32913
" />
<path d="M29500 35500
L30098 34901
" />
<path d="M21000 39000
L24500 35500
" />
<path d="M20500 39000
L21000 39000
" />
<path d="M24500 35500
L29500 35500
" />
<path d="M20255 39244
L20500 39000
" />
<path d="M20255 39606
L20255 39244
" />
<path d="M44000 12500
L44500 12000
" />
<path d="M44000 13000
L44000 12500
" />
<path d="M38338 18661
L44000 13000
" />
<path d="M38011 18661
L38338 18661
" />
<path d="M18326 18661
L16197 18661
" />
<path d="M44500 12000
L45000 12000
" />
<path d="M45000 11673
L45098 11574
" />
<path d="M45000 12000
L45000 11673
" />
<path d="M20472 22633
L20133 22633
" />
<path d="M20133 22633
L20133 22597
" />
<path d="M20133 22597
L17500 19963
" />
<path d="M17500 19963
L16197 18661
" />
<path d="M22708 24870
L23035 24870
" />
<path d="M20472 22633
L22708 24870
" />
<path d="M31614 24385
L31614 26614
" />
<path d="M35500 21000
L35000 21000
" />
<path d="M35000 21000
L31614 24385
" />
<path d="M37838 18661
L35500 21000
" />
<path d="M38011 18661
L37838 18661
" />
<path d="M10574 11574
L11240 11574
" />
<path d="M10000 12149
L10574 11574
" />
<path d="M10000 12463
L10000 12149
" />
<path d="M16197 18661
L10000 12463
" />
<path d="M23035 23464
L23485 23014
" />
<path d="M23035 24870
L23035 23464
" />
<path d="M31614 24114
L31614 24385
" />
<path d="M30500 23000
L31614 24114
" />
<path d="M25500 28000
L26885 26614
" />
<path d="M25500 29500
L25500 28000
" />
<path d="M27000 31000
L25500 29500
" />
<path d="M30098 31098
L30000 31000
" />
<path d="M26885 26614
L28169 26614
" />
<path d="M30000 31000
L27000 31000
" />
<path d="M30098 31653
L30098 31098
" />
<path d="M28169 33830
L28169 32913
" />
<path d="M24173 35000
L27000 35000
" />
<path d="M20826 38346
L24173 35000
" />
<path d="M27000 35000
L28169 33830
" />
<path d="M20255 38346
L20826 38346
" />
<path d="M18326 40173
L18326 39606
" />
<path d="M13169 45330
L18326 40173
" />
<path d="M13169 45433
L13169 45330
" />
<path d="M39940 37977
L39463 37500
" />
<path d="M39940 38346
L39940 37977
" />
<path d="M11240 46692
L11240 47165
" />
<path d="M12074 48000
L12731 48000
" />
<path d="M11240 47165
L12074 48000
" />
<path d="M12731 48000
L23231 37500
" />
<path d="M23231 37500
L31277 37500
" />
<path d="M31277 37500
L31500 37500
" />
<path d="M46000 44976
L46456 45433
" />
<path d="M46000 44500
L46000 44976
" />
<path d="M39000 40500
L42000 40500
" />
<path d="M46456 45433
L47027 45433
" />
<path d="M38106 39606
L39000 40500
" />
<path d="M42000 40500
L46000 44500
" />
<path d="M38011 39606
L38106 39606
" />
<path d="M38011 19921
L37154 19921
" />
<path d="M37154 19921
L35037 22037
" />
<path d="M40500 42665
L40500 42500
" />
<path d="M44527 46692
L40500 42665
" />
<path d="M45098 46692
L44527 46692
" />
<path d="M34000 38000
L33000 37000
" />
<path d="M45098 13401
L45098 12834
" />
<path d="M39940 18559
L45098 13401
" />
<path d="M39940 18661
L39940 18559
" />
<path d="M18326 19921
L18326 19826
" />
<path d="M18421 19921
L19000 20500
" />
<path d="M18326 19921
L18421 19921
" />
<path d="M23000 21500
L22000 20500
" />
<path d="M32500 21500
L23000 21500
" />
<path d="M33500 20500
L32500 21500
" />
<path d="M35303 20500
L33500 20500
" />
<path d="M45303 10500
L35303 20500
" />
<path d="M47027 10761
L46766 10500
" />
<path d="M46766 10500
L45303 10500
" />
<path d="M47027 11574
L47027 10761
" />
<path d="M20255 17792
L20255 18188
" />
<path d="M13463 11000
L20255 17792
" />
<path d="M12000 11500
L12500 11000
" />
<path d="M12500 11000
L13463 11000
" />
<path d="M12000 12645
L12000 11500
" />
<path d="M11811 12834
L12000 12645
" />
<path d="M20255 18188
L20255 18661
" />
<path d="M11240 12834
L11811 12834
" />
</g>
<g >
</g>
<g style="fill:#000000; fill-opacity:0.0; 
stroke:#000000; stroke-width:275.591; stroke-opacity:1; 
stroke-linecap:round; stroke-linejoin:round;">
</g>
<g style="fill:#000000; fill-opacity:1.0; 
stroke:#000000; stroke-width:100; stroke-opacity:1; 
stroke-linecap:round; stroke-linejoin:round;">
<path style="fill:#000000; fill-opacity:1.0; 
stroke:#000000; stroke-width:100; stroke-opacity:1; 
stroke-linecap:round; stroke-linejoin:round;fill-rule:evenodd;"
d="M 29913.4,30430
30003.1,30519.7
30108.5,30590.1
30225.6,30638.6
30350,30663.4
30476.8,30663.4
30601.1,30638.6
30718.3,30590.1
30823.7,30519.7
30913.4,30430
30928.4,30407.5
33591.2,30407.5
33610.2,30409.4
33612.2,30409.2
33612.2,30481
33610.3,30500
33612.2,30519
33617.8,30576
33640,30649.1
33676,30716.5
33724.5,30775.5
33739.3,30787.7
34846.2,31894.6
34858.3,31909.4
34917.4,31957.9
34976.4,31989.4
34984.7,31993.9
35057.8,32016
35133.9,32023.5
35152.9,32021.7
37356.3,32021.7
37422.6,32088
37491.2,32133.9
37422.6,32179.7
37341.2,32261.2
37277.2,32356.9
37233.1,32463.3
37210.6,32576.3
37210.6,32691.4
37233.1,32804.4
37277.2,32910.8
37341.2,33006.5
37422.6,33088
37491.2,33133.9
37422.6,33179.7
37341.2,33261.2
37277.2,33356.9
37233.1,33463.3
37210.6,33576.3
37210.6,33691.4
37233.1,33804.4
37277.2,33910.8
37341.2,34006.5
37422.6,34088
37491.2,34133.9
37422.6,34179.7
37341.2,34261.2
37277.2,34356.9
37233.1,34463.3
37210.6,34576.3
37210.6,34691.4
37233.1,34804.4
37277.2,34910.8
37341.2,35006.5
37422.6,35088
37491.2,35133.9
37422.6,35179.7
37341.2,35261.2
37277.2,35356.9
37233.1,35463.3
37210.6,35576.3
37210.6,35691.4
37233.1,35804.4
37277.2,35910.8
37341.2,36006.5
37422.6,36088
37491.2,36133.9
37422.6,36179.7
37341.2,36261.2
37277.2,36356.9
37233.1,36463.3
37210.6,36576.3
37210.6,36691.4
37233.1,36804.4
37277.2,36910.8
37341.2,37006.5
37422.6,37088
37518.3,37152
37624.7,37196
37737.7,37218.5
37852.9,37218.5
37965.8,37196
38072.2,37152
38168,37088
38249.4,37006.5
38313.4,36910.8
38357.5,36804.4
38379.9,36691.4
38379.9,36576.3
38357.5,36463.3
38313.4,36356.9
38249.4,36261.2
38168,36179.7
38099.3,36133.9
38168,36088
38249.4,36006.5
38313.4,35910.8
38331.7,35866.6
38341.5,35898.7
38365.6,35943.9
38389.9,35973.5
38389.9,35973.5
38398.1,35983.4
38408,35991.6
39130.8,36714.4
37471.8,37958.7
37460,37958.7
37440.9,37956.8
37364.9,37964.3
37347.9,37969.4
37291.8,37986.4
37224.5,38022.5
37165.4,38070.9
37153.3,38085.7
36893.7,38345.3
34787.7,36239.3
34775.5,36224.5
34716.5,36176
34649.1,36140
34576,36117.8
34519,36112.2
34500,36110.3
34481,36112.2
29128.6,36112.2
29118.9,36108.2
29040.1,36092.5
28959.9,36092.5
28881.1,36108.2
28807,36138.9
28740.2,36183.5
28683.5,36240.2
28638.9,36307
28608.2,36381.1
28592.5,36459.9
28592.5,36540.1
28608.2,36618.9
28638.9,36693
28683.5,36759.8
28740.2,36816.5
28807,36861.1
28881.1,36891.8
28959.9,36907.5
29040.1,36907.5
29118.9,36891.8
29128.6,36887.8
32606.9,36887.8
32592.5,36959.9
32592.5,37040.1
32608.2,37118.9
32638.9,37193
32683.5,37259.8
32740.2,37316.5
32807,37361.1
32816.7,37365.1
33634.9,38183.3
33638.9,38193
33683.5,38259.8
33740.2,38316.5
33749.7,38322.8
22957,38322.8
23392.1,37887.8
31371.4,37887.8
31381.1,37891.8
31459.9,37907.5
31540.1,37907.5
31618.9,37891.8
31693,37861.1
31759.8,37816.5
31816.5,37759.8
31861.1,37693
31891.8,37618.9
31907.5,37540.1
31907.5,37459.9
31891.8,37381.1
31861.1,37307
31816.5,37240.2
31759.8,37183.5
31693,37138.9
31618.9,37108.2
31540.1,37092.5
31459.9,37092.5
31381.1,37108.2
31371.4,37112.2
23250.5,37112.2
23231.5,37110.3
23212.4,37112.2
23155.4,37117.8
23082.3,37140
23015,37176
22955.9,37224.5
22943.8,37239.3
21970.6,38212.4
21714.3,38007.4
24333.9,35387.8
26981,35387.8
27000,35389.7
27019,35387.8
27076,35382.2
27149.1,35360
27216.5,35324
27275.5,35275.5
27287.7,35260.7
28430,34118.4
28444.8,34106.2
28493.3,34047.2
28529.3,33979.8
28547.9,33918.7
28551.5,33906.7
28559,33830.7
28557.1,33811.7
28557.1,33343.4
28560.7,33342.3
28604.1,33319.1
28612.2,33312.5
28612.2,34371.4
28608.2,34381.1
28592.5,34459.9
28592.5,34540.1
28608.2,34618.9
28638.9,34693
28683.5,34759.8
28740.2,34816.5
28807,34861.1
28881.1,34891.8
28959.9,34907.5
29040.1,34907.5
29118.9,34891.8
29193,34861.1
29259.8,34816.5
29316.5,34759.8
29361.1,34693
29391.8,34618.9
29407.5,34540.1
29407.5,34459.9
29391.8,34381.1
29387.8,34371.4
29387.8,33110.2
29551.9,33110.2
29556.8,33159.2
29571.1,33206.4
29594.3,33249.8
29625.5,33287.9
29663.6,33319.1
29707,33342.3
29754.1,33356.6
29803.1,33361.4
29985.9,33360.2
30048.4,33297.7
30048.4,32963.4
30148.4,32963.4
30148.4,33297.7
30210.9,33360.2
30393.7,33361.4
30442.7,33356.6
30489.8,33342.3
30533.3,33319.1
30571.3,33287.9
30602.6,33249.8
30625.8,33206.4
30640.1,33159.2
30644.9,33110.2
30643.7,33025.9
30581.2,32963.4
30148.4,32963.4
30048.4,32963.4
29615.6,32963.4
29553.1,33025.9
29551.9,33110.2
29387.8,33110.2
29387.8,32716.5
29551.9,32716.5
29553.1,32800.9
29615.6,32863.4
30048.4,32863.4
30048.4,32529
30148.4,32529
30148.4,32863.4
30581.2,32863.4
30643.7,32800.9
30644.9,32716.5
30640.1,32667.5
30625.8,32620.4
30602.6,32577
30571.3,32538.9
30533.3,32507.7
30489.8,32484.4
30442.7,32470.2
30393.7,32465.3
30210.9,32466.5
30148.4,32529
30048.4,32529
29985.9,32466.5
29803.1,32465.3
29754.1,32470.2
29707,32484.4
29663.6,32507.7
29625.5,32538.9
29594.3,32577
29571.1,32620.4
29556.8,32667.5
29551.9,32716.5
29387.8,32716.5
29387.8,31932.4
29389.7,31913.4
29382.2,31837.4
29360,31764.3
29349.9,31745.4
29324,31696.9
29275.5,31637.8
29260.7,31625.7
29027.8,31392.8
29023.7,31387.8
29562.8,31387.8
29556.8,31407.7
29551.9,31456.7
29551.9,31850.4
29556.8,31899.4
29571.1,31946.5
29594.3,31990
29625.5,32028
29663.6,32059.3
29707,32082.5
29754.1,32096.8
29803.1,32101.6
30393.7,32101.6
30442.7,32096.8
30489.8,32082.5
30533.3,32059.3
30571.3,32028
30602.6,31990
30625.8,31946.5
30640.1,31899.4
30644.9,31850.4
30644.9,31456.7
30640.1,31407.7
30625.8,31360.6
30602.6,31317.1
30571.3,31279.1
30533.3,31247.8
30489.8,31224.6
30486.2,31223.5
30486.2,31117.5
30488.1,31098.4
30480.6,31022.4
30473.8,31000
30458.4,30949.3
30422.4,30881.9
30374,30822.9
30359.2,30810.7
30287.7,30739.3
30275.5,30724.5
30216.5,30676
30149.1,30640
30076,30617.8
30019,30612.2
30000,30610.3
29981,30612.2
28105.9,30612.2
28159.2,30590.1
28264.7,30519.7
28354.3,30430
28369.4,30407.5
29898.3,30407.5
Z" /> 
<path style="fill:#000000; fill-opacity:1.0; 
stroke:#000000; stroke-width:100; stroke-opacity:1; 
stroke-linecap:round; stroke-linejoin:round;fill-rule:evenodd;"
d="M 21661.1,22760.7
21673.3,22775.5
21732.3,22824
21782.6,22850.9
21799.7,22860
21872.8,22882.2
21948.8,22889.7
21967.9,22887.8
23339.4,22887.8
23612.2,23160.6
23612.2,25981
23610.3,26000
23612.2,26019
23617.8,26076
23640,26149.1
23676,26216.5
23724.5,26275.5
23739.3,26287.7
23842.2,26390.7
23854.4,26405.5
23913.4,26453.9
23980.8,26489.9
24053.9,26512.1
24110.9,26517.7
24110.9,26517.7
24129.9,26519.6
24149,26517.7
24507.9,26517.7
24529.7,26535.6
24573.2,26558.9
24620.3,26573.2
24669.3,26578
25112.2,26578
25112.2,26839.4
24739.3,27212.3
24724.5,27224.5
24676,27283.5
24673.3,27288.6
24640,27350.9
24617.8,27424
24610.3,27500
24612.2,27519.1
24612.2,28106.9
24540.1,28092.5
24459.9,28092.5
24381.1,28108.2
24307,28138.9
24240.2,28183.5
24183.5,28240.2
24138.9,28307
24134.9,28316.7
23739.3,28712.3
23724.5,28724.5
23676,28783.5
23654.4,28824
23640,28850.9
23617.8,28924
23610.3,29000
23612.2,29019
23612.2,30968.1
23579.5,31007.9
23557.5,31049.2
23555.1,31053.7
23528.4,31075.6
23500,31110.2
23471.6,31075.6
23418.7,31032.1
23358.2,30999.8
23292.6,30979.9
23224.4,30973.2
22968.5,30973.2
22900.3,30979.9
22834.7,30999.8
22774.3,31032.1
22721.3,31075.6
22677.8,31128.6
22645.5,31189
22625.6,31254.6
22618.9,31322.8
22618.9,31677.2
22625.6,31745.4
22645.5,31811
22677.8,31871.4
22721.3,31924.4
22738.2,31938.3
22738.2,32218.5
20883.9,32218.5
20845.1,32179.7
20776.5,32133.9
20845.1,32088
20926.6,32006.5
20990.5,31910.8
21034.6,31804.4
21057.1,31691.4
21057.1,31576.3
21034.6,31463.3
20990.5,31356.9
20926.6,31261.2
20845.1,31179.7
20776.5,31133.9
20845.1,31088
20926.6,31006.5
20957.8,30959.9
21592.5,30959.9
21592.5,31040.1
21608.2,31118.9
21638.9,31193
21683.5,31259.8
21740.2,31316.5
21807,31361.1
21881.1,31391.8
21959.9,31407.5
22040.1,31407.5
22118.9,31391.8
22193,31361.1
22259.8,31316.5
22316.5,31259.8
22361.1,31193
22391.8,31118.9
22407.5,31040.1
22407.5,30959.9
22391.8,30881.1
22387.8,30871.4
22387.8,28160.6
23296.2,27252.2
23311,27240.1
23359.4,27181.1
23395.4,27113.7
23417.6,27040.6
23423.2,26983.6
23423.2,26983.6
23425.1,26964.6
23423.2,26945.5
23423.2,26560
23426.8,26558.9
23470.3,26535.6
23508.3,26504.4
23539.6,26466.3
23562.8,26422.9
23577.1,26375.8
23581.9,26326.8
23581.9,25933.1
23577.1,25884.1
23562.8,25836.9
23539.6,25793.5
23508.3,25755.4
23470.3,25724.2
23426.8,25701
23379.7,25686.7
23330.7,25681.9
22740.2,25681.9
22691.1,25686.7
22644,25701
22600.6,25724.2
22562.5,25755.4
22531.3,25793.5
22508.1,25836.9
22493.8,25884.1
22488.9,25933.1
22488.9,26326.8
22493.8,26375.8
22508.1,26422.9
22531.3,26466.3
22562.5,26504.4
22600.6,26535.6
22644,26558.9
22647.6,26560
22647.6,26803.9
21739.3,27712.3
21724.5,27724.5
21676,27783.5
21656.8,27819.5
21640,27850.9
21617.8,27924
21610.3,28000
21612.2,28019.1
21612.2,30871.4
21608.2,30881.1
21592.5,30959.9
20957.8,30959.9
20990.5,30910.8
21034.6,30804.4
21057.1,30691.4
21057.1,30576.3
21034.6,30463.3
20990.5,30356.9
20926.6,30261.2
20845.1,30179.7
20776.5,30133.9
20845.1,30088
20926.6,30006.5
20990.5,29910.8
21034.6,29804.4
21057.1,29691.4
21057.1,29576.3
21034.6,29463.3
20990.5,29356.9
20926.6,29261.2
20845.1,29179.7
20776.5,29133.9
20845.1,29088
20926.6,29006.5
20990.5,28910.8
21034.6,28804.4
21057.1,28691.4
21057.1,28576.3
21034.6,28463.3
20990.5,28356.9
20926.6,28261.2
20845.1,28179.7
20776.5,28133.9
20845.1,28088
20926.6,28006.5
20990.5,27910.8
21034.6,27804.4
21057.1,27691.4
21057.1,27576.3
21034.6,27463.3
20990.5,27356.9
20926.6,27261.2
20845.1,27179.7
20776.5,27133.9
20845.1,27088
20926.6,27006.5
20990.5,26910.8
21034.6,26804.4
21057.1,26691.4
21057.1,26576.3
21034.6,26463.3
20990.5,26356.9
20926.6,26261.2
20845.1,26179.7
20776.5,26133.9
20845.1,26088
20926.6,26006.5
20990.5,25910.8
21034.6,25804.4
21057.1,25691.4
21057.1,25576.3
21034.6,25463.3
20990.5,25356.9
20926.6,25261.2
20845.1,25179.7
20776.5,25133.9
20845.1,25088
20866.2,25066.9
22488.9,25066.9
22493.8,25115.9
22508.1,25163.1
22531.3,25206.5
22562.5,25244.6
22600.6,25275.8
22644,25299
22691.1,25313.3
22740.2,25318.1
22922.9,25316.9
22985.4,25254.4
22985.4,24920.1
23085.4,24920.1
23085.4,25254.4
23147.9,25316.9
23330.7,25318.1
23379.7,25313.3
23426.8,25299
23470.3,25275.8
23508.3,25244.6
23539.6,25206.5
23562.8,25163.1
23577.1,25115.9
23581.9,25066.9
23580.7,24982.6
23518.2,24920.1
23085.4,24920.1
22985.4,24920.1
22552.7,24920.1
22490.2,24982.6
22488.9,25066.9
20866.2,25066.9
20926.6,25006.5
20990.5,24910.8
21034.6,24804.4
21057.1,24691.4
21057.1,24673.2
22488.9,24673.2
22490.2,24757.6
22552.7,24820.1
22985.4,24820.1
22985.4,24485.7
23085.4,24485.7
23085.4,24820.1
23518.2,24820.1
23580.7,24757.6
23581.9,24673.2
23577.1,24624.2
23562.8,24577.1
23539.6,24533.7
23508.3,24495.6
23470.3,24464.4
23426.8,24441.1
23379.7,24426.8
23330.7,24422
23147.9,24423.2
23085.4,24485.7
22985.4,24485.7
22922.9,24423.2
22740.2,24422
22691.1,24426.8
22644,24441.1
22600.6,24464.4
22562.5,24495.6
22531.3,24533.7
22508.1,24577.1
22493.8,24624.2
22488.9,24673.2
21057.1,24673.2
21057.1,24576.3
21034.6,24463.3
20990.5,24356.9
20926.6,24261.2
20845.1,24179.7
20776.5,24133.9
20845.1,24088
20926.6,24006.5
20990.5,23910.8
21034.6,23804.4
21057.1,23691.4
21057.1,23576.3
21034.6,23463.3
20990.5,23356.9
20926.6,23261.2
20845.1,23179.7
20773.4,23131.8
20819.4,23104.4
20904.6,23027.7
20973.1,22935.8
21022.4,22832.3
21040,22774.4
20992.2,22683.9
20522.4,22683.9
20522.4,22691.7
20422.4,22691.7
20422.4,22683.9
20414.6,22683.9
20414.6,22583.9
20422.4,22583.9
20422.4,22576
20522.4,22576
20522.4,22583.9
20992.2,22583.9
21040,22493.4
21022.4,22435.4
20973.1,22331.9
20904.6,22240.1
20871.5,22210.2
20903.2,22200.6
20946.7,22177.4
20984.7,22146.1
21012.6,22112.2
Z" /> 
<path style="fill:#000000; fill-opacity:1.0; 
stroke:#000000; stroke-width:100; stroke-opacity:1; 
stroke-linecap:round; stroke-linejoin:round;fill-rule:evenodd;"
d="M 22276.2,19859.8
22284.3,19869.7
22323.9,19902.1
22369,19926.3
22418,19941.1
22456.2,19944.9
22456.2,19944.9
22468.9,19946.1
22481.7,19944.9
35310.7,19944.9
35143.4,20112.2
33519,20112.2
33500,20110.3
33481,20112.2
33481,20112.2
33424,20117.8
33350.9,20140
33283.5,20176
33224.5,20224.5
33212.3,20239.3
32339.4,21112.2
23160.6,21112.2
22365.1,20316.7
22361.1,20307
22316.5,20240.2
22259.8,20183.5
22193,20138.9
22118.9,20108.2
22040.1,20092.5
21959.9,20092.5
21881.1,20108.2
21807,20138.9
21740.2,20183.5
21683.5,20240.2
21638.9,20307
21608.2,20381.1
21592.5,20459.9
21592.5,20540.1
21608.2,20618.9
21638.9,20693
21683.5,20759.8
21740.2,20816.5
21807,20861.1
21816.7,20865.1
22712.3,21760.7
22724.5,21775.5
22783.5,21824
22850.9,21860
22924,21882.2
22981,21887.8
22981,21887.8
23000,21889.7
23019,21887.8
32481,21887.8
32500,21889.7
32519,21887.8
32576,21882.2
32649.1,21860
32716.5,21824
32775.5,21775.5
32787.7,21760.7
33660.6,20887.8
35284.9,20887.8
35304,20889.7
35323,20887.8
35380,20882.2
35453.1,20860
35520.5,20824
35579.5,20775.5
35591.7,20760.7
36640.8,19711.6
36728.4,19799.1
34854.7,21672.8
34844.9,21676.8
34778.2,21721.4
34721.4,21778.2
34676.8,21844.9
34646.1,21919.1
34630.5,21997.8
34630.5,22078.1
34646.1,22156.8
34676.8,22231
34721.4,22297.7
34778.2,22354.5
34844.9,22399.1
34919.1,22429.8
34997.8,22445.4
35006.1,22445.4
33739.3,23712.3
33339.4,24112.2
33128.6,24112.2
33118.9,24108.2
33040.1,24092.5
32959.9,24092.5
32881.1,24108.2
32807,24138.9
32740.2,24183.5
32683.5,24240.2
32638.9,24307
32608.2,24381.1
32592.5,24459.9
32592.5,24540.1
32608.2,24618.9
32638.9,24693
32683.5,24759.8
32740.2,24816.5
32807,24861.1
32881.1,24891.8
32959.9,24907.5
33040.1,24907.5
33118.9,24891.8
33128.6,24887.8
33481,24887.8
33500,24889.7
33519,24887.8
33568.7,24882.9
33239.3,25212.3
33224.5,25224.5
33176,25283.5
33167.7,25299
33140,25350.9
33117.8,25424
33110.3,25500
33112.2,25519.1
33112.2,26839.4
32091.3,27860.2
30928.4,27860.2
30913.4,27837.7
30823.7,27748
30718.3,27677.6
30601.1,27629.1
30476.8,27604.3
30350,27604.3
30225.6,27629.1
30108.5,27677.6
30003.1,27748
29913.4,27837.7
29898.3,27860.2
28369.4,27860.2
28354.3,27837.7
28264.7,27748
28159.2,27677.6
28042.1,27629.1
27917.7,27604.3
27790.9,27604.3
27666.6,27629.1
27549.4,27677.6
27444,27748
27354.3,27837.7
27339.3,27860.2
26771,27860.2
26752,27858.4
26732.9,27860.2
26675.9,27865.8
26602.8,27888
26535.5,27924
26476.4,27972.5
26464.3,27987.3
26316.7,28134.9
26307,28138.9
26240.2,28183.5
26183.5,28240.2
26138.9,28307
26108.2,28381.1
26092.5,28459.9
26092.5,28540.1
26108.2,28618.9
26138.9,28693
26183.5,28759.8
26240.2,28816.5
26307,28861.1
26381.1,28891.8
26459.9,28907.5
26540.1,28907.5
26618.9,28891.8
26693,28861.1
26759.8,28816.5
26816.5,28759.8
26861.1,28693
26865.1,28683.3
26912.6,28635.8
27339.3,28635.8
27354.3,28658.4
27444,28748
27549.4,28818.5
27666.6,28867
27790.9,28891.7
27917.7,28891.7
28042.1,28867
28159.2,28818.5
28264.7,28748
28354.3,28658.4
28369.4,28635.8
29898.3,28635.8
29913.4,28658.4
30003.1,28748
30108.5,28818.5
30225.6,28867
30350,28891.7
30476.8,28891.7
30601.1,28867
30718.3,28818.5
30823.7,28748
30913.4,28658.4
30928.4,28635.8
32232.9,28635.8
32252,28637.7
32271,28635.8
32328,28630.2
32401.1,28608
32468.5,28572
32527.5,28523.6
32539.7,28508.8
32678.3,28370.1
33473.2,28370.1
33474.4,28484
33536.9,28546.5
33950,28546.5
33950,28182.6
34050,28182.6
34050,28546.5
34463.1,28546.5
34525.6,28484
34526.8,28370.1
34522,28321.1
34507.7,28273.9
34484.5,28230.5
34453.2,28192.4
34415.2,28161.2
34371.7,28138
34324.6,28123.7
34275.6,28118.9
34112.5,28120.1
34050,28182.6
33950,28182.6
33887.5,28120.1
33724.4,28118.9
33675.4,28123.7
33628.3,28138
33584.8,28161.2
33546.8,28192.4
33515.5,28230.5
33492.3,28273.9
33478,28321.1
33473.2,28370.1
32678.3,28370.1
33760.7,27287.7
33775.5,27275.5
33824,27216.5
33860,27149.1
33882.2,27076
33887.8,27019
33887.8,27019
33889.7,27000
33887.8,26981
33887.8,25660.6
37353.6,22194.8
37364.5,22200.6
37396.2,22210.2
37363.2,22240.1
37294.6,22331.9
37245.3,22435.4
37227.8,22493.4
37275.5,22583.9
37745.3,22583.9
37745.3,22576
37845.3,22576
37845.3,22583.9
37853.1,22583.9
37853.1,22683.9
37845.3,22683.9
37845.3,22691.7
37745.3,22691.7
37745.3,22683.9
37275.5,22683.9
37227.8,22774.4
37245.3,22832.3
37294.6,22935.8
37363.2,23027.7
37448.3,23104.4
37494.3,23131.8
37422.6,23179.7
37341.2,23261.2
37277.2,23356.9
37233.1,23463.3
37210.6,23576.3
37210.6,23691.4
37233.1,23804.4
37277.2,23910.8
37341.2,24006.5
37422.6,24088
37491.2,24133.9
37422.6,24179.7
37341.2,24261.2
37277.2,24356.9
37233.1,24463.3
37210.6,24576.3
37210.6,24691.4
37233.1,24804.4
37277.2,24910.8
37341.2,25006.5
37422.6,25088
37491.2,25133.9
37422.6,25179.7
37341.2,25261.2
37277.2,25356.9
37233.1,25463.3
37210.6,25576.3
37210.6,25691.4
37233.1,25804.4
37277.2,25910.8
37341.2,26006.5
37422.6,26088
37491.2,26133.9
37422.6,26179.7
37341.2,26261.2
37277.2,26356.9
37233.1,26463.3
37210.6,26576.3
37210.6,26691.4
37233.1,26804.4
37277.2,26910.8
37341.2,27006.5
37422.6,27088
37491.2,27133.9
37422.6,27179.7
37341.2,27261.2
37277.2,27356.9
37233.1,27463.3
37210.6,27576.3
37210.6,27691.4
37233.1,27804.4
37277.2,27910.8
37341.2,28006.5
37422.6,28088
37491.2,28133.9
37422.6,28179.7
37341.2,28261.2
37277.2,28356.9
37233.1,28463.3
37210.6,28576.3
37210.6,28691.4
37233.1,28804.4
37277.2,28910.8
37341.2,29006.5
37422.6,29088
37491.2,29133.9
37422.6,29179.7
37341.2,29261.2
37277.2,29356.9
37233.1,29463.3
37210.6,29576.3
37210.6,29691.4
37233.1,29804.4
37277.2,29910.8
37341.2,30006.5
37422.6,30088
37491.2,30133.9
37422.6,30179.7
37341.2,30261.2
37277.2,30356.9
37233.1,30463.3
37210.6,30576.3
37210.6,30691.4
37233.1,30804.4
37277.2,30910.8
37341.2,31006.5
37422.6,31088
37491.2,31133.9
37422.6,31179.7
37356.3,31246.1
35294.5,31246.1
34387.8,30339.4
34387.8,29808.8
34424.4,29778.7
34467.9,29725.7
34500.2,29665.3
34520.1,29599.7
34526.8,29531.5
34526.8,29275.6
34520.1,29207.4
34500.2,29141.8
34467.9,29081.3
34424.4,29028.4
34421.8,29026.2
34453.2,29000.5
34484.5,28962.4
34507.7,28919
34522,28871.8
34526.8,28822.8
34525.6,28709
34463.1,28646.5
34050,28646.5
34050,28654.3
33950,28654.3
33950,28646.5
33536.9,28646.5
33474.4,28709
33473.2,28822.8
33478,28871.8
33492.3,28919
33515.5,28962.4
33546.8,29000.5
33578.2,29026.2
33575.6,29028.4
33532.1,29081.3
33499.8,29141.8
33479.9,29207.4
33473.2,29275.6
33473.2,29531.5
33479.9,29599.7
33480.4,29601.1
33449.6,29631.9
30928.4,29631.9
30913.4,29609.3
30823.7,29519.7
30718.3,29449.2
30601.1,29400.7
30476.8,29376
30350,29376
30225.6,29400.7
30108.5,29449.2
30003.1,29519.7
29913.4,29609.3
29898.3,29631.9
28369.4,29631.9
28354.3,29609.3
28264.7,29519.7
28159.2,29449.2
28042.1,29400.7
27917.7,29376
27790.9,29376
27666.6,29400.7
27549.4,29449.2
27444,29519.7
27354.3,29609.3
27283.9,29714.8
27235.4,29831.9
27210.6,29956.3
27210.6,30083.1
27235.4,30207.4
27283.9,30324.6
27354.3,30430
27444,30519.7
27549.4,30590.1
27602.7,30612.2
27160.6,30612.2
25887.8,29339.4
25887.8,28160.6
27046.5,27002
27712.6,27002
27734.5,27019.9
27777.9,27043.1
27825,27057.4
27874,27062.2
28464.6,27062.2
28513.6,27057.4
28560.7,27043.1
28604.1,27019.9
28642.2,26988.7
28673.4,26950.6
28696.7,26907.2
28710.9,26860
28715.8,26811
29551.9,26811
29556.8,26860
29571.1,26907.2
29594.3,26950.6
29625.5,26988.7
29663.6,27019.9
29707,27043.1
29754.1,27057.4
29803.1,27062.2
29985.9,27061
30048.4,26998.5
30048.4,26664.2
30148.4,26664.2
30148.4,26998.5
30210.9,27061
30393.7,27062.2
30442.7,27057.4
30489.8,27043.1
30533.3,27019.9
30571.3,26988.7
30602.6,26950.6
30625.8,26907.2
30640.1,26860
30644.9,26811
30643.7,26726.7
30581.2,26664.2
30148.4,26664.2
30048.4,26664.2
29615.6,26664.2
29553.1,26726.7
29551.9,26811
28715.8,26811
28715.8,26417.3
29551.9,26417.3
29553.1,26501.7
29615.6,26564.2
30048.4,26564.2
30048.4,26229.8
30148.4,26229.8
30148.4,26564.2
30581.2,26564.2
30643.7,26501.7
30644.9,26417.3
30640.1,26368.3
30625.8,26321.2
30602.6,26277.8
30571.3,26239.7
30533.3,26208.5
30489.8,26185.2
30442.7,26170.9
30393.7,26166.1
30210.9,26167.3
30148.4,26229.8
30048.4,26229.8
29985.9,26167.3
29803.1,26166.1
29754.1,26170.9
29707,26185.2
29663.6,26208.5
29625.5,26239.7
29594.3,26277.8
29571.1,26321.2
29556.8,26368.3
29551.9,26417.3
28715.8,26417.3
28710.9,26368.3
28696.7,26321.2
28673.4,26277.8
28642.2,26239.7
28604.1,26208.5
28560.7,26185.2
28513.6,26170.9
28464.6,26166.1
27874,26166.1
27825,26170.9
27777.9,26185.2
27734.5,26208.5
27712.6,26226.4
26904.9,26226.4
26885.8,26224.5
26866.8,26226.4
26809.8,26232
26736.7,26254.2
26669.3,26290.2
26610.3,26338.6
26598.1,26353.4
25882.9,27068.7
25887.8,27019
25887.8,27019
25889.7,27000
25887.8,26981
25887.8,26660.6
26130.8,26417.6
26145.6,26405.5
26157.8,26390.7
26806.3,25742.1
27712.6,25742.1
27734.5,25760.1
27777.9,25783.3
27825,25797.6
27874,25802.4
28464.6,25802.4
28513.6,25797.6
28560.7,25783.3
28604.1,25760.1
28642.2,25728.8
28673.4,25690.7
28696.7,25647.3
28710.9,25600.2
28715.8,25551.2
28715.8,25356.3
29247,24825
29259.8,24816.5
29316.5,24759.8
29361.1,24693
29391.8,24618.9
29407.5,24540.1
29407.5,24459.9
29406.5,24454.9
29710.6,24759.1
29710.6,24924.3
29707,24925.4
29663.6,24948.6
29625.5,24979.8
29594.3,25017.9
29571.1,25061.3
29556.8,25108.5
29551.9,25157.5
29551.9,25551.2
29556.8,25600.2
29571.1,25647.3
29594.3,25690.7
29625.5,25728.8
29663.6,25760.1
29707,25783.3
29754.1,25797.6
29803.1,25802.4
30393.7,25802.4
30442.7,25797.6
30489.8,25783.3
30533.3,25760.1
30571.3,25728.8
30602.6,25690.7
30625.8,25647.3
30640.1,25600.2
30644.9,25551.2
30644.9,25157.5
30640.1,25108.5
30625.8,25061.3
30602.6,25017.9
30571.3,24979.8
30533.3,24948.6
30489.8,24925.4
30486.2,24924.3
30486.2,24617.5
30488.1,24598.4
30480.6,24522.4
30458.4,24449.3
30454.1,24441.1
30422.4,24381.9
30374,24322.9
30359.2,24310.7
29287.7,23239.3
29275.5,23224.5
29216.5,23176
29149.1,23140
29076,23117.8
29019,23112.2
29000,23110.3
28981,23112.2
25881.3,23112.2
25862.2,23110.3
25843.2,23112.2
25786.2,23117.8
25713.1,23140
25645.7,23176
25586.7,23224.5
25574.5,23239.3
24703.8,24110
24689,24122.1
24640.6,24181.1
24632.6,24196
24604.6,24248.5
24582.4,24321.6
24574.9,24397.6
24576.8,24416.7
24576.8,24440
24573.2,24441.1
24529.7,24464.4
24491.7,24495.6
24460.4,24533.7
24437.2,24577.1
24422.9,24624.2
24418.1,24673.2
24418.1,25066.9
24422.9,25115.9
24437.2,25163.1
24460.4,25206.5
24491.7,25244.6
24529.7,25275.8
24573.2,25299
24620.3,25313.3
24669.3,25318.1
25259.8,25318.1
25308.9,25313.3
25356,25299
25399.4,25275.8
25437.5,25244.6
25468.7,25206.5
25491.9,25163.1
25506.2,25115.9
25511.1,25066.9
25511.1,24673.2
25506.2,24624.2
25491.9,24577.1
25468.7,24533.7
25437.5,24495.6
25425.1,24485.5
26022.8,23887.8
28839.4,23887.8
29045.1,24093.5
29040.1,24092.5
28959.9,24092.5
28881.1,24108.2
28807,24138.9
28740.2,24183.5
28683.5,24240.2
28638.9,24307
28618.2,24357
28068.9,24906.3
27874,24906.3
27825,24911.1
27777.9,24925.4
27734.5,24948.6
27712.6,24966.5
26664.7,24966.5
26645.7,24964.7
26626.6,24966.5
26569.6,24972.1
26496.5,24994.3
26429.2,25030.3
26370.1,25078.8
26358,25093.6
25709.4,25742.1
25421.3,25742.1
25399.4,25724.2
25356,25701
25308.9,25686.7
25259.8,25681.9
24669.3,25681.9
24620.3,25686.7
24573.2,25701
24529.7,25724.2
24507.9,25742.1
24387.8,25742.1
24387.8,23019
24389.7,23000
24382.2,22924
24371.8,22889.7
24360,22850.9
24324,22783.5
24275.5,22724.5
24260.7,22712.3
23787.7,22239.3
23775.5,22224.5
23716.5,22176
23649.1,22140
23576,22117.8
23519,22112.2
23500,22110.3
23481,22112.2
22109.4,22112.2
21370.4,21373.1
21358.2,21358.3
21299.2,21309.9
21231.8,21273.8
21158.7,21251.7
21101.7,21246.1
21082.7,21244.2
21063.6,21246.1
21052.2,21246.1
21039.2,21203.1
21016,21159.6
20984.7,21121.6
20946.7,21090.3
20903.2,21067.1
20860.2,21054.1
20860.2,20468.9
21932.3,19515.9
Z" /> 
</g>
</g>
<g style="fill:#FFFFFF; fill-opacity:1.0; 
stroke:#FFFFFF; stroke-width:100; stroke-opacity:1; 
stroke-linecap:round; stroke-linejoin:round;">
</g>
<g style="fill:#FFFFFF; fill-opacity:1.0; 
stroke:#FFFFFF; stroke-width:0; stroke-opacity:1; 
stroke-linecap:round; stroke-linejoin:round;">
<circle cx="26500" cy="28500" r="68.8976" /> 
</g>
<g style="fill:#FFFFFF; fill-opacity:1.0; 
stroke:#FFFFFF; stroke-width:39.3701; stroke-opacity:1; 
stroke-linecap:round; stroke-linejoin:round;">
</g>
<g style="fill:#FFFFFF; fill-opacity:1.0; 
stroke:#FFFFFF; stroke-width:0; stroke-opacity:1; 
stroke-linecap:round; stroke-linejoin:round;">
<circle cx="24500" cy="28500" r="68.8976" /> 
</g>
<g style="fill:#FFFFFF; fill-opacity:1.0; 
stroke:#FFFFFF; stroke-width:39.3701; stroke-opacity:1; 
stroke-linecap:round; stroke-linejoin:round;">
</g>
<g style="fill:#FFFFFF; fill-opacity:1.0; 
stroke:#FFFFFF; stroke-width:0; stroke-opacity:1; 
stroke-linecap:round; stroke-linejoin:round;">
<circle cx="29000" cy="34500" r="68.8976" /> 
</g>
<g style="fill:#FFFFFF; fill-opacity:1.0; 
stroke:#FFFFFF; stroke-width:39.3701; stroke-opacity:1; 
stroke-linecap:round; stroke-linejoin:round;">
</g>
<g style="fill:#FFFFFF; fill-opacity:1.0; 
stroke:#FFFFFF; stroke-width:0; stroke-opacity:1; 
stroke-linecap:round; stroke-linejoin:round;">
<circle cx="29000" cy="36500" r="68.8976" /> 
</g>
<g style="fill:#FFFFFF; fill-opacity:1.0; 
stroke:#FFFFFF; stroke-width:39.3701; stroke-opacity:1; 
stroke-linecap:round; stroke-linejoin:round;">
</g>
<g style="fill:#FFFFFF; fill-opacity:1.0; 
stroke:#FFFFFF; stroke-width:0; stroke-opacity:1; 
stroke-linecap:round; stroke-linejoin:round;">
<circle cx="33000" cy="24500" r="68.8976" /> 
</g>
<g style="fill:#FFFFFF; fill-opacity:1.0; 
stroke:#FFFFFF; stroke-width:39.3701; stroke-opacity:1; 
stroke-linecap:round; stroke-linejoin:round;">
</g>
<g style="fill:#FFFFFF; fill-opacity:1.0; 
stroke:#FFFFFF; stroke-width:0; stroke-opacity:1; 
stroke-linecap:round; stroke-linejoin:round;">
<circle cx="29000" cy="24500" r="68.8976" /> 
</g>
<g style="fill:#FFFFFF; fill-opacity:1.0; 
stroke:#FFFFFF; stroke-width:39.3701; stroke-opacity:1; 
stroke-linecap:round; stroke-linejoin:round;">
</g>
<g style="fill:#FFFFFF; fill-opacity:1.0; 
stroke:#FFFFFF; stroke-width:0; stroke-opacity:1; 
stroke-linecap:round; stroke-linejoin:round;">
<circle cx="22000" cy="34500" r="68.8976" /> 
</g>
<g style="fill:#FFFFFF; fill-opacity:1.0; 
stroke:#FFFFFF; stroke-width:39.3701; stroke-opacity:1; 
stroke-linecap:round; stroke-linejoin:round;">
</g>
<g style="fill:#FFFFFF; fill-opacity:1.0; 
stroke:#FFFFFF; stroke-width:0; stroke-opacity:1; 
stroke-linecap:round; stroke-linejoin:round;">
<circle cx="22000" cy="31000" r="68.8976" /> 
</g>
<g style="fill:#FFFFFF; fill-opacity:1.0; 
stroke:#FFFFFF; stroke-width:39.3701; stroke-opacity:1; 
stroke-linecap:round; stroke-linejoin:round;">
</g>
<g style="fill:#FFFFFF; fill-opacity:1.0; 
stroke:#FFFFFF; stroke-width:0; stroke-opacity:1; 
stroke-linecap:round; stroke-linejoin:round;">
<circle cx="32000" cy="27000" r="68.8976" /> 
</g>
<g style="fill:#FFFFFF; fill-opacity:1.0; 
stroke:#FFFFFF; stroke-width:39.3701; stroke-opacity:1; 
stroke-linecap:round; stroke-linejoin:round;">
</g>
<g style="fill:#FFFFFF; fill-opacity:1.0; 
stroke:#FFFFFF; stroke-width:0; stroke-opacity:1; 
stroke-linecap:round; stroke-linejoin:round;">
<circle cx="32000" cy="31500" r="68.8976" /> 
</g>
<g style="fill:#FFFFFF; fill-opacity:1.0; 
stroke:#FFFFFF; stroke-width:39.3701; stroke-opacity:1; 
stroke-linecap:round; stroke-linejoin:round;">
</g>
<g style="fill:#FFFFFF; fill-opacity:1.0; 
stroke:#FFFFFF; stroke-width:0; stroke-opacity:1; 
stroke-linecap:round; stroke-linejoin:round;">
<circle cx="23485.5" cy="23014.5" r="68.8976" /> 
</g>
<g style="fill:#FFFFFF; fill-opacity:1.0; 
stroke:#FFFFFF; stroke-width:39.3701; stroke-opacity:1; 
stroke-linecap:round; stroke-linejoin:round;">
</g>
<g style="fill:#FFFFFF; fill-opacity:1.0; 
stroke:#FFFFFF; stroke-width:0; stroke-opacity:1; 
stroke-linecap:round; stroke-linejoin:round;">
<circle cx="30500" cy="23000" r="68.8976" /> 
</g>
<g style="fill:#FFFFFF; fill-opacity:1.0; 
stroke:#FFFFFF; stroke-width:39.3701; stroke-opacity:1; 
stroke-linecap:round; stroke-linejoin:round;">
</g>
<g style="fill:#FFFFFF; fill-opacity:1.0; 
stroke:#FFFFFF; stroke-width:0; stroke-opacity:1; 
stroke-linecap:round; stroke-linejoin:round;">
<circle cx="39463.7" cy="37500" r="68.8976" /> 
</g>
<g style="fill:#FFFFFF; fill-opacity:1.0; 
stroke:#FFFFFF; stroke-width:39.3701; stroke-opacity:1; 
stroke-linecap:round; stroke-linejoin:round;">
</g>
<g style="fill:#FFFFFF; fill-opacity:1.0; 
stroke:#FFFFFF; stroke-width:0; stroke-opacity:1; 
stroke-linecap:round; stroke-linejoin:round;">
<circle cx="31500" cy="37500" r="68.8976" /> 
</g>
<g style="fill:#FFFFFF; fill-opacity:1.0; 
stroke:#FFFFFF; stroke-width:39.3701; stroke-opacity:1; 
stroke-linecap:round; stroke-linejoin:round;">
</g>
<g style="fill:#FFFFFF; fill-opacity:1.0; 
stroke:#FFFFFF; stroke-width:0; stroke-opacity:1; 
stroke-linecap:round; stroke-linejoin:round;">
<circle cx="40500" cy="42500" r="68.8976" /> 
</g>
<g style="fill:#FFFFFF; fill-opacity:1.0; 
stroke:#FFFFFF; stroke-width:39.3701; stroke-opacity:1; 
stroke-linecap:round; stroke-linejoin:round;">
</g>
<g style="fill:#FFFFFF; fill-opacity:1.0; 
stroke:#FFFFFF; stroke-width:0; stroke-opacity:1; 
stroke-linecap:round; stroke-linejoin:round;">
<circle cx="34000" cy="38000" r="68.8976" /> 
</g>
<g style="fill:#FFFFFF; fill-opacity:1.0; 
stroke:#FFFFFF; stroke-width:39.3701; stroke-opacity:1; 
stroke-linecap:round; stroke-linejoin:round;">
</g>
<g style="fill:#FFFFFF; fill-opacity:1.0; 
stroke:#FFFFFF; stroke-width:0; stroke-opacity:1; 
stroke-linecap:round; stroke-linejoin:round;">
<circle cx="33000" cy="37000" r="68.8976" /> 
</g>
<g style="fill:#FFFFFF; fill-opacity:1.0; 
stroke:#FFFFFF; stroke-width:39.3701; stroke-opacity:1; 
stroke-linecap:round; stroke-linejoin:round;">
</g>
<g style="fill:#FFFFFF; fill-opacity:1.0; 
stroke:#FFFFFF; stroke-width:0; stroke-opacity:1; 
stroke-linecap:round; stroke-linejoin:round;">
<circle cx="35038" cy="22038" r="68.8976" /> 
</g>
<g style="fill:#FFFFFF; fill-opacity:1.0; 
stroke:#FFFFFF; stroke-width:39.3701; stroke-opacity:1; 
stroke-linecap:round; stroke-linejoin:round;">
</g>
<g style="fill:#FFFFFF; fill-opacity:1.0; 
stroke:#FFFFFF; stroke-width:0; stroke-opacity:1; 
stroke-linecap:round; stroke-linejoin:round;">
<circle cx="19000" cy="20500" r="68.8976" /> 
</g>
<g style="fill:#FFFFFF; fill-opacity:1.0; 
stroke:#FFFFFF; stroke-width:39.3701; stroke-opacity:1; 
stroke-linecap:round; stroke-linejoin:round;">
</g>
<g style="fill:#FFFFFF; fill-opacity:1.0; 
stroke:#FFFFFF; stroke-width:0; stroke-opacity:1; 
stroke-linecap:round; stroke-linejoin:round;">
<circle cx="22000" cy="20500" r="68.8976" /> 
</g>
<g style="fill:#FFFFFF; fill-opacity:1.0; 
stroke:#FFFFFF; stroke-width:39.3701; stroke-opacity:1; 
stroke-linecap:round; stroke-linejoin:round;">
</g>
<g style="fill:#FFFFFF; fill-opacity:1.0; 
stroke:#FFFFFF; stroke-width:0; stroke-opacity:1; 
stroke-linecap:round; stroke-linejoin:round;">
<circle cx="30413.4" cy="28248" r="68.8976" /> 
</g>
<g style="fill:#FFFFFF; fill-opacity:1.0; 
stroke:#FFFFFF; stroke-width:39.3701; stroke-opacity:1; 
stroke-linecap:round; stroke-linejoin:round;">
</g>
<g style="fill:#FFFFFF; fill-opacity:1.0; 
stroke:#FFFFFF; stroke-width:0; stroke-opacity:1; 
stroke-linecap:round; stroke-linejoin:round;">
<circle cx="30413.4" cy="30019.7" r="68.8976" /> 
</g>
<g style="fill:#FFFFFF; fill-opacity:1.0; 
stroke:#FFFFFF; stroke-width:39.3701; stroke-opacity:1; 
stroke-linecap:round; stroke-linejoin:round;">
</g>
<g style="fill:#FFFFFF; fill-opacity:1.0; 
stroke:#FFFFFF; stroke-width:0; stroke-opacity:1; 
stroke-linecap:round; stroke-linejoin:round;">
<circle cx="27854.3" cy="28248" r="68.8976" /> 
</g>
<g style="fill:#FFFFFF; fill-opacity:1.0; 
stroke:#FFFFFF; stroke-width:39.3701; stroke-opacity:1; 
stroke-linecap:round; stroke-linejoin:round;">
</g>
<g style="fill:#FFFFFF; fill-opacity:1.0; 
stroke:#FFFFFF; stroke-width:0; stroke-opacity:1; 
stroke-linecap:round; stroke-linejoin:round;">
<circle cx="27854.3" cy="30019.7" r="68.8976" /> 
</g>
<g style="fill:#FFFFFF; fill-opacity:1.0; 
stroke:#FFFFFF; stroke-width:39.3701; stroke-opacity:1; 
stroke-linecap:round; stroke-linejoin:round;">
</g>
<g style="fill:#FFFFFF; fill-opacity:1.0; 
stroke:#FFFFFF; stroke-width:0; stroke-opacity:1; 
stroke-linecap:round; stroke-linejoin:round;">
<circle cx="37795.3" cy="36633.9" r="68.8976" /> 
</g>
<g style="fill:#FFFFFF; fill-opacity:1.0; 
stroke:#FFFFFF; stroke-width:39.3701; stroke-opacity:1; 
stroke-linecap:round; stroke-linejoin:round;">
</g>
<g style="fill:#FFFFFF; fill-opacity:1.0; 
stroke:#FFFFFF; stroke-width:0; stroke-opacity:1; 
stroke-linecap:round; stroke-linejoin:round;">
<circle cx="37795.3" cy="35633.9" r="68.8976" /> 
</g>
<g style="fill:#FFFFFF; fill-opacity:1.0; 
stroke:#FFFFFF; stroke-width:39.3701; stroke-opacity:1; 
stroke-linecap:round; stroke-linejoin:round;">
</g>
<g style="fill:#FFFFFF; fill-opacity:1.0; 
stroke:#FFFFFF; stroke-width:0; stroke-opacity:1; 
stroke-linecap:round; stroke-linejoin:round;">
<circle cx="37795.3" cy="34633.9" r="68.8976" /> 
</g>
<g style="fill:#FFFFFF; fill-opacity:1.0; 
stroke:#FFFFFF; stroke-width:39.3701; stroke-opacity:1; 
stroke-linecap:round; stroke-linejoin:round;">
</g>
<g style="fill:#FFFFFF; fill-opacity:1.0; 
stroke:#FFFFFF; stroke-width:0; stroke-opacity:1; 
stroke-linecap:round; stroke-linejoin:round;">
<circle cx="37795.3" cy="33633.9" r="68.8976" /> 
</g>
<g style="fill:#FFFFFF; fill-opacity:1.0; 
stroke:#FFFFFF; stroke-width:39.3701; stroke-opacity:1; 
stroke-linecap:round; stroke-linejoin:round;">
</g>
<g style="fill:#FFFFFF; fill-opacity:1.0; 
stroke:#FFFFFF; stroke-width:0; stroke-opacity:1; 
stroke-linecap:round; stroke-linejoin:round;">
<circle cx="37795.3" cy="32633.9" r="68.8976" /> 
</g>
<g style="fill:#FFFFFF; fill-opacity:1.0; 
stroke:#FFFFFF; stroke-width:39.3701; stroke-opacity:1; 
stroke-linecap:round; stroke-linejoin:round;">
</g>
<g style="fill:#FFFFFF; fill-opacity:1.0; 
stroke:#FFFFFF; stroke-width:0; stroke-opacity:1; 
stroke-linecap:round; stroke-linejoin:round;">
<circle cx="37795.3" cy="31633.9" r="68.8976" /> 
</g>
<g style="fill:#FFFFFF; fill-opacity:1.0; 
stroke:#FFFFFF; stroke-width:39.3701; stroke-opacity:1; 
stroke-linecap:round; stroke-linejoin:round;">
</g>
<g style="fill:#FFFFFF; fill-opacity:1.0; 
stroke:#FFFFFF; stroke-width:0; stroke-opacity:1; 
stroke-linecap:round; stroke-linejoin:round;">
<circle cx="37795.3" cy="30633.9" r="68.8976" /> 
</g>
<g style="fill:#FFFFFF; fill-opacity:1.0; 
stroke:#FFFFFF; stroke-width:39.3701; stroke-opacity:1; 
stroke-linecap:round; stroke-linejoin:round;">
</g>
<g style="fill:#FFFFFF; fill-opacity:1.0; 
stroke:#FFFFFF; stroke-width:0; stroke-opacity:1; 
stroke-linecap:round; stroke-linejoin:round;">
<circle cx="37795.3" cy="29633.9" r="68.8976" /> 
</g>
<g style="fill:#FFFFFF; fill-opacity:1.0; 
stroke:#FFFFFF; stroke-width:39.3701; stroke-opacity:1; 
stroke-linecap:round; stroke-linejoin:round;">
</g>
<g style="fill:#FFFFFF; fill-opacity:1.0; 
stroke:#FFFFFF; stroke-width:0; stroke-opacity:1; 
stroke-linecap:round; stroke-linejoin:round;">
<circle cx="37795.3" cy="28633.9" r="68.8976" /> 
</g>
<g style="fill:#FFFFFF; fill-opacity:1.0; 
stroke:#FFFFFF; stroke-width:39.3701; stroke-opacity:1; 
stroke-linecap:round; stroke-linejoin:round;">
</g>
<g style="fill:#FFFFFF; fill-opacity:1.0; 
stroke:#FFFFFF; stroke-width:0; stroke-opacity:1; 
stroke-linecap:round; stroke-linejoin:round;">
<circle cx="37795.3" cy="27633.9" r="68.8976" /> 
</g>
<g style="fill:#FFFFFF; fill-opacity:1.0; 
stroke:#FFFFFF; stroke-width:39.3701; stroke-opacity:1; 
stroke-linecap:round; stroke-linejoin:round;">
</g>
<g style="fill:#FFFFFF; fill-opacity:1.0; 
stroke:#FFFFFF; stroke-width:0; stroke-opacity:1; 
stroke-linecap:round; stroke-linejoin:round;">
<circle cx="37795.3" cy="26633.9" r="68.8976" /> 
</g>
<g style="fill:#FFFFFF; fill-opacity:1.0; 
stroke:#FFFFFF; stroke-width:39.3701; stroke-opacity:1; 
stroke-linecap:round; stroke-linejoin:round;">
</g>
<g style="fill:#FFFFFF; fill-opacity:1.0; 
stroke:#FFFFFF; stroke-width:0; stroke-opacity:1; 
stroke-linecap:round; stroke-linejoin:round;">
<circle cx="37795.3" cy="25633.9" r="68.8976" /> 
</g>
<g style="fill:#FFFFFF; fill-opacity:1.0; 
stroke:#FFFFFF; stroke-width:39.3701; stroke-opacity:1; 
stroke-linecap:round; stroke-linejoin:round;">
</g>
<g style="fill:#FFFFFF; fill-opacity:1.0; 
stroke:#FFFFFF; stroke-width:0; stroke-opacity:1; 
stroke-linecap:round; stroke-linejoin:round;">
<circle cx="37795.3" cy="24633.9" r="68.8976" /> 
</g>
<g style="fill:#FFFFFF; fill-opacity:1.0; 
stroke:#FFFFFF; stroke-width:39.3701; stroke-opacity:1; 
stroke-linecap:round; stroke-linejoin:round;">
</g>
<g style="fill:#FFFFFF; fill-opacity:1.0; 
stroke:#FFFFFF; stroke-width:0; stroke-opacity:1; 
stroke-linecap:round; stroke-linejoin:round;">
<circle cx="37795.3" cy="23633.9" r="68.8976" /> 
</g>
<g style="fill:#FFFFFF; fill-opacity:1.0; 
stroke:#FFFFFF; stroke-width:39.3701; stroke-opacity:1; 
stroke-linecap:round; stroke-linejoin:round;">
</g>
<g style="fill:#FFFFFF; fill-opacity:1.0; 
stroke:#FFFFFF; stroke-width:0; stroke-opacity:1; 
stroke-linecap:round; stroke-linejoin:round;">
<circle cx="37795.3" cy="22633.9" r="68.8976" /> 
</g>
<g style="fill:#FFFFFF; fill-opacity:1.0; 
stroke:#FFFFFF; stroke-width:39.3701; stroke-opacity:1; 
stroke-linecap:round; stroke-linejoin:round;">
</g>
<g style="fill:#FFFFFF; fill-opacity:1.0; 
stroke:#FFFFFF; stroke-width:0; stroke-opacity:1; 
stroke-linecap:round; stroke-linejoin:round;">
<circle cx="37795.3" cy="21633.9" r="68.8976" /> 
</g>
<g style="fill:#FFFFFF; fill-opacity:1.0; 
stroke:#FFFFFF; stroke-width:39.3701; stroke-opacity:1; 
stroke-linecap:round; stroke-linejoin:round;">
</g>
<g style="fill:#FFFFFF; fill-opacity:1.0; 
stroke:#FFFFFF; stroke-width:0; stroke-opacity:1; 
stroke-linecap:round; stroke-linejoin:round;">
<circle cx="20472.4" cy="36633.9" r="68.8976" /> 
</g>
<g style="fill:#FFFFFF; fill-opacity:1.0; 
stroke:#FFFFFF; stroke-width:39.3701; stroke-opacity:1; 
stroke-linecap:round; stroke-linejoin:round;">
</g>
<g style="fill:#FFFFFF; fill-opacity:1.0; 
stroke:#FFFFFF; stroke-width:0; stroke-opacity:1; 
stroke-linecap:round; stroke-linejoin:round;">
<circle cx="20472.4" cy="35633.9" r="68.8976" /> 
</g>
<g style="fill:#FFFFFF; fill-opacity:1.0; 
stroke:#FFFFFF; stroke-width:39.3701; stroke-opacity:1; 
stroke-linecap:round; stroke-linejoin:round;">
</g>
<g style="fill:#FFFFFF; fill-opacity:1.0; 
stroke:#FFFFFF; stroke-width:0; stroke-opacity:1; 
stroke-linecap:round; stroke-linejoin:round;">
<circle cx="20472.4" cy="34633.9" r="68.8976" /> 
</g>
<g style="fill:#FFFFFF; fill-opacity:1.0; 
stroke:#FFFFFF; stroke-width:39.3701; stroke-opacity:1; 
stroke-linecap:round; stroke-linejoin:round;">
</g>
<g style="fill:#FFFFFF; fill-opacity:1.0; 
stroke:#FFFFFF; stroke-width:0; stroke-opacity:1; 
stroke-linecap:round; stroke-linejoin:round;">
<circle cx="20472.4" cy="33633.9" r="68.8976" /> 
</g>
<g style="fill:#FFFFFF; fill-opacity:1.0; 
stroke:#FFFFFF; stroke-width:39.3701; stroke-opacity:1; 
stroke-linecap:round; stroke-linejoin:round;">
</g>
<g style="fill:#FFFFFF; fill-opacity:1.0; 
stroke:#FFFFFF; stroke-width:0; stroke-opacity:1; 
stroke-linecap:round; stroke-linejoin:round;">
<circle cx="20472.4" cy="32633.9" r="68.8976" /> 
</g>
<g style="fill:#FFFFFF; fill-opacity:1.0; 
stroke:#FFFFFF; stroke-width:39.3701; stroke-opacity:1; 
stroke-linecap:round; stroke-linejoin:round;">
</g>
<g style="fill:#FFFFFF; fill-opacity:1.0; 
stroke:#FFFFFF; stroke-width:0; stroke-opacity:1; 
stroke-linecap:round; stroke-linejoin:round;">
<circle cx="20472.4" cy="31633.9" r="68.8976" /> 
</g>
<g style="fill:#FFFFFF; fill-opacity:1.0; 
stroke:#FFFFFF; stroke-width:39.3701; stroke-opacity:1; 
stroke-linecap:round; stroke-linejoin:round;">
</g>
<g style="fill:#FFFFFF; fill-opacity:1.0; 
stroke:#FFFFFF; stroke-width:0; stroke-opacity:1; 
stroke-linecap:round; stroke-linejoin:round;">
<circle cx="20472.4" cy="30633.9" r="68.8976" /> 
</g>
<g style="fill:#FFFFFF; fill-opacity:1.0; 
stroke:#FFFFFF; stroke-width:39.3701; stroke-opacity:1; 
stroke-linecap:round; stroke-linejoin:round;">
</g>
<g style="fill:#FFFFFF; fill-opacity:1.0; 
stroke:#FFFFFF; stroke-width:0; stroke-opacity:1; 
stroke-linecap:round; stroke-linejoin:round;">
<circle cx="20472.4" cy="29633.9" r="68.8976" /> 
</g>
<g style="fill:#FFFFFF; fill-opacity:1.0; 
stroke:#FFFFFF; stroke-width:39.3701; stroke-opacity:1; 
stroke-linecap:round; stroke-linejoin:round;">
</g>
<g style="fill:#FFFFFF; fill-opacity:1.0; 
stroke:#FFFFFF; stroke-width:0; stroke-opacity:1; 
stroke-linecap:round; stroke-linejoin:round;">
<circle cx="20472.4" cy="28633.9" r="68.8976" /> 
</g>
<g style="fill:#FFFFFF; fill-opacity:1.0; 
stroke:#FFFFFF; stroke-width:39.3701; stroke-opacity:1; 
stroke-linecap:round; stroke-linejoin:round;">
</g>
<g style="fill:#FFFFFF; fill-opacity:1.0; 
stroke:#FFFFFF; stroke-width:0; stroke-opacity:1; 
stroke-linecap:round; stroke-linejoin:round;">
<circle cx="20472.4" cy="27633.9" r="68.8976" /> 
</g>
<g style="fill:#FFFFFF; fill-opacity:1.0; 
stroke:#FFFFFF; stroke-width:39.3701; stroke-opacity:1; 
stroke-linecap:round; stroke-linejoin:round;">
</g>
<g style="fill:#FFFFFF; fill-opacity:1.0; 
stroke:#FFFFFF; stroke-width:0; stroke-opacity:1; 
stroke-linecap:round; stroke-linejoin:round;">
<circle cx="20472.4" cy="26633.9" r="68.8976" /> 
</g>
<g style="fill:#FFFFFF; fill-opacity:1.0; 
stroke:#FFFFFF; stroke-width:39.3701; stroke-opacity:1; 
stroke-linecap:round; stroke-linejoin:round;">
</g>
<g style="fill:#FFFFFF; fill-opacity:1.0; 
stroke:#FFFFFF; stroke-width:0; stroke-opacity:1; 
stroke-linecap:round; stroke-linejoin:round;">
<circle cx="20472.4" cy="25633.9" r="68.8976" /> 
</g>
<g style="fill:#FFFFFF; fill-opacity:1.0; 
stroke:#FFFFFF; stroke-width:39.3701; stroke-opacity:1; 
stroke-linecap:round; stroke-linejoin:round;">
</g>
<g style="fill:#FFFFFF; fill-opacity:1.0; 
stroke:#FFFFFF; stroke-width:0; stroke-opacity:1; 
stroke-linecap:round; stroke-linejoin:round;">
<circle cx="20472.4" cy="24633.9" r="68.8976" /> 
</g>
<g style="fill:#FFFFFF; fill-opacity:1.0; 
stroke:#FFFFFF; stroke-width:39.3701; stroke-opacity:1; 
stroke-linecap:round; stroke-linejoin:round;">
</g>
<g style="fill:#FFFFFF; fill-opacity:1.0; 
stroke:#FFFFFF; stroke-width:0; stroke-opacity:1; 
stroke-linecap:round; stroke-linejoin:round;">
<circle cx="20472.4" cy="23633.9" r="68.8976" /> 
</g>
<g style="fill:#FFFFFF; fill-opacity:1.0; 
stroke:#FFFFFF; stroke-width:39.3701; stroke-opacity:1; 
stroke-linecap:round; stroke-linejoin:round;">
</g>
<g style="fill:#FFFFFF; fill-opacity:1.0; 
stroke:#FFFFFF; stroke-width:0; stroke-opacity:1; 
stroke-linecap:round; stroke-linejoin:round;">
<circle cx="20472.4" cy="22633.9" r="68.8976" /> 
</g>
<g style="fill:#FFFFFF; fill-opacity:1.0; 
stroke:#FFFFFF; stroke-width:39.3701; stroke-opacity:1; 
stroke-linecap:round; stroke-linejoin:round;">
</g>
<g style="fill:#FFFFFF; fill-opacity:1.0; 
stroke:#FFFFFF; stroke-width:0; stroke-opacity:1; 
stroke-linecap:round; stroke-linejoin:round;">
<circle cx="20472.4" cy="21633.9" r="68.8976" /> 
</g>
<g style="fill:#FFFFFF; fill-opacity:1.0; 
stroke:#FFFFFF; stroke-width:39.3701; stroke-opacity:1; 
stroke-linecap:round; stroke-linejoin:round;">
</g>
<g style="fill:#000000; fill-opacity:1.0; 
stroke:#000000; stroke-width:39.3701; stroke-opacity:1; 
stroke-linecap:round; stroke-linejoin:round;">
</g> 
</svg>
