M48
; DRILL file {KiCad 5.1.5+dfsg1-2build2} date jue 04 mar 2021 14:35:14
; FORMAT={-:-/ absolute / metric / decimal}
; #@! TF.CreationDate,2021-03-04T14:35:14-05:00
; #@! TF.GenerationSoftware,Kicad,Pcbnew,5.1.5+dfsg1-2build2
; #@! TF.FileFunction,Plated,1,2,PTH
FMAT,2
METRIC
T1C1.000
T2C1.100
%
G90
G05
T1
X96.0Y-54.95
X96.0Y-57.49
X96.0Y-60.03
X96.0Y-62.57
X96.0Y-65.11
X96.0Y-67.65
X96.0Y-70.19
X96.0Y-72.73
X96.0Y-75.27
X96.0Y-77.81
X96.0Y-80.35
X96.0Y-82.89
X96.0Y-85.43
X96.0Y-87.97
X96.0Y-90.51
X96.0Y-93.05
X52.0Y-54.95
X52.0Y-57.49
X52.0Y-60.03
X52.0Y-62.57
X52.0Y-65.11
X52.0Y-67.65
X52.0Y-70.19
X52.0Y-72.73
X52.0Y-75.27
X52.0Y-77.81
X52.0Y-80.35
X52.0Y-82.89
X52.0Y-85.43
X52.0Y-87.97
X52.0Y-90.51
X52.0Y-93.05
T2
X70.75Y-71.75
X70.75Y-76.25
X77.25Y-71.75
X77.25Y-76.25
T0
M30
