G04 #@! TF.GenerationSoftware,KiCad,Pcbnew,5.1.5+dfsg1-2build2*
G04 #@! TF.CreationDate,2021-03-08T11:08:27-05:00*
G04 #@! TF.ProjectId,leveling_package,6c657665-6c69-46e6-975f-7061636b6167,rev?*
G04 #@! TF.SameCoordinates,Original*
G04 #@! TF.FileFunction,Copper,L2,Bot*
G04 #@! TF.FilePolarity,Positive*
%FSLAX46Y46*%
G04 Gerber Fmt 4.6, Leading zero omitted, Abs format (unit mm)*
G04 Created by KiCad (PCBNEW 5.1.5+dfsg1-2build2) date 2021-03-08 11:08:27*
%MOMM*%
%LPD*%
G04 APERTURE LIST*
%ADD10O,1.700000X1.700000*%
%ADD11R,1.700000X1.700000*%
%ADD12C,2.000000*%
%ADD13C,0.800000*%
%ADD14C,0.700000*%
%ADD15C,0.254000*%
G04 APERTURE END LIST*
D10*
X49460000Y-93050000D03*
X49460000Y-90510000D03*
X49460000Y-87970000D03*
X49460000Y-85430000D03*
X49460000Y-82890000D03*
X49460000Y-80350000D03*
X49460000Y-77810000D03*
X49460000Y-75270000D03*
X49460000Y-72730000D03*
X49460000Y-70190000D03*
X49460000Y-67650000D03*
X49460000Y-65110000D03*
X49460000Y-62570000D03*
X49460000Y-60030000D03*
X49460000Y-57490000D03*
D11*
X49460000Y-54950000D03*
D10*
X98560000Y-93050000D03*
X98560000Y-90510000D03*
X98560000Y-87970000D03*
X98560000Y-85430000D03*
X98560000Y-82890000D03*
X98560000Y-80350000D03*
X98560000Y-77810000D03*
X98560000Y-75270000D03*
X98560000Y-72730000D03*
X98560000Y-70190000D03*
X98560000Y-67650000D03*
X98560000Y-65110000D03*
X98560000Y-62570000D03*
X98560000Y-60030000D03*
X98560000Y-57490000D03*
D11*
X98560000Y-54950000D03*
D12*
X77250000Y-71750000D03*
X77250000Y-76250000D03*
X70750000Y-71750000D03*
X70750000Y-76250000D03*
D10*
X96000000Y-93050000D03*
X96000000Y-90510000D03*
X96000000Y-87970000D03*
X96000000Y-85430000D03*
X96000000Y-82890000D03*
X96000000Y-80350000D03*
X96000000Y-77810000D03*
X96000000Y-75270000D03*
X96000000Y-72730000D03*
X96000000Y-70190000D03*
X96000000Y-67650000D03*
X96000000Y-65110000D03*
X96000000Y-62570000D03*
X96000000Y-60030000D03*
X96000000Y-57490000D03*
D11*
X96000000Y-54950000D03*
D10*
X52000000Y-93050000D03*
X52000000Y-90510000D03*
X52000000Y-87970000D03*
X52000000Y-85430000D03*
X52000000Y-82890000D03*
X52000000Y-80350000D03*
X52000000Y-77810000D03*
X52000000Y-75270000D03*
X52000000Y-72730000D03*
X52000000Y-70190000D03*
X52000000Y-67650000D03*
X52000000Y-65110000D03*
X52000000Y-62570000D03*
X52000000Y-60030000D03*
X52000000Y-57490000D03*
D11*
X52000000Y-54950000D03*
D13*
X67310000Y-72390000D03*
X62230000Y-72390000D03*
X73660000Y-87630000D03*
X73660000Y-92710000D03*
X83820000Y-62230000D03*
X73660000Y-62230000D03*
X55880000Y-87630000D03*
X55880000Y-78740000D03*
X81280000Y-68580000D03*
X77470000Y-58420000D03*
X81280000Y-78740000D03*
X85090000Y-68580000D03*
X57150000Y-58420000D03*
X100237884Y-95250000D03*
X87630000Y-95249982D03*
X87630000Y-99060000D03*
X91440000Y-52070004D03*
X48260000Y-52070000D03*
X55880000Y-52070000D03*
D14*
X96000000Y-93050000D02*
X98560000Y-93050000D01*
X96000000Y-90510000D02*
X98560000Y-90510000D01*
X96000000Y-87970000D02*
X98560000Y-87970000D01*
X96000000Y-85430000D02*
X98560000Y-85430000D01*
X96000000Y-82890000D02*
X98560000Y-82890000D01*
X96000000Y-80350000D02*
X98560000Y-80350000D01*
X96000000Y-77810000D02*
X98560000Y-77810000D01*
X96000000Y-75270000D02*
X98560000Y-75270000D01*
X96000000Y-72730000D02*
X98560000Y-72730000D01*
X98560000Y-70190000D02*
X96000000Y-70190000D01*
X96000000Y-67650000D02*
X98560000Y-67650000D01*
X98560000Y-65110000D02*
X96000000Y-65110000D01*
X96000000Y-62570000D02*
X98560000Y-62570000D01*
X96000000Y-60030000D02*
X98560000Y-60030000D01*
X67310000Y-72390000D02*
X62230000Y-72390000D01*
X98560000Y-54950000D02*
X96000000Y-54950000D01*
X52000000Y-93050000D02*
X49460000Y-93050000D01*
X49460000Y-90510000D02*
X52000000Y-90510000D01*
X52000000Y-87970000D02*
X49460000Y-87970000D01*
X49460000Y-85430000D02*
X52000000Y-85430000D01*
X52000000Y-82890000D02*
X49460000Y-82890000D01*
X49460000Y-80350000D02*
X52000000Y-80350000D01*
X52000000Y-77810000D02*
X49460000Y-77810000D01*
X49460000Y-75270000D02*
X52000000Y-75270000D01*
X52000000Y-72730000D02*
X49460000Y-72730000D01*
X49460000Y-70190000D02*
X52000000Y-70190000D01*
X52000000Y-67650000D02*
X49460000Y-67650000D01*
X49460000Y-65110000D02*
X52000000Y-65110000D01*
X52000000Y-62570000D02*
X49460000Y-62570000D01*
X52000000Y-60030000D02*
X49460000Y-60030000D01*
X73660000Y-87630000D02*
X73660000Y-92710000D01*
X83820000Y-62230000D02*
X73660000Y-62230000D01*
X52000000Y-54950000D02*
X49460000Y-54950000D01*
X55880000Y-87630000D02*
X55880000Y-78740000D01*
X96000000Y-57490000D02*
X98560000Y-57490000D01*
X52000000Y-57490000D02*
X49460000Y-57490000D01*
X81280000Y-68580000D02*
X81280000Y-69145685D01*
X81280000Y-69145685D02*
X81280000Y-78740000D01*
X81280000Y-68580000D02*
X85090000Y-68580000D01*
X77470000Y-58420000D02*
X57150000Y-58420000D01*
X100330000Y-95342116D02*
X100237884Y-95250000D01*
X87630018Y-95250000D02*
X87630000Y-95249982D01*
X100237884Y-95250000D02*
X87630018Y-95250000D01*
X91440000Y-52635689D02*
X91440000Y-52070004D01*
X91440000Y-87766004D02*
X91440000Y-52635689D01*
X88900000Y-90306004D02*
X91440000Y-87766004D01*
X86223996Y-90306004D02*
X88900000Y-90306004D01*
X83820000Y-92710000D02*
X86223996Y-90306004D01*
X83820000Y-95250000D02*
X83820000Y-92710000D01*
X87630000Y-99060000D02*
X83820000Y-95250000D01*
X48260000Y-52070000D02*
X55880000Y-52070000D01*
D15*
G36*
X60652528Y-47443769D02*
G01*
X60673192Y-47468948D01*
X60773690Y-47551425D01*
X60888347Y-47612710D01*
X61012757Y-47650450D01*
X61109721Y-47660000D01*
X61109731Y-47660000D01*
X61142140Y-47663192D01*
X61174549Y-47660000D01*
X86825451Y-47660000D01*
X86857860Y-47663192D01*
X86890269Y-47660000D01*
X86890279Y-47660000D01*
X86987243Y-47650450D01*
X87111653Y-47612710D01*
X87226310Y-47551425D01*
X87326808Y-47468948D01*
X87347476Y-47443764D01*
X109857860Y-24933381D01*
X123066619Y-38142140D01*
X100556236Y-60652524D01*
X100531052Y-60673192D01*
X100510387Y-60698373D01*
X100510386Y-60698374D01*
X100448575Y-60773690D01*
X100406205Y-60852960D01*
X100387290Y-60888348D01*
X100349550Y-61012758D01*
X100340000Y-61109722D01*
X100340000Y-61109731D01*
X100336808Y-61142140D01*
X100340000Y-61174549D01*
X100340001Y-86825441D01*
X100336808Y-86857860D01*
X100349551Y-86987242D01*
X100387290Y-87111652D01*
X100448575Y-87226310D01*
X100510386Y-87301626D01*
X100510387Y-87301627D01*
X100531053Y-87326808D01*
X100556232Y-87347472D01*
X123066619Y-109857860D01*
X109857860Y-123066619D01*
X87347476Y-100556236D01*
X87326808Y-100531052D01*
X87226310Y-100448575D01*
X87111653Y-100387290D01*
X86987243Y-100349550D01*
X86890279Y-100340000D01*
X86890269Y-100340000D01*
X86857860Y-100336808D01*
X86825451Y-100340000D01*
X61174549Y-100340000D01*
X61142140Y-100336808D01*
X61109731Y-100340000D01*
X61109721Y-100340000D01*
X61012757Y-100349550D01*
X60888347Y-100387290D01*
X60773690Y-100448575D01*
X60673192Y-100531052D01*
X60652528Y-100556231D01*
X38142140Y-123066620D01*
X24933380Y-109857860D01*
X47443769Y-87347472D01*
X47468948Y-87326808D01*
X47489615Y-87301626D01*
X47551425Y-87226310D01*
X47612710Y-87111653D01*
X47639491Y-87023368D01*
X47650450Y-86987243D01*
X47660000Y-86890279D01*
X47660000Y-86890269D01*
X47663192Y-86857860D01*
X47660000Y-86825451D01*
X47660000Y-61174549D01*
X47663192Y-61142140D01*
X47660000Y-61109731D01*
X47660000Y-61109721D01*
X47650450Y-61012757D01*
X47612710Y-60888347D01*
X47551425Y-60773690D01*
X47515463Y-60729870D01*
X47489614Y-60698373D01*
X47489612Y-60698371D01*
X47468948Y-60673192D01*
X47443770Y-60652529D01*
X46674981Y-59883740D01*
X47975000Y-59883740D01*
X47975000Y-60176260D01*
X48032068Y-60463158D01*
X48144010Y-60733411D01*
X48306525Y-60976632D01*
X48513368Y-61183475D01*
X48687760Y-61300000D01*
X48513368Y-61416525D01*
X48306525Y-61623368D01*
X48144010Y-61866589D01*
X48032068Y-62136842D01*
X47975000Y-62423740D01*
X47975000Y-62716260D01*
X48032068Y-63003158D01*
X48144010Y-63273411D01*
X48306525Y-63516632D01*
X48513368Y-63723475D01*
X48687760Y-63840000D01*
X48513368Y-63956525D01*
X48306525Y-64163368D01*
X48144010Y-64406589D01*
X48032068Y-64676842D01*
X47975000Y-64963740D01*
X47975000Y-65256260D01*
X48032068Y-65543158D01*
X48144010Y-65813411D01*
X48306525Y-66056632D01*
X48513368Y-66263475D01*
X48687760Y-66380000D01*
X48513368Y-66496525D01*
X48306525Y-66703368D01*
X48144010Y-66946589D01*
X48032068Y-67216842D01*
X47975000Y-67503740D01*
X47975000Y-67796260D01*
X48032068Y-68083158D01*
X48144010Y-68353411D01*
X48306525Y-68596632D01*
X48513368Y-68803475D01*
X48687760Y-68920000D01*
X48513368Y-69036525D01*
X48306525Y-69243368D01*
X48144010Y-69486589D01*
X48032068Y-69756842D01*
X47975000Y-70043740D01*
X47975000Y-70336260D01*
X48032068Y-70623158D01*
X48144010Y-70893411D01*
X48306525Y-71136632D01*
X48513368Y-71343475D01*
X48687760Y-71460000D01*
X48513368Y-71576525D01*
X48306525Y-71783368D01*
X48144010Y-72026589D01*
X48032068Y-72296842D01*
X47975000Y-72583740D01*
X47975000Y-72876260D01*
X48032068Y-73163158D01*
X48144010Y-73433411D01*
X48306525Y-73676632D01*
X48513368Y-73883475D01*
X48687760Y-74000000D01*
X48513368Y-74116525D01*
X48306525Y-74323368D01*
X48144010Y-74566589D01*
X48032068Y-74836842D01*
X47975000Y-75123740D01*
X47975000Y-75416260D01*
X48032068Y-75703158D01*
X48144010Y-75973411D01*
X48306525Y-76216632D01*
X48513368Y-76423475D01*
X48687760Y-76540000D01*
X48513368Y-76656525D01*
X48306525Y-76863368D01*
X48144010Y-77106589D01*
X48032068Y-77376842D01*
X47975000Y-77663740D01*
X47975000Y-77956260D01*
X48032068Y-78243158D01*
X48144010Y-78513411D01*
X48306525Y-78756632D01*
X48513368Y-78963475D01*
X48687760Y-79080000D01*
X48513368Y-79196525D01*
X48306525Y-79403368D01*
X48144010Y-79646589D01*
X48032068Y-79916842D01*
X47975000Y-80203740D01*
X47975000Y-80496260D01*
X48032068Y-80783158D01*
X48144010Y-81053411D01*
X48306525Y-81296632D01*
X48513368Y-81503475D01*
X48687760Y-81620000D01*
X48513368Y-81736525D01*
X48306525Y-81943368D01*
X48144010Y-82186589D01*
X48032068Y-82456842D01*
X47975000Y-82743740D01*
X47975000Y-83036260D01*
X48032068Y-83323158D01*
X48144010Y-83593411D01*
X48306525Y-83836632D01*
X48513368Y-84043475D01*
X48687760Y-84160000D01*
X48513368Y-84276525D01*
X48306525Y-84483368D01*
X48144010Y-84726589D01*
X48032068Y-84996842D01*
X47975000Y-85283740D01*
X47975000Y-85576260D01*
X48032068Y-85863158D01*
X48144010Y-86133411D01*
X48306525Y-86376632D01*
X48513368Y-86583475D01*
X48687760Y-86700000D01*
X48513368Y-86816525D01*
X48306525Y-87023368D01*
X48144010Y-87266589D01*
X48032068Y-87536842D01*
X47975000Y-87823740D01*
X47975000Y-88116260D01*
X48032068Y-88403158D01*
X48144010Y-88673411D01*
X48306525Y-88916632D01*
X48513368Y-89123475D01*
X48687760Y-89240000D01*
X48513368Y-89356525D01*
X48306525Y-89563368D01*
X48144010Y-89806589D01*
X48032068Y-90076842D01*
X47975000Y-90363740D01*
X47975000Y-90656260D01*
X48032068Y-90943158D01*
X48144010Y-91213411D01*
X48306525Y-91456632D01*
X48513368Y-91663475D01*
X48687760Y-91780000D01*
X48513368Y-91896525D01*
X48306525Y-92103368D01*
X48144010Y-92346589D01*
X48032068Y-92616842D01*
X47975000Y-92903740D01*
X47975000Y-93196260D01*
X48032068Y-93483158D01*
X48144010Y-93753411D01*
X48306525Y-93996632D01*
X48513368Y-94203475D01*
X48756589Y-94365990D01*
X49026842Y-94477932D01*
X49313740Y-94535000D01*
X49606260Y-94535000D01*
X49893158Y-94477932D01*
X50163411Y-94365990D01*
X50406632Y-94203475D01*
X50575107Y-94035000D01*
X50884893Y-94035000D01*
X51053368Y-94203475D01*
X51296589Y-94365990D01*
X51566842Y-94477932D01*
X51853740Y-94535000D01*
X52146260Y-94535000D01*
X52433158Y-94477932D01*
X52703411Y-94365990D01*
X52946632Y-94203475D01*
X53153475Y-93996632D01*
X53315990Y-93753411D01*
X53427932Y-93483158D01*
X53485000Y-93196260D01*
X53485000Y-92903740D01*
X53427932Y-92616842D01*
X53315990Y-92346589D01*
X53153475Y-92103368D01*
X52946632Y-91896525D01*
X52772240Y-91780000D01*
X52946632Y-91663475D01*
X53153475Y-91456632D01*
X53315990Y-91213411D01*
X53427932Y-90943158D01*
X53485000Y-90656260D01*
X53485000Y-90363740D01*
X53427932Y-90076842D01*
X53315990Y-89806589D01*
X53153475Y-89563368D01*
X52946632Y-89356525D01*
X52772240Y-89240000D01*
X52946632Y-89123475D01*
X53153475Y-88916632D01*
X53315990Y-88673411D01*
X53427932Y-88403158D01*
X53485000Y-88116260D01*
X53485000Y-87823740D01*
X53427932Y-87536842D01*
X53315990Y-87266589D01*
X53153475Y-87023368D01*
X52946632Y-86816525D01*
X52772240Y-86700000D01*
X52946632Y-86583475D01*
X53153475Y-86376632D01*
X53315990Y-86133411D01*
X53427932Y-85863158D01*
X53485000Y-85576260D01*
X53485000Y-85283740D01*
X53427932Y-84996842D01*
X53315990Y-84726589D01*
X53153475Y-84483368D01*
X52946632Y-84276525D01*
X52772240Y-84160000D01*
X52946632Y-84043475D01*
X53153475Y-83836632D01*
X53315990Y-83593411D01*
X53427932Y-83323158D01*
X53485000Y-83036260D01*
X53485000Y-82743740D01*
X53427932Y-82456842D01*
X53315990Y-82186589D01*
X53153475Y-81943368D01*
X52946632Y-81736525D01*
X52772240Y-81620000D01*
X52946632Y-81503475D01*
X53153475Y-81296632D01*
X53315990Y-81053411D01*
X53427932Y-80783158D01*
X53485000Y-80496260D01*
X53485000Y-80203740D01*
X53427932Y-79916842D01*
X53315990Y-79646589D01*
X53153475Y-79403368D01*
X52946632Y-79196525D01*
X52772240Y-79080000D01*
X52946632Y-78963475D01*
X53153475Y-78756632D01*
X53232701Y-78638061D01*
X54845000Y-78638061D01*
X54845000Y-78841939D01*
X54884774Y-79041898D01*
X54895001Y-79066588D01*
X54895000Y-87303414D01*
X54884774Y-87328102D01*
X54845000Y-87528061D01*
X54845000Y-87731939D01*
X54884774Y-87931898D01*
X54962795Y-88120256D01*
X55076063Y-88289774D01*
X55220226Y-88433937D01*
X55389744Y-88547205D01*
X55578102Y-88625226D01*
X55778061Y-88665000D01*
X55981939Y-88665000D01*
X56181898Y-88625226D01*
X56370256Y-88547205D01*
X56539774Y-88433937D01*
X56683937Y-88289774D01*
X56797205Y-88120256D01*
X56875226Y-87931898D01*
X56915000Y-87731939D01*
X56915000Y-87528061D01*
X72625000Y-87528061D01*
X72625000Y-87731939D01*
X72664774Y-87931898D01*
X72675000Y-87956586D01*
X72675001Y-92383412D01*
X72664774Y-92408102D01*
X72625000Y-92608061D01*
X72625000Y-92811939D01*
X72664774Y-93011898D01*
X72742795Y-93200256D01*
X72856063Y-93369774D01*
X73000226Y-93513937D01*
X73169744Y-93627205D01*
X73358102Y-93705226D01*
X73558061Y-93745000D01*
X73761939Y-93745000D01*
X73961898Y-93705226D01*
X74150256Y-93627205D01*
X74319774Y-93513937D01*
X74463937Y-93369774D01*
X74577205Y-93200256D01*
X74655226Y-93011898D01*
X74695000Y-92811939D01*
X74695000Y-92710000D01*
X82830235Y-92710000D01*
X82835001Y-92758390D01*
X82835000Y-95201620D01*
X82830235Y-95250000D01*
X82835000Y-95298379D01*
X82849253Y-95443093D01*
X82905576Y-95628766D01*
X82997040Y-95799884D01*
X83120130Y-95949870D01*
X83157716Y-95980716D01*
X86702570Y-99525571D01*
X86712795Y-99550256D01*
X86826063Y-99719774D01*
X86970226Y-99863937D01*
X87139744Y-99977205D01*
X87328102Y-100055226D01*
X87528061Y-100095000D01*
X87731939Y-100095000D01*
X87931898Y-100055226D01*
X88120256Y-99977205D01*
X88289774Y-99863937D01*
X88433937Y-99719774D01*
X88547205Y-99550256D01*
X88625226Y-99361898D01*
X88665000Y-99161939D01*
X88665000Y-98958061D01*
X88625226Y-98758102D01*
X88547205Y-98569744D01*
X88433937Y-98400226D01*
X88289774Y-98256063D01*
X88120256Y-98142795D01*
X88095571Y-98132570D01*
X85111044Y-95148043D01*
X86595000Y-95148043D01*
X86595000Y-95351921D01*
X86634774Y-95551880D01*
X86712795Y-95740238D01*
X86826063Y-95909756D01*
X86970226Y-96053919D01*
X87139744Y-96167187D01*
X87328102Y-96245208D01*
X87528061Y-96284982D01*
X87731939Y-96284982D01*
X87931898Y-96245208D01*
X87956542Y-96235000D01*
X99910936Y-96235000D01*
X99951234Y-96256540D01*
X100136907Y-96312863D01*
X100330000Y-96331881D01*
X100523094Y-96312863D01*
X100708766Y-96256540D01*
X100879883Y-96165076D01*
X101029869Y-96041985D01*
X101152960Y-95891999D01*
X101244424Y-95720882D01*
X101300747Y-95535210D01*
X101319765Y-95342116D01*
X101300747Y-95149023D01*
X101244424Y-94963350D01*
X101222216Y-94921802D01*
X101155089Y-94759744D01*
X101041821Y-94590226D01*
X100897658Y-94446063D01*
X100728140Y-94332795D01*
X100539782Y-94254774D01*
X100339823Y-94215000D01*
X100135945Y-94215000D01*
X99935986Y-94254774D01*
X99911298Y-94265000D01*
X99414553Y-94265000D01*
X99506632Y-94203475D01*
X99713475Y-93996632D01*
X99875990Y-93753411D01*
X99987932Y-93483158D01*
X100045000Y-93196260D01*
X100045000Y-92903740D01*
X99987932Y-92616842D01*
X99875990Y-92346589D01*
X99713475Y-92103368D01*
X99506632Y-91896525D01*
X99332240Y-91780000D01*
X99506632Y-91663475D01*
X99713475Y-91456632D01*
X99875990Y-91213411D01*
X99987932Y-90943158D01*
X100045000Y-90656260D01*
X100045000Y-90363740D01*
X99987932Y-90076842D01*
X99875990Y-89806589D01*
X99713475Y-89563368D01*
X99506632Y-89356525D01*
X99332240Y-89240000D01*
X99506632Y-89123475D01*
X99713475Y-88916632D01*
X99875990Y-88673411D01*
X99987932Y-88403158D01*
X100045000Y-88116260D01*
X100045000Y-87823740D01*
X99987932Y-87536842D01*
X99875990Y-87266589D01*
X99713475Y-87023368D01*
X99506632Y-86816525D01*
X99332240Y-86700000D01*
X99506632Y-86583475D01*
X99713475Y-86376632D01*
X99875990Y-86133411D01*
X99987932Y-85863158D01*
X100045000Y-85576260D01*
X100045000Y-85283740D01*
X99987932Y-84996842D01*
X99875990Y-84726589D01*
X99713475Y-84483368D01*
X99506632Y-84276525D01*
X99332240Y-84160000D01*
X99506632Y-84043475D01*
X99713475Y-83836632D01*
X99875990Y-83593411D01*
X99987932Y-83323158D01*
X100045000Y-83036260D01*
X100045000Y-82743740D01*
X99987932Y-82456842D01*
X99875990Y-82186589D01*
X99713475Y-81943368D01*
X99506632Y-81736525D01*
X99332240Y-81620000D01*
X99506632Y-81503475D01*
X99713475Y-81296632D01*
X99875990Y-81053411D01*
X99987932Y-80783158D01*
X100045000Y-80496260D01*
X100045000Y-80203740D01*
X99987932Y-79916842D01*
X99875990Y-79646589D01*
X99713475Y-79403368D01*
X99506632Y-79196525D01*
X99332240Y-79080000D01*
X99506632Y-78963475D01*
X99713475Y-78756632D01*
X99875990Y-78513411D01*
X99987932Y-78243158D01*
X100045000Y-77956260D01*
X100045000Y-77663740D01*
X99987932Y-77376842D01*
X99875990Y-77106589D01*
X99713475Y-76863368D01*
X99506632Y-76656525D01*
X99332240Y-76540000D01*
X99506632Y-76423475D01*
X99713475Y-76216632D01*
X99875990Y-75973411D01*
X99987932Y-75703158D01*
X100045000Y-75416260D01*
X100045000Y-75123740D01*
X99987932Y-74836842D01*
X99875990Y-74566589D01*
X99713475Y-74323368D01*
X99506632Y-74116525D01*
X99332240Y-74000000D01*
X99506632Y-73883475D01*
X99713475Y-73676632D01*
X99875990Y-73433411D01*
X99987932Y-73163158D01*
X100045000Y-72876260D01*
X100045000Y-72583740D01*
X99987932Y-72296842D01*
X99875990Y-72026589D01*
X99713475Y-71783368D01*
X99506632Y-71576525D01*
X99332240Y-71460000D01*
X99506632Y-71343475D01*
X99713475Y-71136632D01*
X99875990Y-70893411D01*
X99987932Y-70623158D01*
X100045000Y-70336260D01*
X100045000Y-70043740D01*
X99987932Y-69756842D01*
X99875990Y-69486589D01*
X99713475Y-69243368D01*
X99506632Y-69036525D01*
X99332240Y-68920000D01*
X99506632Y-68803475D01*
X99713475Y-68596632D01*
X99875990Y-68353411D01*
X99987932Y-68083158D01*
X100045000Y-67796260D01*
X100045000Y-67503740D01*
X99987932Y-67216842D01*
X99875990Y-66946589D01*
X99713475Y-66703368D01*
X99506632Y-66496525D01*
X99332240Y-66380000D01*
X99506632Y-66263475D01*
X99713475Y-66056632D01*
X99875990Y-65813411D01*
X99987932Y-65543158D01*
X100045000Y-65256260D01*
X100045000Y-64963740D01*
X99987932Y-64676842D01*
X99875990Y-64406589D01*
X99713475Y-64163368D01*
X99506632Y-63956525D01*
X99332240Y-63840000D01*
X99506632Y-63723475D01*
X99713475Y-63516632D01*
X99875990Y-63273411D01*
X99987932Y-63003158D01*
X100045000Y-62716260D01*
X100045000Y-62423740D01*
X99987932Y-62136842D01*
X99875990Y-61866589D01*
X99713475Y-61623368D01*
X99506632Y-61416525D01*
X99332240Y-61300000D01*
X99506632Y-61183475D01*
X99713475Y-60976632D01*
X99875990Y-60733411D01*
X99987932Y-60463158D01*
X100045000Y-60176260D01*
X100045000Y-59883740D01*
X99987932Y-59596842D01*
X99875990Y-59326589D01*
X99713475Y-59083368D01*
X99506632Y-58876525D01*
X99324466Y-58754805D01*
X99441355Y-58685178D01*
X99657588Y-58490269D01*
X99831641Y-58256920D01*
X99956825Y-57994099D01*
X100001476Y-57846890D01*
X99880155Y-57617000D01*
X98687000Y-57617000D01*
X98687000Y-57637000D01*
X98433000Y-57637000D01*
X98433000Y-57617000D01*
X96127000Y-57617000D01*
X96127000Y-57637000D01*
X95873000Y-57637000D01*
X95873000Y-57617000D01*
X94679845Y-57617000D01*
X94558524Y-57846890D01*
X94603175Y-57994099D01*
X94728359Y-58256920D01*
X94902412Y-58490269D01*
X95118645Y-58685178D01*
X95235534Y-58754805D01*
X95053368Y-58876525D01*
X94846525Y-59083368D01*
X94684010Y-59326589D01*
X94572068Y-59596842D01*
X94515000Y-59883740D01*
X94515000Y-60176260D01*
X94572068Y-60463158D01*
X94684010Y-60733411D01*
X94846525Y-60976632D01*
X95053368Y-61183475D01*
X95227760Y-61300000D01*
X95053368Y-61416525D01*
X94846525Y-61623368D01*
X94684010Y-61866589D01*
X94572068Y-62136842D01*
X94515000Y-62423740D01*
X94515000Y-62716260D01*
X94572068Y-63003158D01*
X94684010Y-63273411D01*
X94846525Y-63516632D01*
X95053368Y-63723475D01*
X95227760Y-63840000D01*
X95053368Y-63956525D01*
X94846525Y-64163368D01*
X94684010Y-64406589D01*
X94572068Y-64676842D01*
X94515000Y-64963740D01*
X94515000Y-65256260D01*
X94572068Y-65543158D01*
X94684010Y-65813411D01*
X94846525Y-66056632D01*
X95053368Y-66263475D01*
X95227760Y-66380000D01*
X95053368Y-66496525D01*
X94846525Y-66703368D01*
X94684010Y-66946589D01*
X94572068Y-67216842D01*
X94515000Y-67503740D01*
X94515000Y-67796260D01*
X94572068Y-68083158D01*
X94684010Y-68353411D01*
X94846525Y-68596632D01*
X95053368Y-68803475D01*
X95227760Y-68920000D01*
X95053368Y-69036525D01*
X94846525Y-69243368D01*
X94684010Y-69486589D01*
X94572068Y-69756842D01*
X94515000Y-70043740D01*
X94515000Y-70336260D01*
X94572068Y-70623158D01*
X94684010Y-70893411D01*
X94846525Y-71136632D01*
X95053368Y-71343475D01*
X95227760Y-71460000D01*
X95053368Y-71576525D01*
X94846525Y-71783368D01*
X94684010Y-72026589D01*
X94572068Y-72296842D01*
X94515000Y-72583740D01*
X94515000Y-72876260D01*
X94572068Y-73163158D01*
X94684010Y-73433411D01*
X94846525Y-73676632D01*
X95053368Y-73883475D01*
X95227760Y-74000000D01*
X95053368Y-74116525D01*
X94846525Y-74323368D01*
X94684010Y-74566589D01*
X94572068Y-74836842D01*
X94515000Y-75123740D01*
X94515000Y-75416260D01*
X94572068Y-75703158D01*
X94684010Y-75973411D01*
X94846525Y-76216632D01*
X95053368Y-76423475D01*
X95227760Y-76540000D01*
X95053368Y-76656525D01*
X94846525Y-76863368D01*
X94684010Y-77106589D01*
X94572068Y-77376842D01*
X94515000Y-77663740D01*
X94515000Y-77956260D01*
X94572068Y-78243158D01*
X94684010Y-78513411D01*
X94846525Y-78756632D01*
X95053368Y-78963475D01*
X95227760Y-79080000D01*
X95053368Y-79196525D01*
X94846525Y-79403368D01*
X94684010Y-79646589D01*
X94572068Y-79916842D01*
X94515000Y-80203740D01*
X94515000Y-80496260D01*
X94572068Y-80783158D01*
X94684010Y-81053411D01*
X94846525Y-81296632D01*
X95053368Y-81503475D01*
X95227760Y-81620000D01*
X95053368Y-81736525D01*
X94846525Y-81943368D01*
X94684010Y-82186589D01*
X94572068Y-82456842D01*
X94515000Y-82743740D01*
X94515000Y-83036260D01*
X94572068Y-83323158D01*
X94684010Y-83593411D01*
X94846525Y-83836632D01*
X95053368Y-84043475D01*
X95227760Y-84160000D01*
X95053368Y-84276525D01*
X94846525Y-84483368D01*
X94684010Y-84726589D01*
X94572068Y-84996842D01*
X94515000Y-85283740D01*
X94515000Y-85576260D01*
X94572068Y-85863158D01*
X94684010Y-86133411D01*
X94846525Y-86376632D01*
X95053368Y-86583475D01*
X95227760Y-86700000D01*
X95053368Y-86816525D01*
X94846525Y-87023368D01*
X94684010Y-87266589D01*
X94572068Y-87536842D01*
X94515000Y-87823740D01*
X94515000Y-88116260D01*
X94572068Y-88403158D01*
X94684010Y-88673411D01*
X94846525Y-88916632D01*
X95053368Y-89123475D01*
X95227760Y-89240000D01*
X95053368Y-89356525D01*
X94846525Y-89563368D01*
X94684010Y-89806589D01*
X94572068Y-90076842D01*
X94515000Y-90363740D01*
X94515000Y-90656260D01*
X94572068Y-90943158D01*
X94684010Y-91213411D01*
X94846525Y-91456632D01*
X95053368Y-91663475D01*
X95227760Y-91780000D01*
X95053368Y-91896525D01*
X94846525Y-92103368D01*
X94684010Y-92346589D01*
X94572068Y-92616842D01*
X94515000Y-92903740D01*
X94515000Y-93196260D01*
X94572068Y-93483158D01*
X94684010Y-93753411D01*
X94846525Y-93996632D01*
X95053368Y-94203475D01*
X95145447Y-94265000D01*
X87956629Y-94265000D01*
X87931898Y-94254756D01*
X87731939Y-94214982D01*
X87528061Y-94214982D01*
X87328102Y-94254756D01*
X87139744Y-94332777D01*
X86970226Y-94446045D01*
X86826063Y-94590208D01*
X86712795Y-94759726D01*
X86634774Y-94948084D01*
X86595000Y-95148043D01*
X85111044Y-95148043D01*
X84805000Y-94842000D01*
X84805000Y-93118000D01*
X86631997Y-91291004D01*
X88851620Y-91291004D01*
X88900000Y-91295769D01*
X88948380Y-91291004D01*
X89093094Y-91276751D01*
X89278767Y-91220428D01*
X89449884Y-91128964D01*
X89599870Y-91005874D01*
X89630716Y-90968288D01*
X92102284Y-88496720D01*
X92139870Y-88465874D01*
X92262960Y-88315888D01*
X92354424Y-88144771D01*
X92410747Y-87959098D01*
X92425000Y-87814384D01*
X92425000Y-87814383D01*
X92429765Y-87766005D01*
X92425000Y-87717627D01*
X92425000Y-54100000D01*
X94511928Y-54100000D01*
X94511928Y-55800000D01*
X94524188Y-55924482D01*
X94560498Y-56044180D01*
X94619463Y-56154494D01*
X94698815Y-56251185D01*
X94795506Y-56330537D01*
X94905820Y-56389502D01*
X94986466Y-56413966D01*
X94902412Y-56489731D01*
X94728359Y-56723080D01*
X94603175Y-56985901D01*
X94558524Y-57133110D01*
X94679845Y-57363000D01*
X95873000Y-57363000D01*
X95873000Y-57343000D01*
X96127000Y-57343000D01*
X96127000Y-57363000D01*
X98433000Y-57363000D01*
X98433000Y-57343000D01*
X98687000Y-57343000D01*
X98687000Y-57363000D01*
X99880155Y-57363000D01*
X100001476Y-57133110D01*
X99956825Y-56985901D01*
X99831641Y-56723080D01*
X99657588Y-56489731D01*
X99573534Y-56413966D01*
X99654180Y-56389502D01*
X99764494Y-56330537D01*
X99861185Y-56251185D01*
X99940537Y-56154494D01*
X99999502Y-56044180D01*
X100035812Y-55924482D01*
X100048072Y-55800000D01*
X100048072Y-54100000D01*
X100035812Y-53975518D01*
X99999502Y-53855820D01*
X99940537Y-53745506D01*
X99861185Y-53648815D01*
X99764494Y-53569463D01*
X99654180Y-53510498D01*
X99534482Y-53474188D01*
X99410000Y-53461928D01*
X97710000Y-53461928D01*
X97585518Y-53474188D01*
X97465820Y-53510498D01*
X97355506Y-53569463D01*
X97280000Y-53631429D01*
X97204494Y-53569463D01*
X97094180Y-53510498D01*
X96974482Y-53474188D01*
X96850000Y-53461928D01*
X95150000Y-53461928D01*
X95025518Y-53474188D01*
X94905820Y-53510498D01*
X94795506Y-53569463D01*
X94698815Y-53648815D01*
X94619463Y-53745506D01*
X94560498Y-53855820D01*
X94524188Y-53975518D01*
X94511928Y-54100000D01*
X92425000Y-54100000D01*
X92425000Y-52396590D01*
X92435226Y-52371902D01*
X92475000Y-52171943D01*
X92475000Y-51968065D01*
X92435226Y-51768106D01*
X92357205Y-51579748D01*
X92243937Y-51410230D01*
X92099774Y-51266067D01*
X91930256Y-51152799D01*
X91741898Y-51074778D01*
X91541939Y-51035004D01*
X91338061Y-51035004D01*
X91138102Y-51074778D01*
X90949744Y-51152799D01*
X90780226Y-51266067D01*
X90636063Y-51410230D01*
X90522795Y-51579748D01*
X90444774Y-51768106D01*
X90405000Y-51968065D01*
X90405000Y-52171943D01*
X90444774Y-52371902D01*
X90455000Y-52396590D01*
X90455000Y-52684068D01*
X90455001Y-52684078D01*
X90455000Y-87358004D01*
X88492000Y-89321004D01*
X86272376Y-89321004D01*
X86223996Y-89316239D01*
X86175616Y-89321004D01*
X86030902Y-89335257D01*
X85845229Y-89391580D01*
X85674112Y-89483044D01*
X85524126Y-89606134D01*
X85493285Y-89643714D01*
X83157711Y-91979289D01*
X83120131Y-92010130D01*
X82997041Y-92160116D01*
X82965169Y-92219744D01*
X82905576Y-92331234D01*
X82849253Y-92516907D01*
X82830235Y-92710000D01*
X74695000Y-92710000D01*
X74695000Y-92608061D01*
X74655226Y-92408102D01*
X74645000Y-92383414D01*
X74645000Y-87956586D01*
X74655226Y-87931898D01*
X74695000Y-87731939D01*
X74695000Y-87528061D01*
X74655226Y-87328102D01*
X74577205Y-87139744D01*
X74463937Y-86970226D01*
X74319774Y-86826063D01*
X74150256Y-86712795D01*
X73961898Y-86634774D01*
X73761939Y-86595000D01*
X73558061Y-86595000D01*
X73358102Y-86634774D01*
X73169744Y-86712795D01*
X73000226Y-86826063D01*
X72856063Y-86970226D01*
X72742795Y-87139744D01*
X72664774Y-87328102D01*
X72625000Y-87528061D01*
X56915000Y-87528061D01*
X56875226Y-87328102D01*
X56865000Y-87303414D01*
X56865000Y-79066586D01*
X56875226Y-79041898D01*
X56915000Y-78841939D01*
X56915000Y-78638061D01*
X56875226Y-78438102D01*
X56797205Y-78249744D01*
X56683937Y-78080226D01*
X56539774Y-77936063D01*
X56370256Y-77822795D01*
X56181898Y-77744774D01*
X55981939Y-77705000D01*
X55778061Y-77705000D01*
X55578102Y-77744774D01*
X55389744Y-77822795D01*
X55220226Y-77936063D01*
X55076063Y-78080226D01*
X54962795Y-78249744D01*
X54884774Y-78438102D01*
X54845000Y-78638061D01*
X53232701Y-78638061D01*
X53315990Y-78513411D01*
X53427932Y-78243158D01*
X53485000Y-77956260D01*
X53485000Y-77663740D01*
X53427932Y-77376842D01*
X53315990Y-77106589D01*
X53153475Y-76863368D01*
X52946632Y-76656525D01*
X52772240Y-76540000D01*
X52946632Y-76423475D01*
X53153475Y-76216632D01*
X53238777Y-76088967D01*
X69115000Y-76088967D01*
X69115000Y-76411033D01*
X69177832Y-76726912D01*
X69301082Y-77024463D01*
X69480013Y-77292252D01*
X69707748Y-77519987D01*
X69975537Y-77698918D01*
X70273088Y-77822168D01*
X70588967Y-77885000D01*
X70911033Y-77885000D01*
X71226912Y-77822168D01*
X71524463Y-77698918D01*
X71792252Y-77519987D01*
X72019987Y-77292252D01*
X72198918Y-77024463D01*
X72322168Y-76726912D01*
X72385000Y-76411033D01*
X72385000Y-76088967D01*
X75615000Y-76088967D01*
X75615000Y-76411033D01*
X75677832Y-76726912D01*
X75801082Y-77024463D01*
X75980013Y-77292252D01*
X76207748Y-77519987D01*
X76475537Y-77698918D01*
X76773088Y-77822168D01*
X77088967Y-77885000D01*
X77411033Y-77885000D01*
X77726912Y-77822168D01*
X78024463Y-77698918D01*
X78292252Y-77519987D01*
X78519987Y-77292252D01*
X78698918Y-77024463D01*
X78822168Y-76726912D01*
X78885000Y-76411033D01*
X78885000Y-76088967D01*
X78822168Y-75773088D01*
X78698918Y-75475537D01*
X78519987Y-75207748D01*
X78292252Y-74980013D01*
X78024463Y-74801082D01*
X77726912Y-74677832D01*
X77411033Y-74615000D01*
X77088967Y-74615000D01*
X76773088Y-74677832D01*
X76475537Y-74801082D01*
X76207748Y-74980013D01*
X75980013Y-75207748D01*
X75801082Y-75475537D01*
X75677832Y-75773088D01*
X75615000Y-76088967D01*
X72385000Y-76088967D01*
X72322168Y-75773088D01*
X72198918Y-75475537D01*
X72019987Y-75207748D01*
X71792252Y-74980013D01*
X71524463Y-74801082D01*
X71226912Y-74677832D01*
X70911033Y-74615000D01*
X70588967Y-74615000D01*
X70273088Y-74677832D01*
X69975537Y-74801082D01*
X69707748Y-74980013D01*
X69480013Y-75207748D01*
X69301082Y-75475537D01*
X69177832Y-75773088D01*
X69115000Y-76088967D01*
X53238777Y-76088967D01*
X53315990Y-75973411D01*
X53427932Y-75703158D01*
X53485000Y-75416260D01*
X53485000Y-75123740D01*
X53427932Y-74836842D01*
X53315990Y-74566589D01*
X53153475Y-74323368D01*
X52946632Y-74116525D01*
X52772240Y-74000000D01*
X52946632Y-73883475D01*
X53153475Y-73676632D01*
X53315990Y-73433411D01*
X53427932Y-73163158D01*
X53485000Y-72876260D01*
X53485000Y-72583740D01*
X53427932Y-72296842D01*
X53424295Y-72288061D01*
X61195000Y-72288061D01*
X61195000Y-72491939D01*
X61234774Y-72691898D01*
X61312795Y-72880256D01*
X61426063Y-73049774D01*
X61570226Y-73193937D01*
X61739744Y-73307205D01*
X61928102Y-73385226D01*
X62128061Y-73425000D01*
X62331939Y-73425000D01*
X62531898Y-73385226D01*
X62556586Y-73375000D01*
X66983414Y-73375000D01*
X67008102Y-73385226D01*
X67208061Y-73425000D01*
X67411939Y-73425000D01*
X67611898Y-73385226D01*
X67800256Y-73307205D01*
X67969774Y-73193937D01*
X68113937Y-73049774D01*
X68227205Y-72880256D01*
X68305226Y-72691898D01*
X68345000Y-72491939D01*
X68345000Y-72288061D01*
X68305226Y-72088102D01*
X68227205Y-71899744D01*
X68113937Y-71730226D01*
X67972678Y-71588967D01*
X69115000Y-71588967D01*
X69115000Y-71911033D01*
X69177832Y-72226912D01*
X69301082Y-72524463D01*
X69480013Y-72792252D01*
X69707748Y-73019987D01*
X69975537Y-73198918D01*
X70273088Y-73322168D01*
X70588967Y-73385000D01*
X70911033Y-73385000D01*
X71226912Y-73322168D01*
X71524463Y-73198918D01*
X71792252Y-73019987D01*
X72019987Y-72792252D01*
X72198918Y-72524463D01*
X72322168Y-72226912D01*
X72385000Y-71911033D01*
X72385000Y-71588967D01*
X75615000Y-71588967D01*
X75615000Y-71911033D01*
X75677832Y-72226912D01*
X75801082Y-72524463D01*
X75980013Y-72792252D01*
X76207748Y-73019987D01*
X76475537Y-73198918D01*
X76773088Y-73322168D01*
X77088967Y-73385000D01*
X77411033Y-73385000D01*
X77726912Y-73322168D01*
X78024463Y-73198918D01*
X78292252Y-73019987D01*
X78519987Y-72792252D01*
X78698918Y-72524463D01*
X78822168Y-72226912D01*
X78885000Y-71911033D01*
X78885000Y-71588967D01*
X78822168Y-71273088D01*
X78698918Y-70975537D01*
X78519987Y-70707748D01*
X78292252Y-70480013D01*
X78024463Y-70301082D01*
X77726912Y-70177832D01*
X77411033Y-70115000D01*
X77088967Y-70115000D01*
X76773088Y-70177832D01*
X76475537Y-70301082D01*
X76207748Y-70480013D01*
X75980013Y-70707748D01*
X75801082Y-70975537D01*
X75677832Y-71273088D01*
X75615000Y-71588967D01*
X72385000Y-71588967D01*
X72322168Y-71273088D01*
X72198918Y-70975537D01*
X72019987Y-70707748D01*
X71792252Y-70480013D01*
X71524463Y-70301082D01*
X71226912Y-70177832D01*
X70911033Y-70115000D01*
X70588967Y-70115000D01*
X70273088Y-70177832D01*
X69975537Y-70301082D01*
X69707748Y-70480013D01*
X69480013Y-70707748D01*
X69301082Y-70975537D01*
X69177832Y-71273088D01*
X69115000Y-71588967D01*
X67972678Y-71588967D01*
X67969774Y-71586063D01*
X67800256Y-71472795D01*
X67611898Y-71394774D01*
X67411939Y-71355000D01*
X67208061Y-71355000D01*
X67008102Y-71394774D01*
X66983414Y-71405000D01*
X62556586Y-71405000D01*
X62531898Y-71394774D01*
X62331939Y-71355000D01*
X62128061Y-71355000D01*
X61928102Y-71394774D01*
X61739744Y-71472795D01*
X61570226Y-71586063D01*
X61426063Y-71730226D01*
X61312795Y-71899744D01*
X61234774Y-72088102D01*
X61195000Y-72288061D01*
X53424295Y-72288061D01*
X53315990Y-72026589D01*
X53153475Y-71783368D01*
X52946632Y-71576525D01*
X52772240Y-71460000D01*
X52946632Y-71343475D01*
X53153475Y-71136632D01*
X53315990Y-70893411D01*
X53427932Y-70623158D01*
X53485000Y-70336260D01*
X53485000Y-70043740D01*
X53427932Y-69756842D01*
X53315990Y-69486589D01*
X53153475Y-69243368D01*
X52946632Y-69036525D01*
X52772240Y-68920000D01*
X52946632Y-68803475D01*
X53153475Y-68596632D01*
X53315990Y-68353411D01*
X53427932Y-68083158D01*
X53485000Y-67796260D01*
X53485000Y-67503740D01*
X53427932Y-67216842D01*
X53315990Y-66946589D01*
X53153475Y-66703368D01*
X52946632Y-66496525D01*
X52772240Y-66380000D01*
X52946632Y-66263475D01*
X53153475Y-66056632D01*
X53315990Y-65813411D01*
X53427932Y-65543158D01*
X53485000Y-65256260D01*
X53485000Y-64963740D01*
X53427932Y-64676842D01*
X53315990Y-64406589D01*
X53153475Y-64163368D01*
X52946632Y-63956525D01*
X52772240Y-63840000D01*
X52946632Y-63723475D01*
X53153475Y-63516632D01*
X53315990Y-63273411D01*
X53427932Y-63003158D01*
X53485000Y-62716260D01*
X53485000Y-62423740D01*
X53427932Y-62136842D01*
X53424295Y-62128061D01*
X72625000Y-62128061D01*
X72625000Y-62331939D01*
X72664774Y-62531898D01*
X72742795Y-62720256D01*
X72856063Y-62889774D01*
X73000226Y-63033937D01*
X73169744Y-63147205D01*
X73358102Y-63225226D01*
X73558061Y-63265000D01*
X73761939Y-63265000D01*
X73961898Y-63225226D01*
X73986586Y-63215000D01*
X83493414Y-63215000D01*
X83518102Y-63225226D01*
X83718061Y-63265000D01*
X83921939Y-63265000D01*
X84121898Y-63225226D01*
X84310256Y-63147205D01*
X84479774Y-63033937D01*
X84623937Y-62889774D01*
X84737205Y-62720256D01*
X84815226Y-62531898D01*
X84855000Y-62331939D01*
X84855000Y-62128061D01*
X84815226Y-61928102D01*
X84737205Y-61739744D01*
X84623937Y-61570226D01*
X84479774Y-61426063D01*
X84310256Y-61312795D01*
X84121898Y-61234774D01*
X83921939Y-61195000D01*
X83718061Y-61195000D01*
X83518102Y-61234774D01*
X83493414Y-61245000D01*
X73986586Y-61245000D01*
X73961898Y-61234774D01*
X73761939Y-61195000D01*
X73558061Y-61195000D01*
X73358102Y-61234774D01*
X73169744Y-61312795D01*
X73000226Y-61426063D01*
X72856063Y-61570226D01*
X72742795Y-61739744D01*
X72664774Y-61928102D01*
X72625000Y-62128061D01*
X53424295Y-62128061D01*
X53315990Y-61866589D01*
X53153475Y-61623368D01*
X52946632Y-61416525D01*
X52772240Y-61300000D01*
X52946632Y-61183475D01*
X53153475Y-60976632D01*
X53315990Y-60733411D01*
X53427932Y-60463158D01*
X53485000Y-60176260D01*
X53485000Y-59883740D01*
X53427932Y-59596842D01*
X53315990Y-59326589D01*
X53153475Y-59083368D01*
X52946632Y-58876525D01*
X52764466Y-58754805D01*
X52881355Y-58685178D01*
X53097588Y-58490269D01*
X53271641Y-58256920D01*
X53396825Y-57994099D01*
X53441476Y-57846890D01*
X53320155Y-57617000D01*
X52127000Y-57617000D01*
X52127000Y-57637000D01*
X51873000Y-57637000D01*
X51873000Y-57617000D01*
X49587000Y-57617000D01*
X49587000Y-57637000D01*
X49333000Y-57637000D01*
X49333000Y-57617000D01*
X48139845Y-57617000D01*
X48018524Y-57846890D01*
X48063175Y-57994099D01*
X48188359Y-58256920D01*
X48362412Y-58490269D01*
X48578645Y-58685178D01*
X48695534Y-58754805D01*
X48513368Y-58876525D01*
X48306525Y-59083368D01*
X48144010Y-59326589D01*
X48032068Y-59596842D01*
X47975000Y-59883740D01*
X46674981Y-59883740D01*
X40891241Y-54100000D01*
X47971928Y-54100000D01*
X47971928Y-55800000D01*
X47984188Y-55924482D01*
X48020498Y-56044180D01*
X48079463Y-56154494D01*
X48158815Y-56251185D01*
X48255506Y-56330537D01*
X48365820Y-56389502D01*
X48446466Y-56413966D01*
X48362412Y-56489731D01*
X48188359Y-56723080D01*
X48063175Y-56985901D01*
X48018524Y-57133110D01*
X48139845Y-57363000D01*
X49333000Y-57363000D01*
X49333000Y-57343000D01*
X49587000Y-57343000D01*
X49587000Y-57363000D01*
X51873000Y-57363000D01*
X51873000Y-57343000D01*
X52127000Y-57343000D01*
X52127000Y-57363000D01*
X53320155Y-57363000D01*
X53441476Y-57133110D01*
X53396825Y-56985901D01*
X53271641Y-56723080D01*
X53097588Y-56489731D01*
X53013534Y-56413966D01*
X53094180Y-56389502D01*
X53204494Y-56330537D01*
X53301185Y-56251185D01*
X53380537Y-56154494D01*
X53439502Y-56044180D01*
X53475812Y-55924482D01*
X53488072Y-55800000D01*
X53488072Y-54100000D01*
X53475812Y-53975518D01*
X53439502Y-53855820D01*
X53380537Y-53745506D01*
X53301185Y-53648815D01*
X53204494Y-53569463D01*
X53094180Y-53510498D01*
X52974482Y-53474188D01*
X52850000Y-53461928D01*
X51150000Y-53461928D01*
X51025518Y-53474188D01*
X50905820Y-53510498D01*
X50795506Y-53569463D01*
X50730000Y-53623222D01*
X50664494Y-53569463D01*
X50554180Y-53510498D01*
X50434482Y-53474188D01*
X50310000Y-53461928D01*
X48610000Y-53461928D01*
X48485518Y-53474188D01*
X48365820Y-53510498D01*
X48255506Y-53569463D01*
X48158815Y-53648815D01*
X48079463Y-53745506D01*
X48020498Y-53855820D01*
X47984188Y-53975518D01*
X47971928Y-54100000D01*
X40891241Y-54100000D01*
X38759302Y-51968061D01*
X47225000Y-51968061D01*
X47225000Y-52171939D01*
X47264774Y-52371898D01*
X47342795Y-52560256D01*
X47456063Y-52729774D01*
X47600226Y-52873937D01*
X47769744Y-52987205D01*
X47958102Y-53065226D01*
X48158061Y-53105000D01*
X48361939Y-53105000D01*
X48561898Y-53065226D01*
X48586586Y-53055000D01*
X55553414Y-53055000D01*
X55578102Y-53065226D01*
X55778061Y-53105000D01*
X55981939Y-53105000D01*
X56181898Y-53065226D01*
X56370256Y-52987205D01*
X56539774Y-52873937D01*
X56683937Y-52729774D01*
X56797205Y-52560256D01*
X56875226Y-52371898D01*
X56915000Y-52171939D01*
X56915000Y-51968061D01*
X56875226Y-51768102D01*
X56797205Y-51579744D01*
X56683937Y-51410226D01*
X56539774Y-51266063D01*
X56370256Y-51152795D01*
X56181898Y-51074774D01*
X55981939Y-51035000D01*
X55778061Y-51035000D01*
X55578102Y-51074774D01*
X55553414Y-51085000D01*
X48586586Y-51085000D01*
X48561898Y-51074774D01*
X48361939Y-51035000D01*
X48158061Y-51035000D01*
X47958102Y-51074774D01*
X47769744Y-51152795D01*
X47600226Y-51266063D01*
X47456063Y-51410226D01*
X47342795Y-51579744D01*
X47264774Y-51768102D01*
X47225000Y-51968061D01*
X38759302Y-51968061D01*
X24933380Y-38142140D01*
X38142140Y-24933380D01*
X60652528Y-47443769D01*
G37*
X60652528Y-47443769D02*
X60673192Y-47468948D01*
X60773690Y-47551425D01*
X60888347Y-47612710D01*
X61012757Y-47650450D01*
X61109721Y-47660000D01*
X61109731Y-47660000D01*
X61142140Y-47663192D01*
X61174549Y-47660000D01*
X86825451Y-47660000D01*
X86857860Y-47663192D01*
X86890269Y-47660000D01*
X86890279Y-47660000D01*
X86987243Y-47650450D01*
X87111653Y-47612710D01*
X87226310Y-47551425D01*
X87326808Y-47468948D01*
X87347476Y-47443764D01*
X109857860Y-24933381D01*
X123066619Y-38142140D01*
X100556236Y-60652524D01*
X100531052Y-60673192D01*
X100510387Y-60698373D01*
X100510386Y-60698374D01*
X100448575Y-60773690D01*
X100406205Y-60852960D01*
X100387290Y-60888348D01*
X100349550Y-61012758D01*
X100340000Y-61109722D01*
X100340000Y-61109731D01*
X100336808Y-61142140D01*
X100340000Y-61174549D01*
X100340001Y-86825441D01*
X100336808Y-86857860D01*
X100349551Y-86987242D01*
X100387290Y-87111652D01*
X100448575Y-87226310D01*
X100510386Y-87301626D01*
X100510387Y-87301627D01*
X100531053Y-87326808D01*
X100556232Y-87347472D01*
X123066619Y-109857860D01*
X109857860Y-123066619D01*
X87347476Y-100556236D01*
X87326808Y-100531052D01*
X87226310Y-100448575D01*
X87111653Y-100387290D01*
X86987243Y-100349550D01*
X86890279Y-100340000D01*
X86890269Y-100340000D01*
X86857860Y-100336808D01*
X86825451Y-100340000D01*
X61174549Y-100340000D01*
X61142140Y-100336808D01*
X61109731Y-100340000D01*
X61109721Y-100340000D01*
X61012757Y-100349550D01*
X60888347Y-100387290D01*
X60773690Y-100448575D01*
X60673192Y-100531052D01*
X60652528Y-100556231D01*
X38142140Y-123066620D01*
X24933380Y-109857860D01*
X47443769Y-87347472D01*
X47468948Y-87326808D01*
X47489615Y-87301626D01*
X47551425Y-87226310D01*
X47612710Y-87111653D01*
X47639491Y-87023368D01*
X47650450Y-86987243D01*
X47660000Y-86890279D01*
X47660000Y-86890269D01*
X47663192Y-86857860D01*
X47660000Y-86825451D01*
X47660000Y-61174549D01*
X47663192Y-61142140D01*
X47660000Y-61109731D01*
X47660000Y-61109721D01*
X47650450Y-61012757D01*
X47612710Y-60888347D01*
X47551425Y-60773690D01*
X47515463Y-60729870D01*
X47489614Y-60698373D01*
X47489612Y-60698371D01*
X47468948Y-60673192D01*
X47443770Y-60652529D01*
X46674981Y-59883740D01*
X47975000Y-59883740D01*
X47975000Y-60176260D01*
X48032068Y-60463158D01*
X48144010Y-60733411D01*
X48306525Y-60976632D01*
X48513368Y-61183475D01*
X48687760Y-61300000D01*
X48513368Y-61416525D01*
X48306525Y-61623368D01*
X48144010Y-61866589D01*
X48032068Y-62136842D01*
X47975000Y-62423740D01*
X47975000Y-62716260D01*
X48032068Y-63003158D01*
X48144010Y-63273411D01*
X48306525Y-63516632D01*
X48513368Y-63723475D01*
X48687760Y-63840000D01*
X48513368Y-63956525D01*
X48306525Y-64163368D01*
X48144010Y-64406589D01*
X48032068Y-64676842D01*
X47975000Y-64963740D01*
X47975000Y-65256260D01*
X48032068Y-65543158D01*
X48144010Y-65813411D01*
X48306525Y-66056632D01*
X48513368Y-66263475D01*
X48687760Y-66380000D01*
X48513368Y-66496525D01*
X48306525Y-66703368D01*
X48144010Y-66946589D01*
X48032068Y-67216842D01*
X47975000Y-67503740D01*
X47975000Y-67796260D01*
X48032068Y-68083158D01*
X48144010Y-68353411D01*
X48306525Y-68596632D01*
X48513368Y-68803475D01*
X48687760Y-68920000D01*
X48513368Y-69036525D01*
X48306525Y-69243368D01*
X48144010Y-69486589D01*
X48032068Y-69756842D01*
X47975000Y-70043740D01*
X47975000Y-70336260D01*
X48032068Y-70623158D01*
X48144010Y-70893411D01*
X48306525Y-71136632D01*
X48513368Y-71343475D01*
X48687760Y-71460000D01*
X48513368Y-71576525D01*
X48306525Y-71783368D01*
X48144010Y-72026589D01*
X48032068Y-72296842D01*
X47975000Y-72583740D01*
X47975000Y-72876260D01*
X48032068Y-73163158D01*
X48144010Y-73433411D01*
X48306525Y-73676632D01*
X48513368Y-73883475D01*
X48687760Y-74000000D01*
X48513368Y-74116525D01*
X48306525Y-74323368D01*
X48144010Y-74566589D01*
X48032068Y-74836842D01*
X47975000Y-75123740D01*
X47975000Y-75416260D01*
X48032068Y-75703158D01*
X48144010Y-75973411D01*
X48306525Y-76216632D01*
X48513368Y-76423475D01*
X48687760Y-76540000D01*
X48513368Y-76656525D01*
X48306525Y-76863368D01*
X48144010Y-77106589D01*
X48032068Y-77376842D01*
X47975000Y-77663740D01*
X47975000Y-77956260D01*
X48032068Y-78243158D01*
X48144010Y-78513411D01*
X48306525Y-78756632D01*
X48513368Y-78963475D01*
X48687760Y-79080000D01*
X48513368Y-79196525D01*
X48306525Y-79403368D01*
X48144010Y-79646589D01*
X48032068Y-79916842D01*
X47975000Y-80203740D01*
X47975000Y-80496260D01*
X48032068Y-80783158D01*
X48144010Y-81053411D01*
X48306525Y-81296632D01*
X48513368Y-81503475D01*
X48687760Y-81620000D01*
X48513368Y-81736525D01*
X48306525Y-81943368D01*
X48144010Y-82186589D01*
X48032068Y-82456842D01*
X47975000Y-82743740D01*
X47975000Y-83036260D01*
X48032068Y-83323158D01*
X48144010Y-83593411D01*
X48306525Y-83836632D01*
X48513368Y-84043475D01*
X48687760Y-84160000D01*
X48513368Y-84276525D01*
X48306525Y-84483368D01*
X48144010Y-84726589D01*
X48032068Y-84996842D01*
X47975000Y-85283740D01*
X47975000Y-85576260D01*
X48032068Y-85863158D01*
X48144010Y-86133411D01*
X48306525Y-86376632D01*
X48513368Y-86583475D01*
X48687760Y-86700000D01*
X48513368Y-86816525D01*
X48306525Y-87023368D01*
X48144010Y-87266589D01*
X48032068Y-87536842D01*
X47975000Y-87823740D01*
X47975000Y-88116260D01*
X48032068Y-88403158D01*
X48144010Y-88673411D01*
X48306525Y-88916632D01*
X48513368Y-89123475D01*
X48687760Y-89240000D01*
X48513368Y-89356525D01*
X48306525Y-89563368D01*
X48144010Y-89806589D01*
X48032068Y-90076842D01*
X47975000Y-90363740D01*
X47975000Y-90656260D01*
X48032068Y-90943158D01*
X48144010Y-91213411D01*
X48306525Y-91456632D01*
X48513368Y-91663475D01*
X48687760Y-91780000D01*
X48513368Y-91896525D01*
X48306525Y-92103368D01*
X48144010Y-92346589D01*
X48032068Y-92616842D01*
X47975000Y-92903740D01*
X47975000Y-93196260D01*
X48032068Y-93483158D01*
X48144010Y-93753411D01*
X48306525Y-93996632D01*
X48513368Y-94203475D01*
X48756589Y-94365990D01*
X49026842Y-94477932D01*
X49313740Y-94535000D01*
X49606260Y-94535000D01*
X49893158Y-94477932D01*
X50163411Y-94365990D01*
X50406632Y-94203475D01*
X50575107Y-94035000D01*
X50884893Y-94035000D01*
X51053368Y-94203475D01*
X51296589Y-94365990D01*
X51566842Y-94477932D01*
X51853740Y-94535000D01*
X52146260Y-94535000D01*
X52433158Y-94477932D01*
X52703411Y-94365990D01*
X52946632Y-94203475D01*
X53153475Y-93996632D01*
X53315990Y-93753411D01*
X53427932Y-93483158D01*
X53485000Y-93196260D01*
X53485000Y-92903740D01*
X53427932Y-92616842D01*
X53315990Y-92346589D01*
X53153475Y-92103368D01*
X52946632Y-91896525D01*
X52772240Y-91780000D01*
X52946632Y-91663475D01*
X53153475Y-91456632D01*
X53315990Y-91213411D01*
X53427932Y-90943158D01*
X53485000Y-90656260D01*
X53485000Y-90363740D01*
X53427932Y-90076842D01*
X53315990Y-89806589D01*
X53153475Y-89563368D01*
X52946632Y-89356525D01*
X52772240Y-89240000D01*
X52946632Y-89123475D01*
X53153475Y-88916632D01*
X53315990Y-88673411D01*
X53427932Y-88403158D01*
X53485000Y-88116260D01*
X53485000Y-87823740D01*
X53427932Y-87536842D01*
X53315990Y-87266589D01*
X53153475Y-87023368D01*
X52946632Y-86816525D01*
X52772240Y-86700000D01*
X52946632Y-86583475D01*
X53153475Y-86376632D01*
X53315990Y-86133411D01*
X53427932Y-85863158D01*
X53485000Y-85576260D01*
X53485000Y-85283740D01*
X53427932Y-84996842D01*
X53315990Y-84726589D01*
X53153475Y-84483368D01*
X52946632Y-84276525D01*
X52772240Y-84160000D01*
X52946632Y-84043475D01*
X53153475Y-83836632D01*
X53315990Y-83593411D01*
X53427932Y-83323158D01*
X53485000Y-83036260D01*
X53485000Y-82743740D01*
X53427932Y-82456842D01*
X53315990Y-82186589D01*
X53153475Y-81943368D01*
X52946632Y-81736525D01*
X52772240Y-81620000D01*
X52946632Y-81503475D01*
X53153475Y-81296632D01*
X53315990Y-81053411D01*
X53427932Y-80783158D01*
X53485000Y-80496260D01*
X53485000Y-80203740D01*
X53427932Y-79916842D01*
X53315990Y-79646589D01*
X53153475Y-79403368D01*
X52946632Y-79196525D01*
X52772240Y-79080000D01*
X52946632Y-78963475D01*
X53153475Y-78756632D01*
X53232701Y-78638061D01*
X54845000Y-78638061D01*
X54845000Y-78841939D01*
X54884774Y-79041898D01*
X54895001Y-79066588D01*
X54895000Y-87303414D01*
X54884774Y-87328102D01*
X54845000Y-87528061D01*
X54845000Y-87731939D01*
X54884774Y-87931898D01*
X54962795Y-88120256D01*
X55076063Y-88289774D01*
X55220226Y-88433937D01*
X55389744Y-88547205D01*
X55578102Y-88625226D01*
X55778061Y-88665000D01*
X55981939Y-88665000D01*
X56181898Y-88625226D01*
X56370256Y-88547205D01*
X56539774Y-88433937D01*
X56683937Y-88289774D01*
X56797205Y-88120256D01*
X56875226Y-87931898D01*
X56915000Y-87731939D01*
X56915000Y-87528061D01*
X72625000Y-87528061D01*
X72625000Y-87731939D01*
X72664774Y-87931898D01*
X72675000Y-87956586D01*
X72675001Y-92383412D01*
X72664774Y-92408102D01*
X72625000Y-92608061D01*
X72625000Y-92811939D01*
X72664774Y-93011898D01*
X72742795Y-93200256D01*
X72856063Y-93369774D01*
X73000226Y-93513937D01*
X73169744Y-93627205D01*
X73358102Y-93705226D01*
X73558061Y-93745000D01*
X73761939Y-93745000D01*
X73961898Y-93705226D01*
X74150256Y-93627205D01*
X74319774Y-93513937D01*
X74463937Y-93369774D01*
X74577205Y-93200256D01*
X74655226Y-93011898D01*
X74695000Y-92811939D01*
X74695000Y-92710000D01*
X82830235Y-92710000D01*
X82835001Y-92758390D01*
X82835000Y-95201620D01*
X82830235Y-95250000D01*
X82835000Y-95298379D01*
X82849253Y-95443093D01*
X82905576Y-95628766D01*
X82997040Y-95799884D01*
X83120130Y-95949870D01*
X83157716Y-95980716D01*
X86702570Y-99525571D01*
X86712795Y-99550256D01*
X86826063Y-99719774D01*
X86970226Y-99863937D01*
X87139744Y-99977205D01*
X87328102Y-100055226D01*
X87528061Y-100095000D01*
X87731939Y-100095000D01*
X87931898Y-100055226D01*
X88120256Y-99977205D01*
X88289774Y-99863937D01*
X88433937Y-99719774D01*
X88547205Y-99550256D01*
X88625226Y-99361898D01*
X88665000Y-99161939D01*
X88665000Y-98958061D01*
X88625226Y-98758102D01*
X88547205Y-98569744D01*
X88433937Y-98400226D01*
X88289774Y-98256063D01*
X88120256Y-98142795D01*
X88095571Y-98132570D01*
X85111044Y-95148043D01*
X86595000Y-95148043D01*
X86595000Y-95351921D01*
X86634774Y-95551880D01*
X86712795Y-95740238D01*
X86826063Y-95909756D01*
X86970226Y-96053919D01*
X87139744Y-96167187D01*
X87328102Y-96245208D01*
X87528061Y-96284982D01*
X87731939Y-96284982D01*
X87931898Y-96245208D01*
X87956542Y-96235000D01*
X99910936Y-96235000D01*
X99951234Y-96256540D01*
X100136907Y-96312863D01*
X100330000Y-96331881D01*
X100523094Y-96312863D01*
X100708766Y-96256540D01*
X100879883Y-96165076D01*
X101029869Y-96041985D01*
X101152960Y-95891999D01*
X101244424Y-95720882D01*
X101300747Y-95535210D01*
X101319765Y-95342116D01*
X101300747Y-95149023D01*
X101244424Y-94963350D01*
X101222216Y-94921802D01*
X101155089Y-94759744D01*
X101041821Y-94590226D01*
X100897658Y-94446063D01*
X100728140Y-94332795D01*
X100539782Y-94254774D01*
X100339823Y-94215000D01*
X100135945Y-94215000D01*
X99935986Y-94254774D01*
X99911298Y-94265000D01*
X99414553Y-94265000D01*
X99506632Y-94203475D01*
X99713475Y-93996632D01*
X99875990Y-93753411D01*
X99987932Y-93483158D01*
X100045000Y-93196260D01*
X100045000Y-92903740D01*
X99987932Y-92616842D01*
X99875990Y-92346589D01*
X99713475Y-92103368D01*
X99506632Y-91896525D01*
X99332240Y-91780000D01*
X99506632Y-91663475D01*
X99713475Y-91456632D01*
X99875990Y-91213411D01*
X99987932Y-90943158D01*
X100045000Y-90656260D01*
X100045000Y-90363740D01*
X99987932Y-90076842D01*
X99875990Y-89806589D01*
X99713475Y-89563368D01*
X99506632Y-89356525D01*
X99332240Y-89240000D01*
X99506632Y-89123475D01*
X99713475Y-88916632D01*
X99875990Y-88673411D01*
X99987932Y-88403158D01*
X100045000Y-88116260D01*
X100045000Y-87823740D01*
X99987932Y-87536842D01*
X99875990Y-87266589D01*
X99713475Y-87023368D01*
X99506632Y-86816525D01*
X99332240Y-86700000D01*
X99506632Y-86583475D01*
X99713475Y-86376632D01*
X99875990Y-86133411D01*
X99987932Y-85863158D01*
X100045000Y-85576260D01*
X100045000Y-85283740D01*
X99987932Y-84996842D01*
X99875990Y-84726589D01*
X99713475Y-84483368D01*
X99506632Y-84276525D01*
X99332240Y-84160000D01*
X99506632Y-84043475D01*
X99713475Y-83836632D01*
X99875990Y-83593411D01*
X99987932Y-83323158D01*
X100045000Y-83036260D01*
X100045000Y-82743740D01*
X99987932Y-82456842D01*
X99875990Y-82186589D01*
X99713475Y-81943368D01*
X99506632Y-81736525D01*
X99332240Y-81620000D01*
X99506632Y-81503475D01*
X99713475Y-81296632D01*
X99875990Y-81053411D01*
X99987932Y-80783158D01*
X100045000Y-80496260D01*
X100045000Y-80203740D01*
X99987932Y-79916842D01*
X99875990Y-79646589D01*
X99713475Y-79403368D01*
X99506632Y-79196525D01*
X99332240Y-79080000D01*
X99506632Y-78963475D01*
X99713475Y-78756632D01*
X99875990Y-78513411D01*
X99987932Y-78243158D01*
X100045000Y-77956260D01*
X100045000Y-77663740D01*
X99987932Y-77376842D01*
X99875990Y-77106589D01*
X99713475Y-76863368D01*
X99506632Y-76656525D01*
X99332240Y-76540000D01*
X99506632Y-76423475D01*
X99713475Y-76216632D01*
X99875990Y-75973411D01*
X99987932Y-75703158D01*
X100045000Y-75416260D01*
X100045000Y-75123740D01*
X99987932Y-74836842D01*
X99875990Y-74566589D01*
X99713475Y-74323368D01*
X99506632Y-74116525D01*
X99332240Y-74000000D01*
X99506632Y-73883475D01*
X99713475Y-73676632D01*
X99875990Y-73433411D01*
X99987932Y-73163158D01*
X100045000Y-72876260D01*
X100045000Y-72583740D01*
X99987932Y-72296842D01*
X99875990Y-72026589D01*
X99713475Y-71783368D01*
X99506632Y-71576525D01*
X99332240Y-71460000D01*
X99506632Y-71343475D01*
X99713475Y-71136632D01*
X99875990Y-70893411D01*
X99987932Y-70623158D01*
X100045000Y-70336260D01*
X100045000Y-70043740D01*
X99987932Y-69756842D01*
X99875990Y-69486589D01*
X99713475Y-69243368D01*
X99506632Y-69036525D01*
X99332240Y-68920000D01*
X99506632Y-68803475D01*
X99713475Y-68596632D01*
X99875990Y-68353411D01*
X99987932Y-68083158D01*
X100045000Y-67796260D01*
X100045000Y-67503740D01*
X99987932Y-67216842D01*
X99875990Y-66946589D01*
X99713475Y-66703368D01*
X99506632Y-66496525D01*
X99332240Y-66380000D01*
X99506632Y-66263475D01*
X99713475Y-66056632D01*
X99875990Y-65813411D01*
X99987932Y-65543158D01*
X100045000Y-65256260D01*
X100045000Y-64963740D01*
X99987932Y-64676842D01*
X99875990Y-64406589D01*
X99713475Y-64163368D01*
X99506632Y-63956525D01*
X99332240Y-63840000D01*
X99506632Y-63723475D01*
X99713475Y-63516632D01*
X99875990Y-63273411D01*
X99987932Y-63003158D01*
X100045000Y-62716260D01*
X100045000Y-62423740D01*
X99987932Y-62136842D01*
X99875990Y-61866589D01*
X99713475Y-61623368D01*
X99506632Y-61416525D01*
X99332240Y-61300000D01*
X99506632Y-61183475D01*
X99713475Y-60976632D01*
X99875990Y-60733411D01*
X99987932Y-60463158D01*
X100045000Y-60176260D01*
X100045000Y-59883740D01*
X99987932Y-59596842D01*
X99875990Y-59326589D01*
X99713475Y-59083368D01*
X99506632Y-58876525D01*
X99324466Y-58754805D01*
X99441355Y-58685178D01*
X99657588Y-58490269D01*
X99831641Y-58256920D01*
X99956825Y-57994099D01*
X100001476Y-57846890D01*
X99880155Y-57617000D01*
X98687000Y-57617000D01*
X98687000Y-57637000D01*
X98433000Y-57637000D01*
X98433000Y-57617000D01*
X96127000Y-57617000D01*
X96127000Y-57637000D01*
X95873000Y-57637000D01*
X95873000Y-57617000D01*
X94679845Y-57617000D01*
X94558524Y-57846890D01*
X94603175Y-57994099D01*
X94728359Y-58256920D01*
X94902412Y-58490269D01*
X95118645Y-58685178D01*
X95235534Y-58754805D01*
X95053368Y-58876525D01*
X94846525Y-59083368D01*
X94684010Y-59326589D01*
X94572068Y-59596842D01*
X94515000Y-59883740D01*
X94515000Y-60176260D01*
X94572068Y-60463158D01*
X94684010Y-60733411D01*
X94846525Y-60976632D01*
X95053368Y-61183475D01*
X95227760Y-61300000D01*
X95053368Y-61416525D01*
X94846525Y-61623368D01*
X94684010Y-61866589D01*
X94572068Y-62136842D01*
X94515000Y-62423740D01*
X94515000Y-62716260D01*
X94572068Y-63003158D01*
X94684010Y-63273411D01*
X94846525Y-63516632D01*
X95053368Y-63723475D01*
X95227760Y-63840000D01*
X95053368Y-63956525D01*
X94846525Y-64163368D01*
X94684010Y-64406589D01*
X94572068Y-64676842D01*
X94515000Y-64963740D01*
X94515000Y-65256260D01*
X94572068Y-65543158D01*
X94684010Y-65813411D01*
X94846525Y-66056632D01*
X95053368Y-66263475D01*
X95227760Y-66380000D01*
X95053368Y-66496525D01*
X94846525Y-66703368D01*
X94684010Y-66946589D01*
X94572068Y-67216842D01*
X94515000Y-67503740D01*
X94515000Y-67796260D01*
X94572068Y-68083158D01*
X94684010Y-68353411D01*
X94846525Y-68596632D01*
X95053368Y-68803475D01*
X95227760Y-68920000D01*
X95053368Y-69036525D01*
X94846525Y-69243368D01*
X94684010Y-69486589D01*
X94572068Y-69756842D01*
X94515000Y-70043740D01*
X94515000Y-70336260D01*
X94572068Y-70623158D01*
X94684010Y-70893411D01*
X94846525Y-71136632D01*
X95053368Y-71343475D01*
X95227760Y-71460000D01*
X95053368Y-71576525D01*
X94846525Y-71783368D01*
X94684010Y-72026589D01*
X94572068Y-72296842D01*
X94515000Y-72583740D01*
X94515000Y-72876260D01*
X94572068Y-73163158D01*
X94684010Y-73433411D01*
X94846525Y-73676632D01*
X95053368Y-73883475D01*
X95227760Y-74000000D01*
X95053368Y-74116525D01*
X94846525Y-74323368D01*
X94684010Y-74566589D01*
X94572068Y-74836842D01*
X94515000Y-75123740D01*
X94515000Y-75416260D01*
X94572068Y-75703158D01*
X94684010Y-75973411D01*
X94846525Y-76216632D01*
X95053368Y-76423475D01*
X95227760Y-76540000D01*
X95053368Y-76656525D01*
X94846525Y-76863368D01*
X94684010Y-77106589D01*
X94572068Y-77376842D01*
X94515000Y-77663740D01*
X94515000Y-77956260D01*
X94572068Y-78243158D01*
X94684010Y-78513411D01*
X94846525Y-78756632D01*
X95053368Y-78963475D01*
X95227760Y-79080000D01*
X95053368Y-79196525D01*
X94846525Y-79403368D01*
X94684010Y-79646589D01*
X94572068Y-79916842D01*
X94515000Y-80203740D01*
X94515000Y-80496260D01*
X94572068Y-80783158D01*
X94684010Y-81053411D01*
X94846525Y-81296632D01*
X95053368Y-81503475D01*
X95227760Y-81620000D01*
X95053368Y-81736525D01*
X94846525Y-81943368D01*
X94684010Y-82186589D01*
X94572068Y-82456842D01*
X94515000Y-82743740D01*
X94515000Y-83036260D01*
X94572068Y-83323158D01*
X94684010Y-83593411D01*
X94846525Y-83836632D01*
X95053368Y-84043475D01*
X95227760Y-84160000D01*
X95053368Y-84276525D01*
X94846525Y-84483368D01*
X94684010Y-84726589D01*
X94572068Y-84996842D01*
X94515000Y-85283740D01*
X94515000Y-85576260D01*
X94572068Y-85863158D01*
X94684010Y-86133411D01*
X94846525Y-86376632D01*
X95053368Y-86583475D01*
X95227760Y-86700000D01*
X95053368Y-86816525D01*
X94846525Y-87023368D01*
X94684010Y-87266589D01*
X94572068Y-87536842D01*
X94515000Y-87823740D01*
X94515000Y-88116260D01*
X94572068Y-88403158D01*
X94684010Y-88673411D01*
X94846525Y-88916632D01*
X95053368Y-89123475D01*
X95227760Y-89240000D01*
X95053368Y-89356525D01*
X94846525Y-89563368D01*
X94684010Y-89806589D01*
X94572068Y-90076842D01*
X94515000Y-90363740D01*
X94515000Y-90656260D01*
X94572068Y-90943158D01*
X94684010Y-91213411D01*
X94846525Y-91456632D01*
X95053368Y-91663475D01*
X95227760Y-91780000D01*
X95053368Y-91896525D01*
X94846525Y-92103368D01*
X94684010Y-92346589D01*
X94572068Y-92616842D01*
X94515000Y-92903740D01*
X94515000Y-93196260D01*
X94572068Y-93483158D01*
X94684010Y-93753411D01*
X94846525Y-93996632D01*
X95053368Y-94203475D01*
X95145447Y-94265000D01*
X87956629Y-94265000D01*
X87931898Y-94254756D01*
X87731939Y-94214982D01*
X87528061Y-94214982D01*
X87328102Y-94254756D01*
X87139744Y-94332777D01*
X86970226Y-94446045D01*
X86826063Y-94590208D01*
X86712795Y-94759726D01*
X86634774Y-94948084D01*
X86595000Y-95148043D01*
X85111044Y-95148043D01*
X84805000Y-94842000D01*
X84805000Y-93118000D01*
X86631997Y-91291004D01*
X88851620Y-91291004D01*
X88900000Y-91295769D01*
X88948380Y-91291004D01*
X89093094Y-91276751D01*
X89278767Y-91220428D01*
X89449884Y-91128964D01*
X89599870Y-91005874D01*
X89630716Y-90968288D01*
X92102284Y-88496720D01*
X92139870Y-88465874D01*
X92262960Y-88315888D01*
X92354424Y-88144771D01*
X92410747Y-87959098D01*
X92425000Y-87814384D01*
X92425000Y-87814383D01*
X92429765Y-87766005D01*
X92425000Y-87717627D01*
X92425000Y-54100000D01*
X94511928Y-54100000D01*
X94511928Y-55800000D01*
X94524188Y-55924482D01*
X94560498Y-56044180D01*
X94619463Y-56154494D01*
X94698815Y-56251185D01*
X94795506Y-56330537D01*
X94905820Y-56389502D01*
X94986466Y-56413966D01*
X94902412Y-56489731D01*
X94728359Y-56723080D01*
X94603175Y-56985901D01*
X94558524Y-57133110D01*
X94679845Y-57363000D01*
X95873000Y-57363000D01*
X95873000Y-57343000D01*
X96127000Y-57343000D01*
X96127000Y-57363000D01*
X98433000Y-57363000D01*
X98433000Y-57343000D01*
X98687000Y-57343000D01*
X98687000Y-57363000D01*
X99880155Y-57363000D01*
X100001476Y-57133110D01*
X99956825Y-56985901D01*
X99831641Y-56723080D01*
X99657588Y-56489731D01*
X99573534Y-56413966D01*
X99654180Y-56389502D01*
X99764494Y-56330537D01*
X99861185Y-56251185D01*
X99940537Y-56154494D01*
X99999502Y-56044180D01*
X100035812Y-55924482D01*
X100048072Y-55800000D01*
X100048072Y-54100000D01*
X100035812Y-53975518D01*
X99999502Y-53855820D01*
X99940537Y-53745506D01*
X99861185Y-53648815D01*
X99764494Y-53569463D01*
X99654180Y-53510498D01*
X99534482Y-53474188D01*
X99410000Y-53461928D01*
X97710000Y-53461928D01*
X97585518Y-53474188D01*
X97465820Y-53510498D01*
X97355506Y-53569463D01*
X97280000Y-53631429D01*
X97204494Y-53569463D01*
X97094180Y-53510498D01*
X96974482Y-53474188D01*
X96850000Y-53461928D01*
X95150000Y-53461928D01*
X95025518Y-53474188D01*
X94905820Y-53510498D01*
X94795506Y-53569463D01*
X94698815Y-53648815D01*
X94619463Y-53745506D01*
X94560498Y-53855820D01*
X94524188Y-53975518D01*
X94511928Y-54100000D01*
X92425000Y-54100000D01*
X92425000Y-52396590D01*
X92435226Y-52371902D01*
X92475000Y-52171943D01*
X92475000Y-51968065D01*
X92435226Y-51768106D01*
X92357205Y-51579748D01*
X92243937Y-51410230D01*
X92099774Y-51266067D01*
X91930256Y-51152799D01*
X91741898Y-51074778D01*
X91541939Y-51035004D01*
X91338061Y-51035004D01*
X91138102Y-51074778D01*
X90949744Y-51152799D01*
X90780226Y-51266067D01*
X90636063Y-51410230D01*
X90522795Y-51579748D01*
X90444774Y-51768106D01*
X90405000Y-51968065D01*
X90405000Y-52171943D01*
X90444774Y-52371902D01*
X90455000Y-52396590D01*
X90455000Y-52684068D01*
X90455001Y-52684078D01*
X90455000Y-87358004D01*
X88492000Y-89321004D01*
X86272376Y-89321004D01*
X86223996Y-89316239D01*
X86175616Y-89321004D01*
X86030902Y-89335257D01*
X85845229Y-89391580D01*
X85674112Y-89483044D01*
X85524126Y-89606134D01*
X85493285Y-89643714D01*
X83157711Y-91979289D01*
X83120131Y-92010130D01*
X82997041Y-92160116D01*
X82965169Y-92219744D01*
X82905576Y-92331234D01*
X82849253Y-92516907D01*
X82830235Y-92710000D01*
X74695000Y-92710000D01*
X74695000Y-92608061D01*
X74655226Y-92408102D01*
X74645000Y-92383414D01*
X74645000Y-87956586D01*
X74655226Y-87931898D01*
X74695000Y-87731939D01*
X74695000Y-87528061D01*
X74655226Y-87328102D01*
X74577205Y-87139744D01*
X74463937Y-86970226D01*
X74319774Y-86826063D01*
X74150256Y-86712795D01*
X73961898Y-86634774D01*
X73761939Y-86595000D01*
X73558061Y-86595000D01*
X73358102Y-86634774D01*
X73169744Y-86712795D01*
X73000226Y-86826063D01*
X72856063Y-86970226D01*
X72742795Y-87139744D01*
X72664774Y-87328102D01*
X72625000Y-87528061D01*
X56915000Y-87528061D01*
X56875226Y-87328102D01*
X56865000Y-87303414D01*
X56865000Y-79066586D01*
X56875226Y-79041898D01*
X56915000Y-78841939D01*
X56915000Y-78638061D01*
X56875226Y-78438102D01*
X56797205Y-78249744D01*
X56683937Y-78080226D01*
X56539774Y-77936063D01*
X56370256Y-77822795D01*
X56181898Y-77744774D01*
X55981939Y-77705000D01*
X55778061Y-77705000D01*
X55578102Y-77744774D01*
X55389744Y-77822795D01*
X55220226Y-77936063D01*
X55076063Y-78080226D01*
X54962795Y-78249744D01*
X54884774Y-78438102D01*
X54845000Y-78638061D01*
X53232701Y-78638061D01*
X53315990Y-78513411D01*
X53427932Y-78243158D01*
X53485000Y-77956260D01*
X53485000Y-77663740D01*
X53427932Y-77376842D01*
X53315990Y-77106589D01*
X53153475Y-76863368D01*
X52946632Y-76656525D01*
X52772240Y-76540000D01*
X52946632Y-76423475D01*
X53153475Y-76216632D01*
X53238777Y-76088967D01*
X69115000Y-76088967D01*
X69115000Y-76411033D01*
X69177832Y-76726912D01*
X69301082Y-77024463D01*
X69480013Y-77292252D01*
X69707748Y-77519987D01*
X69975537Y-77698918D01*
X70273088Y-77822168D01*
X70588967Y-77885000D01*
X70911033Y-77885000D01*
X71226912Y-77822168D01*
X71524463Y-77698918D01*
X71792252Y-77519987D01*
X72019987Y-77292252D01*
X72198918Y-77024463D01*
X72322168Y-76726912D01*
X72385000Y-76411033D01*
X72385000Y-76088967D01*
X75615000Y-76088967D01*
X75615000Y-76411033D01*
X75677832Y-76726912D01*
X75801082Y-77024463D01*
X75980013Y-77292252D01*
X76207748Y-77519987D01*
X76475537Y-77698918D01*
X76773088Y-77822168D01*
X77088967Y-77885000D01*
X77411033Y-77885000D01*
X77726912Y-77822168D01*
X78024463Y-77698918D01*
X78292252Y-77519987D01*
X78519987Y-77292252D01*
X78698918Y-77024463D01*
X78822168Y-76726912D01*
X78885000Y-76411033D01*
X78885000Y-76088967D01*
X78822168Y-75773088D01*
X78698918Y-75475537D01*
X78519987Y-75207748D01*
X78292252Y-74980013D01*
X78024463Y-74801082D01*
X77726912Y-74677832D01*
X77411033Y-74615000D01*
X77088967Y-74615000D01*
X76773088Y-74677832D01*
X76475537Y-74801082D01*
X76207748Y-74980013D01*
X75980013Y-75207748D01*
X75801082Y-75475537D01*
X75677832Y-75773088D01*
X75615000Y-76088967D01*
X72385000Y-76088967D01*
X72322168Y-75773088D01*
X72198918Y-75475537D01*
X72019987Y-75207748D01*
X71792252Y-74980013D01*
X71524463Y-74801082D01*
X71226912Y-74677832D01*
X70911033Y-74615000D01*
X70588967Y-74615000D01*
X70273088Y-74677832D01*
X69975537Y-74801082D01*
X69707748Y-74980013D01*
X69480013Y-75207748D01*
X69301082Y-75475537D01*
X69177832Y-75773088D01*
X69115000Y-76088967D01*
X53238777Y-76088967D01*
X53315990Y-75973411D01*
X53427932Y-75703158D01*
X53485000Y-75416260D01*
X53485000Y-75123740D01*
X53427932Y-74836842D01*
X53315990Y-74566589D01*
X53153475Y-74323368D01*
X52946632Y-74116525D01*
X52772240Y-74000000D01*
X52946632Y-73883475D01*
X53153475Y-73676632D01*
X53315990Y-73433411D01*
X53427932Y-73163158D01*
X53485000Y-72876260D01*
X53485000Y-72583740D01*
X53427932Y-72296842D01*
X53424295Y-72288061D01*
X61195000Y-72288061D01*
X61195000Y-72491939D01*
X61234774Y-72691898D01*
X61312795Y-72880256D01*
X61426063Y-73049774D01*
X61570226Y-73193937D01*
X61739744Y-73307205D01*
X61928102Y-73385226D01*
X62128061Y-73425000D01*
X62331939Y-73425000D01*
X62531898Y-73385226D01*
X62556586Y-73375000D01*
X66983414Y-73375000D01*
X67008102Y-73385226D01*
X67208061Y-73425000D01*
X67411939Y-73425000D01*
X67611898Y-73385226D01*
X67800256Y-73307205D01*
X67969774Y-73193937D01*
X68113937Y-73049774D01*
X68227205Y-72880256D01*
X68305226Y-72691898D01*
X68345000Y-72491939D01*
X68345000Y-72288061D01*
X68305226Y-72088102D01*
X68227205Y-71899744D01*
X68113937Y-71730226D01*
X67972678Y-71588967D01*
X69115000Y-71588967D01*
X69115000Y-71911033D01*
X69177832Y-72226912D01*
X69301082Y-72524463D01*
X69480013Y-72792252D01*
X69707748Y-73019987D01*
X69975537Y-73198918D01*
X70273088Y-73322168D01*
X70588967Y-73385000D01*
X70911033Y-73385000D01*
X71226912Y-73322168D01*
X71524463Y-73198918D01*
X71792252Y-73019987D01*
X72019987Y-72792252D01*
X72198918Y-72524463D01*
X72322168Y-72226912D01*
X72385000Y-71911033D01*
X72385000Y-71588967D01*
X75615000Y-71588967D01*
X75615000Y-71911033D01*
X75677832Y-72226912D01*
X75801082Y-72524463D01*
X75980013Y-72792252D01*
X76207748Y-73019987D01*
X76475537Y-73198918D01*
X76773088Y-73322168D01*
X77088967Y-73385000D01*
X77411033Y-73385000D01*
X77726912Y-73322168D01*
X78024463Y-73198918D01*
X78292252Y-73019987D01*
X78519987Y-72792252D01*
X78698918Y-72524463D01*
X78822168Y-72226912D01*
X78885000Y-71911033D01*
X78885000Y-71588967D01*
X78822168Y-71273088D01*
X78698918Y-70975537D01*
X78519987Y-70707748D01*
X78292252Y-70480013D01*
X78024463Y-70301082D01*
X77726912Y-70177832D01*
X77411033Y-70115000D01*
X77088967Y-70115000D01*
X76773088Y-70177832D01*
X76475537Y-70301082D01*
X76207748Y-70480013D01*
X75980013Y-70707748D01*
X75801082Y-70975537D01*
X75677832Y-71273088D01*
X75615000Y-71588967D01*
X72385000Y-71588967D01*
X72322168Y-71273088D01*
X72198918Y-70975537D01*
X72019987Y-70707748D01*
X71792252Y-70480013D01*
X71524463Y-70301082D01*
X71226912Y-70177832D01*
X70911033Y-70115000D01*
X70588967Y-70115000D01*
X70273088Y-70177832D01*
X69975537Y-70301082D01*
X69707748Y-70480013D01*
X69480013Y-70707748D01*
X69301082Y-70975537D01*
X69177832Y-71273088D01*
X69115000Y-71588967D01*
X67972678Y-71588967D01*
X67969774Y-71586063D01*
X67800256Y-71472795D01*
X67611898Y-71394774D01*
X67411939Y-71355000D01*
X67208061Y-71355000D01*
X67008102Y-71394774D01*
X66983414Y-71405000D01*
X62556586Y-71405000D01*
X62531898Y-71394774D01*
X62331939Y-71355000D01*
X62128061Y-71355000D01*
X61928102Y-71394774D01*
X61739744Y-71472795D01*
X61570226Y-71586063D01*
X61426063Y-71730226D01*
X61312795Y-71899744D01*
X61234774Y-72088102D01*
X61195000Y-72288061D01*
X53424295Y-72288061D01*
X53315990Y-72026589D01*
X53153475Y-71783368D01*
X52946632Y-71576525D01*
X52772240Y-71460000D01*
X52946632Y-71343475D01*
X53153475Y-71136632D01*
X53315990Y-70893411D01*
X53427932Y-70623158D01*
X53485000Y-70336260D01*
X53485000Y-70043740D01*
X53427932Y-69756842D01*
X53315990Y-69486589D01*
X53153475Y-69243368D01*
X52946632Y-69036525D01*
X52772240Y-68920000D01*
X52946632Y-68803475D01*
X53153475Y-68596632D01*
X53315990Y-68353411D01*
X53427932Y-68083158D01*
X53485000Y-67796260D01*
X53485000Y-67503740D01*
X53427932Y-67216842D01*
X53315990Y-66946589D01*
X53153475Y-66703368D01*
X52946632Y-66496525D01*
X52772240Y-66380000D01*
X52946632Y-66263475D01*
X53153475Y-66056632D01*
X53315990Y-65813411D01*
X53427932Y-65543158D01*
X53485000Y-65256260D01*
X53485000Y-64963740D01*
X53427932Y-64676842D01*
X53315990Y-64406589D01*
X53153475Y-64163368D01*
X52946632Y-63956525D01*
X52772240Y-63840000D01*
X52946632Y-63723475D01*
X53153475Y-63516632D01*
X53315990Y-63273411D01*
X53427932Y-63003158D01*
X53485000Y-62716260D01*
X53485000Y-62423740D01*
X53427932Y-62136842D01*
X53424295Y-62128061D01*
X72625000Y-62128061D01*
X72625000Y-62331939D01*
X72664774Y-62531898D01*
X72742795Y-62720256D01*
X72856063Y-62889774D01*
X73000226Y-63033937D01*
X73169744Y-63147205D01*
X73358102Y-63225226D01*
X73558061Y-63265000D01*
X73761939Y-63265000D01*
X73961898Y-63225226D01*
X73986586Y-63215000D01*
X83493414Y-63215000D01*
X83518102Y-63225226D01*
X83718061Y-63265000D01*
X83921939Y-63265000D01*
X84121898Y-63225226D01*
X84310256Y-63147205D01*
X84479774Y-63033937D01*
X84623937Y-62889774D01*
X84737205Y-62720256D01*
X84815226Y-62531898D01*
X84855000Y-62331939D01*
X84855000Y-62128061D01*
X84815226Y-61928102D01*
X84737205Y-61739744D01*
X84623937Y-61570226D01*
X84479774Y-61426063D01*
X84310256Y-61312795D01*
X84121898Y-61234774D01*
X83921939Y-61195000D01*
X83718061Y-61195000D01*
X83518102Y-61234774D01*
X83493414Y-61245000D01*
X73986586Y-61245000D01*
X73961898Y-61234774D01*
X73761939Y-61195000D01*
X73558061Y-61195000D01*
X73358102Y-61234774D01*
X73169744Y-61312795D01*
X73000226Y-61426063D01*
X72856063Y-61570226D01*
X72742795Y-61739744D01*
X72664774Y-61928102D01*
X72625000Y-62128061D01*
X53424295Y-62128061D01*
X53315990Y-61866589D01*
X53153475Y-61623368D01*
X52946632Y-61416525D01*
X52772240Y-61300000D01*
X52946632Y-61183475D01*
X53153475Y-60976632D01*
X53315990Y-60733411D01*
X53427932Y-60463158D01*
X53485000Y-60176260D01*
X53485000Y-59883740D01*
X53427932Y-59596842D01*
X53315990Y-59326589D01*
X53153475Y-59083368D01*
X52946632Y-58876525D01*
X52764466Y-58754805D01*
X52881355Y-58685178D01*
X53097588Y-58490269D01*
X53271641Y-58256920D01*
X53396825Y-57994099D01*
X53441476Y-57846890D01*
X53320155Y-57617000D01*
X52127000Y-57617000D01*
X52127000Y-57637000D01*
X51873000Y-57637000D01*
X51873000Y-57617000D01*
X49587000Y-57617000D01*
X49587000Y-57637000D01*
X49333000Y-57637000D01*
X49333000Y-57617000D01*
X48139845Y-57617000D01*
X48018524Y-57846890D01*
X48063175Y-57994099D01*
X48188359Y-58256920D01*
X48362412Y-58490269D01*
X48578645Y-58685178D01*
X48695534Y-58754805D01*
X48513368Y-58876525D01*
X48306525Y-59083368D01*
X48144010Y-59326589D01*
X48032068Y-59596842D01*
X47975000Y-59883740D01*
X46674981Y-59883740D01*
X40891241Y-54100000D01*
X47971928Y-54100000D01*
X47971928Y-55800000D01*
X47984188Y-55924482D01*
X48020498Y-56044180D01*
X48079463Y-56154494D01*
X48158815Y-56251185D01*
X48255506Y-56330537D01*
X48365820Y-56389502D01*
X48446466Y-56413966D01*
X48362412Y-56489731D01*
X48188359Y-56723080D01*
X48063175Y-56985901D01*
X48018524Y-57133110D01*
X48139845Y-57363000D01*
X49333000Y-57363000D01*
X49333000Y-57343000D01*
X49587000Y-57343000D01*
X49587000Y-57363000D01*
X51873000Y-57363000D01*
X51873000Y-57343000D01*
X52127000Y-57343000D01*
X52127000Y-57363000D01*
X53320155Y-57363000D01*
X53441476Y-57133110D01*
X53396825Y-56985901D01*
X53271641Y-56723080D01*
X53097588Y-56489731D01*
X53013534Y-56413966D01*
X53094180Y-56389502D01*
X53204494Y-56330537D01*
X53301185Y-56251185D01*
X53380537Y-56154494D01*
X53439502Y-56044180D01*
X53475812Y-55924482D01*
X53488072Y-55800000D01*
X53488072Y-54100000D01*
X53475812Y-53975518D01*
X53439502Y-53855820D01*
X53380537Y-53745506D01*
X53301185Y-53648815D01*
X53204494Y-53569463D01*
X53094180Y-53510498D01*
X52974482Y-53474188D01*
X52850000Y-53461928D01*
X51150000Y-53461928D01*
X51025518Y-53474188D01*
X50905820Y-53510498D01*
X50795506Y-53569463D01*
X50730000Y-53623222D01*
X50664494Y-53569463D01*
X50554180Y-53510498D01*
X50434482Y-53474188D01*
X50310000Y-53461928D01*
X48610000Y-53461928D01*
X48485518Y-53474188D01*
X48365820Y-53510498D01*
X48255506Y-53569463D01*
X48158815Y-53648815D01*
X48079463Y-53745506D01*
X48020498Y-53855820D01*
X47984188Y-53975518D01*
X47971928Y-54100000D01*
X40891241Y-54100000D01*
X38759302Y-51968061D01*
X47225000Y-51968061D01*
X47225000Y-52171939D01*
X47264774Y-52371898D01*
X47342795Y-52560256D01*
X47456063Y-52729774D01*
X47600226Y-52873937D01*
X47769744Y-52987205D01*
X47958102Y-53065226D01*
X48158061Y-53105000D01*
X48361939Y-53105000D01*
X48561898Y-53065226D01*
X48586586Y-53055000D01*
X55553414Y-53055000D01*
X55578102Y-53065226D01*
X55778061Y-53105000D01*
X55981939Y-53105000D01*
X56181898Y-53065226D01*
X56370256Y-52987205D01*
X56539774Y-52873937D01*
X56683937Y-52729774D01*
X56797205Y-52560256D01*
X56875226Y-52371898D01*
X56915000Y-52171939D01*
X56915000Y-51968061D01*
X56875226Y-51768102D01*
X56797205Y-51579744D01*
X56683937Y-51410226D01*
X56539774Y-51266063D01*
X56370256Y-51152795D01*
X56181898Y-51074774D01*
X55981939Y-51035000D01*
X55778061Y-51035000D01*
X55578102Y-51074774D01*
X55553414Y-51085000D01*
X48586586Y-51085000D01*
X48561898Y-51074774D01*
X48361939Y-51035000D01*
X48158061Y-51035000D01*
X47958102Y-51074774D01*
X47769744Y-51152795D01*
X47600226Y-51266063D01*
X47456063Y-51410226D01*
X47342795Y-51579744D01*
X47264774Y-51768102D01*
X47225000Y-51968061D01*
X38759302Y-51968061D01*
X24933380Y-38142140D01*
X38142140Y-24933380D01*
X60652528Y-47443769D01*
M02*
