G04 #@! TF.GenerationSoftware,KiCad,Pcbnew,5.1.5+dfsg1-2build2*
G04 #@! TF.CreationDate,2021-03-04T14:35:20-05:00*
G04 #@! TF.ProjectId,leveling_package,6c657665-6c69-46e6-975f-7061636b6167,rev?*
G04 #@! TF.SameCoordinates,Original*
G04 #@! TF.FileFunction,Copper,L1,Top*
G04 #@! TF.FilePolarity,Positive*
%FSLAX46Y46*%
G04 Gerber Fmt 4.6, Leading zero omitted, Abs format (unit mm)*
G04 Created by KiCad (PCBNEW 5.1.5+dfsg1-2build2) date 2021-03-04 14:35:20*
%MOMM*%
%LPD*%
G04 APERTURE LIST*
%ADD10R,1.500000X1.000000*%
%ADD11C,0.100000*%
%ADD12R,0.900000X0.800000*%
%ADD13C,2.000000*%
%ADD14O,1.700000X1.700000*%
%ADD15R,1.700000X1.700000*%
G04 APERTURE END LIST*
D10*
X114390000Y-28880000D03*
X114390000Y-32080000D03*
X119290000Y-28880000D03*
X119290000Y-32080000D03*
X101690000Y-42850000D03*
X101690000Y-46050000D03*
X106590000Y-42850000D03*
X106590000Y-46050000D03*
X29300000Y-28880000D03*
X29300000Y-32080000D03*
X34200000Y-28880000D03*
X34200000Y-32080000D03*
X42000000Y-42850000D03*
X42000000Y-46050000D03*
X46900000Y-42850000D03*
X46900000Y-46050000D03*
X114390000Y-115240000D03*
X114390000Y-118440000D03*
X119290000Y-115240000D03*
X119290000Y-118440000D03*
X97880000Y-97460000D03*
X97880000Y-100660000D03*
X102780000Y-97460000D03*
X102780000Y-100660000D03*
X29300000Y-115240000D03*
X29300000Y-118440000D03*
X34200000Y-115240000D03*
X34200000Y-118440000D03*
X45810000Y-97460000D03*
X45810000Y-100660000D03*
X50710000Y-97460000D03*
X50710000Y-100660000D03*
X71210000Y-79680000D03*
X71210000Y-82880000D03*
X76110000Y-79680000D03*
X76110000Y-82880000D03*
G04 #@! TA.AperFunction,SMDPad,CuDef*
D11*
G36*
X76304505Y-55181204D02*
G01*
X76328773Y-55184804D01*
X76352572Y-55190765D01*
X76375671Y-55199030D01*
X76397850Y-55209520D01*
X76418893Y-55222132D01*
X76438599Y-55236747D01*
X76456777Y-55253223D01*
X76473253Y-55271401D01*
X76487868Y-55291107D01*
X76500480Y-55312150D01*
X76510970Y-55334329D01*
X76519235Y-55357428D01*
X76525196Y-55381227D01*
X76528796Y-55405495D01*
X76530000Y-55429999D01*
X76530000Y-56330001D01*
X76528796Y-56354505D01*
X76525196Y-56378773D01*
X76519235Y-56402572D01*
X76510970Y-56425671D01*
X76500480Y-56447850D01*
X76487868Y-56468893D01*
X76473253Y-56488599D01*
X76456777Y-56506777D01*
X76438599Y-56523253D01*
X76418893Y-56537868D01*
X76397850Y-56550480D01*
X76375671Y-56560970D01*
X76352572Y-56569235D01*
X76328773Y-56575196D01*
X76304505Y-56578796D01*
X76280001Y-56580000D01*
X75629999Y-56580000D01*
X75605495Y-56578796D01*
X75581227Y-56575196D01*
X75557428Y-56569235D01*
X75534329Y-56560970D01*
X75512150Y-56550480D01*
X75491107Y-56537868D01*
X75471401Y-56523253D01*
X75453223Y-56506777D01*
X75436747Y-56488599D01*
X75422132Y-56468893D01*
X75409520Y-56447850D01*
X75399030Y-56425671D01*
X75390765Y-56402572D01*
X75384804Y-56378773D01*
X75381204Y-56354505D01*
X75380000Y-56330001D01*
X75380000Y-55429999D01*
X75381204Y-55405495D01*
X75384804Y-55381227D01*
X75390765Y-55357428D01*
X75399030Y-55334329D01*
X75409520Y-55312150D01*
X75422132Y-55291107D01*
X75436747Y-55271401D01*
X75453223Y-55253223D01*
X75471401Y-55236747D01*
X75491107Y-55222132D01*
X75512150Y-55209520D01*
X75534329Y-55199030D01*
X75557428Y-55190765D01*
X75581227Y-55184804D01*
X75605495Y-55181204D01*
X75629999Y-55180000D01*
X76280001Y-55180000D01*
X76304505Y-55181204D01*
G37*
G04 #@! TD.AperFunction*
G04 #@! TA.AperFunction,SMDPad,CuDef*
G36*
X74254505Y-55181204D02*
G01*
X74278773Y-55184804D01*
X74302572Y-55190765D01*
X74325671Y-55199030D01*
X74347850Y-55209520D01*
X74368893Y-55222132D01*
X74388599Y-55236747D01*
X74406777Y-55253223D01*
X74423253Y-55271401D01*
X74437868Y-55291107D01*
X74450480Y-55312150D01*
X74460970Y-55334329D01*
X74469235Y-55357428D01*
X74475196Y-55381227D01*
X74478796Y-55405495D01*
X74480000Y-55429999D01*
X74480000Y-56330001D01*
X74478796Y-56354505D01*
X74475196Y-56378773D01*
X74469235Y-56402572D01*
X74460970Y-56425671D01*
X74450480Y-56447850D01*
X74437868Y-56468893D01*
X74423253Y-56488599D01*
X74406777Y-56506777D01*
X74388599Y-56523253D01*
X74368893Y-56537868D01*
X74347850Y-56550480D01*
X74325671Y-56560970D01*
X74302572Y-56569235D01*
X74278773Y-56575196D01*
X74254505Y-56578796D01*
X74230001Y-56580000D01*
X73579999Y-56580000D01*
X73555495Y-56578796D01*
X73531227Y-56575196D01*
X73507428Y-56569235D01*
X73484329Y-56560970D01*
X73462150Y-56550480D01*
X73441107Y-56537868D01*
X73421401Y-56523253D01*
X73403223Y-56506777D01*
X73386747Y-56488599D01*
X73372132Y-56468893D01*
X73359520Y-56447850D01*
X73349030Y-56425671D01*
X73340765Y-56402572D01*
X73334804Y-56378773D01*
X73331204Y-56354505D01*
X73330000Y-56330001D01*
X73330000Y-55429999D01*
X73331204Y-55405495D01*
X73334804Y-55381227D01*
X73340765Y-55357428D01*
X73349030Y-55334329D01*
X73359520Y-55312150D01*
X73372132Y-55291107D01*
X73386747Y-55271401D01*
X73403223Y-55253223D01*
X73421401Y-55236747D01*
X73441107Y-55222132D01*
X73462150Y-55209520D01*
X73484329Y-55199030D01*
X73507428Y-55190765D01*
X73531227Y-55184804D01*
X73555495Y-55181204D01*
X73579999Y-55180000D01*
X74230001Y-55180000D01*
X74254505Y-55181204D01*
G37*
G04 #@! TD.AperFunction*
G04 #@! TA.AperFunction,SMDPad,CuDef*
G36*
X68684505Y-55181204D02*
G01*
X68708773Y-55184804D01*
X68732572Y-55190765D01*
X68755671Y-55199030D01*
X68777850Y-55209520D01*
X68798893Y-55222132D01*
X68818599Y-55236747D01*
X68836777Y-55253223D01*
X68853253Y-55271401D01*
X68867868Y-55291107D01*
X68880480Y-55312150D01*
X68890970Y-55334329D01*
X68899235Y-55357428D01*
X68905196Y-55381227D01*
X68908796Y-55405495D01*
X68910000Y-55429999D01*
X68910000Y-56330001D01*
X68908796Y-56354505D01*
X68905196Y-56378773D01*
X68899235Y-56402572D01*
X68890970Y-56425671D01*
X68880480Y-56447850D01*
X68867868Y-56468893D01*
X68853253Y-56488599D01*
X68836777Y-56506777D01*
X68818599Y-56523253D01*
X68798893Y-56537868D01*
X68777850Y-56550480D01*
X68755671Y-56560970D01*
X68732572Y-56569235D01*
X68708773Y-56575196D01*
X68684505Y-56578796D01*
X68660001Y-56580000D01*
X68009999Y-56580000D01*
X67985495Y-56578796D01*
X67961227Y-56575196D01*
X67937428Y-56569235D01*
X67914329Y-56560970D01*
X67892150Y-56550480D01*
X67871107Y-56537868D01*
X67851401Y-56523253D01*
X67833223Y-56506777D01*
X67816747Y-56488599D01*
X67802132Y-56468893D01*
X67789520Y-56447850D01*
X67779030Y-56425671D01*
X67770765Y-56402572D01*
X67764804Y-56378773D01*
X67761204Y-56354505D01*
X67760000Y-56330001D01*
X67760000Y-55429999D01*
X67761204Y-55405495D01*
X67764804Y-55381227D01*
X67770765Y-55357428D01*
X67779030Y-55334329D01*
X67789520Y-55312150D01*
X67802132Y-55291107D01*
X67816747Y-55271401D01*
X67833223Y-55253223D01*
X67851401Y-55236747D01*
X67871107Y-55222132D01*
X67892150Y-55209520D01*
X67914329Y-55199030D01*
X67937428Y-55190765D01*
X67961227Y-55184804D01*
X67985495Y-55181204D01*
X68009999Y-55180000D01*
X68660001Y-55180000D01*
X68684505Y-55181204D01*
G37*
G04 #@! TD.AperFunction*
G04 #@! TA.AperFunction,SMDPad,CuDef*
G36*
X66634505Y-55181204D02*
G01*
X66658773Y-55184804D01*
X66682572Y-55190765D01*
X66705671Y-55199030D01*
X66727850Y-55209520D01*
X66748893Y-55222132D01*
X66768599Y-55236747D01*
X66786777Y-55253223D01*
X66803253Y-55271401D01*
X66817868Y-55291107D01*
X66830480Y-55312150D01*
X66840970Y-55334329D01*
X66849235Y-55357428D01*
X66855196Y-55381227D01*
X66858796Y-55405495D01*
X66860000Y-55429999D01*
X66860000Y-56330001D01*
X66858796Y-56354505D01*
X66855196Y-56378773D01*
X66849235Y-56402572D01*
X66840970Y-56425671D01*
X66830480Y-56447850D01*
X66817868Y-56468893D01*
X66803253Y-56488599D01*
X66786777Y-56506777D01*
X66768599Y-56523253D01*
X66748893Y-56537868D01*
X66727850Y-56550480D01*
X66705671Y-56560970D01*
X66682572Y-56569235D01*
X66658773Y-56575196D01*
X66634505Y-56578796D01*
X66610001Y-56580000D01*
X65959999Y-56580000D01*
X65935495Y-56578796D01*
X65911227Y-56575196D01*
X65887428Y-56569235D01*
X65864329Y-56560970D01*
X65842150Y-56550480D01*
X65821107Y-56537868D01*
X65801401Y-56523253D01*
X65783223Y-56506777D01*
X65766747Y-56488599D01*
X65752132Y-56468893D01*
X65739520Y-56447850D01*
X65729030Y-56425671D01*
X65720765Y-56402572D01*
X65714804Y-56378773D01*
X65711204Y-56354505D01*
X65710000Y-56330001D01*
X65710000Y-55429999D01*
X65711204Y-55405495D01*
X65714804Y-55381227D01*
X65720765Y-55357428D01*
X65729030Y-55334329D01*
X65739520Y-55312150D01*
X65752132Y-55291107D01*
X65766747Y-55271401D01*
X65783223Y-55253223D01*
X65801401Y-55236747D01*
X65821107Y-55222132D01*
X65842150Y-55209520D01*
X65864329Y-55199030D01*
X65887428Y-55190765D01*
X65911227Y-55184804D01*
X65935495Y-55181204D01*
X65959999Y-55180000D01*
X66610001Y-55180000D01*
X66634505Y-55181204D01*
G37*
G04 #@! TD.AperFunction*
D12*
X83550000Y-57150000D03*
X81550000Y-58100000D03*
X81550000Y-56200000D03*
G04 #@! TA.AperFunction,SMDPad,CuDef*
D11*
G36*
X90644505Y-70301204D02*
G01*
X90668773Y-70304804D01*
X90692572Y-70310765D01*
X90715671Y-70319030D01*
X90737850Y-70329520D01*
X90758893Y-70342132D01*
X90778599Y-70356747D01*
X90796777Y-70373223D01*
X90813253Y-70391401D01*
X90827868Y-70411107D01*
X90840480Y-70432150D01*
X90850970Y-70454329D01*
X90859235Y-70477428D01*
X90865196Y-70501227D01*
X90868796Y-70525495D01*
X90870000Y-70549999D01*
X90870000Y-71200001D01*
X90868796Y-71224505D01*
X90865196Y-71248773D01*
X90859235Y-71272572D01*
X90850970Y-71295671D01*
X90840480Y-71317850D01*
X90827868Y-71338893D01*
X90813253Y-71358599D01*
X90796777Y-71376777D01*
X90778599Y-71393253D01*
X90758893Y-71407868D01*
X90737850Y-71420480D01*
X90715671Y-71430970D01*
X90692572Y-71439235D01*
X90668773Y-71445196D01*
X90644505Y-71448796D01*
X90620001Y-71450000D01*
X89719999Y-71450000D01*
X89695495Y-71448796D01*
X89671227Y-71445196D01*
X89647428Y-71439235D01*
X89624329Y-71430970D01*
X89602150Y-71420480D01*
X89581107Y-71407868D01*
X89561401Y-71393253D01*
X89543223Y-71376777D01*
X89526747Y-71358599D01*
X89512132Y-71338893D01*
X89499520Y-71317850D01*
X89489030Y-71295671D01*
X89480765Y-71272572D01*
X89474804Y-71248773D01*
X89471204Y-71224505D01*
X89470000Y-71200001D01*
X89470000Y-70549999D01*
X89471204Y-70525495D01*
X89474804Y-70501227D01*
X89480765Y-70477428D01*
X89489030Y-70454329D01*
X89499520Y-70432150D01*
X89512132Y-70411107D01*
X89526747Y-70391401D01*
X89543223Y-70373223D01*
X89561401Y-70356747D01*
X89581107Y-70342132D01*
X89602150Y-70329520D01*
X89624329Y-70319030D01*
X89647428Y-70310765D01*
X89671227Y-70304804D01*
X89695495Y-70301204D01*
X89719999Y-70300000D01*
X90620001Y-70300000D01*
X90644505Y-70301204D01*
G37*
G04 #@! TD.AperFunction*
G04 #@! TA.AperFunction,SMDPad,CuDef*
G36*
X90644505Y-68251204D02*
G01*
X90668773Y-68254804D01*
X90692572Y-68260765D01*
X90715671Y-68269030D01*
X90737850Y-68279520D01*
X90758893Y-68292132D01*
X90778599Y-68306747D01*
X90796777Y-68323223D01*
X90813253Y-68341401D01*
X90827868Y-68361107D01*
X90840480Y-68382150D01*
X90850970Y-68404329D01*
X90859235Y-68427428D01*
X90865196Y-68451227D01*
X90868796Y-68475495D01*
X90870000Y-68499999D01*
X90870000Y-69150001D01*
X90868796Y-69174505D01*
X90865196Y-69198773D01*
X90859235Y-69222572D01*
X90850970Y-69245671D01*
X90840480Y-69267850D01*
X90827868Y-69288893D01*
X90813253Y-69308599D01*
X90796777Y-69326777D01*
X90778599Y-69343253D01*
X90758893Y-69357868D01*
X90737850Y-69370480D01*
X90715671Y-69380970D01*
X90692572Y-69389235D01*
X90668773Y-69395196D01*
X90644505Y-69398796D01*
X90620001Y-69400000D01*
X89719999Y-69400000D01*
X89695495Y-69398796D01*
X89671227Y-69395196D01*
X89647428Y-69389235D01*
X89624329Y-69380970D01*
X89602150Y-69370480D01*
X89581107Y-69357868D01*
X89561401Y-69343253D01*
X89543223Y-69326777D01*
X89526747Y-69308599D01*
X89512132Y-69288893D01*
X89499520Y-69267850D01*
X89489030Y-69245671D01*
X89480765Y-69222572D01*
X89474804Y-69198773D01*
X89471204Y-69174505D01*
X89470000Y-69150001D01*
X89470000Y-68499999D01*
X89471204Y-68475495D01*
X89474804Y-68451227D01*
X89480765Y-68427428D01*
X89489030Y-68404329D01*
X89499520Y-68382150D01*
X89512132Y-68361107D01*
X89526747Y-68341401D01*
X89543223Y-68323223D01*
X89561401Y-68306747D01*
X89581107Y-68292132D01*
X89602150Y-68279520D01*
X89624329Y-68269030D01*
X89647428Y-68260765D01*
X89671227Y-68254804D01*
X89695495Y-68251204D01*
X89719999Y-68250000D01*
X90620001Y-68250000D01*
X90644505Y-68251204D01*
G37*
G04 #@! TD.AperFunction*
D13*
X77250000Y-71750000D03*
X77250000Y-76250000D03*
X70750000Y-71750000D03*
X70750000Y-76250000D03*
D10*
X71210000Y-64440000D03*
X71210000Y-67640000D03*
X76110000Y-64440000D03*
X76110000Y-67640000D03*
D14*
X96000000Y-93050000D03*
X96000000Y-90510000D03*
X96000000Y-87970000D03*
X96000000Y-85430000D03*
X96000000Y-82890000D03*
X96000000Y-80350000D03*
X96000000Y-77810000D03*
X96000000Y-75270000D03*
X96000000Y-72730000D03*
X96000000Y-70190000D03*
X96000000Y-67650000D03*
X96000000Y-65110000D03*
X96000000Y-62570000D03*
X96000000Y-60030000D03*
X96000000Y-57490000D03*
D15*
X96000000Y-54950000D03*
D14*
X52000000Y-93050000D03*
X52000000Y-90510000D03*
X52000000Y-87970000D03*
X52000000Y-85430000D03*
X52000000Y-82890000D03*
X52000000Y-80350000D03*
X52000000Y-77810000D03*
X52000000Y-75270000D03*
X52000000Y-72730000D03*
X52000000Y-70190000D03*
X52000000Y-67650000D03*
X52000000Y-65110000D03*
X52000000Y-62570000D03*
X52000000Y-60030000D03*
X52000000Y-57490000D03*
D15*
X52000000Y-54950000D03*
M02*
