G04 #@! TF.GenerationSoftware,KiCad,Pcbnew,5.1.5+dfsg1-2build2*
G04 #@! TF.CreationDate,2021-03-04T14:35:20-05:00*
G04 #@! TF.ProjectId,leveling_package,6c657665-6c69-46e6-975f-7061636b6167,rev?*
G04 #@! TF.SameCoordinates,Original*
G04 #@! TF.FileFunction,Soldermask,Top*
G04 #@! TF.FilePolarity,Negative*
%FSLAX46Y46*%
G04 Gerber Fmt 4.6, Leading zero omitted, Abs format (unit mm)*
G04 Created by KiCad (PCBNEW 5.1.5+dfsg1-2build2) date 2021-03-04 14:35:20*
%MOMM*%
%LPD*%
G04 APERTURE LIST*
%ADD10C,0.100000*%
G04 APERTURE END LIST*
D10*
G36*
X35001000Y-118991000D02*
G01*
X33399000Y-118991000D01*
X33399000Y-117889000D01*
X35001000Y-117889000D01*
X35001000Y-118991000D01*
G37*
G36*
X115191000Y-118991000D02*
G01*
X113589000Y-118991000D01*
X113589000Y-117889000D01*
X115191000Y-117889000D01*
X115191000Y-118991000D01*
G37*
G36*
X120091000Y-118991000D02*
G01*
X118489000Y-118991000D01*
X118489000Y-117889000D01*
X120091000Y-117889000D01*
X120091000Y-118991000D01*
G37*
G36*
X30101000Y-118991000D02*
G01*
X28499000Y-118991000D01*
X28499000Y-117889000D01*
X30101000Y-117889000D01*
X30101000Y-118991000D01*
G37*
G36*
X115191000Y-115791000D02*
G01*
X113589000Y-115791000D01*
X113589000Y-114689000D01*
X115191000Y-114689000D01*
X115191000Y-115791000D01*
G37*
G36*
X120091000Y-115791000D02*
G01*
X118489000Y-115791000D01*
X118489000Y-114689000D01*
X120091000Y-114689000D01*
X120091000Y-115791000D01*
G37*
G36*
X35001000Y-115791000D02*
G01*
X33399000Y-115791000D01*
X33399000Y-114689000D01*
X35001000Y-114689000D01*
X35001000Y-115791000D01*
G37*
G36*
X30101000Y-115791000D02*
G01*
X28499000Y-115791000D01*
X28499000Y-114689000D01*
X30101000Y-114689000D01*
X30101000Y-115791000D01*
G37*
G36*
X51511000Y-101211000D02*
G01*
X49909000Y-101211000D01*
X49909000Y-100109000D01*
X51511000Y-100109000D01*
X51511000Y-101211000D01*
G37*
G36*
X46611000Y-101211000D02*
G01*
X45009000Y-101211000D01*
X45009000Y-100109000D01*
X46611000Y-100109000D01*
X46611000Y-101211000D01*
G37*
G36*
X103581000Y-101211000D02*
G01*
X101979000Y-101211000D01*
X101979000Y-100109000D01*
X103581000Y-100109000D01*
X103581000Y-101211000D01*
G37*
G36*
X98681000Y-101211000D02*
G01*
X97079000Y-101211000D01*
X97079000Y-100109000D01*
X98681000Y-100109000D01*
X98681000Y-101211000D01*
G37*
G36*
X46611000Y-98011000D02*
G01*
X45009000Y-98011000D01*
X45009000Y-96909000D01*
X46611000Y-96909000D01*
X46611000Y-98011000D01*
G37*
G36*
X103581000Y-98011000D02*
G01*
X101979000Y-98011000D01*
X101979000Y-96909000D01*
X103581000Y-96909000D01*
X103581000Y-98011000D01*
G37*
G36*
X51511000Y-98011000D02*
G01*
X49909000Y-98011000D01*
X49909000Y-96909000D01*
X51511000Y-96909000D01*
X51511000Y-98011000D01*
G37*
G36*
X98681000Y-98011000D02*
G01*
X97079000Y-98011000D01*
X97079000Y-96909000D01*
X98681000Y-96909000D01*
X98681000Y-98011000D01*
G37*
G36*
X52113512Y-92153927D02*
G01*
X52262812Y-92183624D01*
X52426784Y-92251544D01*
X52574354Y-92350147D01*
X52699853Y-92475646D01*
X52798456Y-92623216D01*
X52866376Y-92787188D01*
X52901000Y-92961259D01*
X52901000Y-93138741D01*
X52866376Y-93312812D01*
X52798456Y-93476784D01*
X52699853Y-93624354D01*
X52574354Y-93749853D01*
X52426784Y-93848456D01*
X52262812Y-93916376D01*
X52113512Y-93946073D01*
X52088742Y-93951000D01*
X51911258Y-93951000D01*
X51886488Y-93946073D01*
X51737188Y-93916376D01*
X51573216Y-93848456D01*
X51425646Y-93749853D01*
X51300147Y-93624354D01*
X51201544Y-93476784D01*
X51133624Y-93312812D01*
X51099000Y-93138741D01*
X51099000Y-92961259D01*
X51133624Y-92787188D01*
X51201544Y-92623216D01*
X51300147Y-92475646D01*
X51425646Y-92350147D01*
X51573216Y-92251544D01*
X51737188Y-92183624D01*
X51886488Y-92153927D01*
X51911258Y-92149000D01*
X52088742Y-92149000D01*
X52113512Y-92153927D01*
G37*
G36*
X96113512Y-92153927D02*
G01*
X96262812Y-92183624D01*
X96426784Y-92251544D01*
X96574354Y-92350147D01*
X96699853Y-92475646D01*
X96798456Y-92623216D01*
X96866376Y-92787188D01*
X96901000Y-92961259D01*
X96901000Y-93138741D01*
X96866376Y-93312812D01*
X96798456Y-93476784D01*
X96699853Y-93624354D01*
X96574354Y-93749853D01*
X96426784Y-93848456D01*
X96262812Y-93916376D01*
X96113512Y-93946073D01*
X96088742Y-93951000D01*
X95911258Y-93951000D01*
X95886488Y-93946073D01*
X95737188Y-93916376D01*
X95573216Y-93848456D01*
X95425646Y-93749853D01*
X95300147Y-93624354D01*
X95201544Y-93476784D01*
X95133624Y-93312812D01*
X95099000Y-93138741D01*
X95099000Y-92961259D01*
X95133624Y-92787188D01*
X95201544Y-92623216D01*
X95300147Y-92475646D01*
X95425646Y-92350147D01*
X95573216Y-92251544D01*
X95737188Y-92183624D01*
X95886488Y-92153927D01*
X95911258Y-92149000D01*
X96088742Y-92149000D01*
X96113512Y-92153927D01*
G37*
G36*
X52113512Y-89613927D02*
G01*
X52262812Y-89643624D01*
X52426784Y-89711544D01*
X52574354Y-89810147D01*
X52699853Y-89935646D01*
X52798456Y-90083216D01*
X52866376Y-90247188D01*
X52901000Y-90421259D01*
X52901000Y-90598741D01*
X52866376Y-90772812D01*
X52798456Y-90936784D01*
X52699853Y-91084354D01*
X52574354Y-91209853D01*
X52426784Y-91308456D01*
X52262812Y-91376376D01*
X52113512Y-91406073D01*
X52088742Y-91411000D01*
X51911258Y-91411000D01*
X51886488Y-91406073D01*
X51737188Y-91376376D01*
X51573216Y-91308456D01*
X51425646Y-91209853D01*
X51300147Y-91084354D01*
X51201544Y-90936784D01*
X51133624Y-90772812D01*
X51099000Y-90598741D01*
X51099000Y-90421259D01*
X51133624Y-90247188D01*
X51201544Y-90083216D01*
X51300147Y-89935646D01*
X51425646Y-89810147D01*
X51573216Y-89711544D01*
X51737188Y-89643624D01*
X51886488Y-89613927D01*
X51911258Y-89609000D01*
X52088742Y-89609000D01*
X52113512Y-89613927D01*
G37*
G36*
X96113512Y-89613927D02*
G01*
X96262812Y-89643624D01*
X96426784Y-89711544D01*
X96574354Y-89810147D01*
X96699853Y-89935646D01*
X96798456Y-90083216D01*
X96866376Y-90247188D01*
X96901000Y-90421259D01*
X96901000Y-90598741D01*
X96866376Y-90772812D01*
X96798456Y-90936784D01*
X96699853Y-91084354D01*
X96574354Y-91209853D01*
X96426784Y-91308456D01*
X96262812Y-91376376D01*
X96113512Y-91406073D01*
X96088742Y-91411000D01*
X95911258Y-91411000D01*
X95886488Y-91406073D01*
X95737188Y-91376376D01*
X95573216Y-91308456D01*
X95425646Y-91209853D01*
X95300147Y-91084354D01*
X95201544Y-90936784D01*
X95133624Y-90772812D01*
X95099000Y-90598741D01*
X95099000Y-90421259D01*
X95133624Y-90247188D01*
X95201544Y-90083216D01*
X95300147Y-89935646D01*
X95425646Y-89810147D01*
X95573216Y-89711544D01*
X95737188Y-89643624D01*
X95886488Y-89613927D01*
X95911258Y-89609000D01*
X96088742Y-89609000D01*
X96113512Y-89613927D01*
G37*
G36*
X96113512Y-87073927D02*
G01*
X96262812Y-87103624D01*
X96426784Y-87171544D01*
X96574354Y-87270147D01*
X96699853Y-87395646D01*
X96798456Y-87543216D01*
X96866376Y-87707188D01*
X96901000Y-87881259D01*
X96901000Y-88058741D01*
X96866376Y-88232812D01*
X96798456Y-88396784D01*
X96699853Y-88544354D01*
X96574354Y-88669853D01*
X96426784Y-88768456D01*
X96262812Y-88836376D01*
X96113512Y-88866073D01*
X96088742Y-88871000D01*
X95911258Y-88871000D01*
X95886488Y-88866073D01*
X95737188Y-88836376D01*
X95573216Y-88768456D01*
X95425646Y-88669853D01*
X95300147Y-88544354D01*
X95201544Y-88396784D01*
X95133624Y-88232812D01*
X95099000Y-88058741D01*
X95099000Y-87881259D01*
X95133624Y-87707188D01*
X95201544Y-87543216D01*
X95300147Y-87395646D01*
X95425646Y-87270147D01*
X95573216Y-87171544D01*
X95737188Y-87103624D01*
X95886488Y-87073927D01*
X95911258Y-87069000D01*
X96088742Y-87069000D01*
X96113512Y-87073927D01*
G37*
G36*
X52113512Y-87073927D02*
G01*
X52262812Y-87103624D01*
X52426784Y-87171544D01*
X52574354Y-87270147D01*
X52699853Y-87395646D01*
X52798456Y-87543216D01*
X52866376Y-87707188D01*
X52901000Y-87881259D01*
X52901000Y-88058741D01*
X52866376Y-88232812D01*
X52798456Y-88396784D01*
X52699853Y-88544354D01*
X52574354Y-88669853D01*
X52426784Y-88768456D01*
X52262812Y-88836376D01*
X52113512Y-88866073D01*
X52088742Y-88871000D01*
X51911258Y-88871000D01*
X51886488Y-88866073D01*
X51737188Y-88836376D01*
X51573216Y-88768456D01*
X51425646Y-88669853D01*
X51300147Y-88544354D01*
X51201544Y-88396784D01*
X51133624Y-88232812D01*
X51099000Y-88058741D01*
X51099000Y-87881259D01*
X51133624Y-87707188D01*
X51201544Y-87543216D01*
X51300147Y-87395646D01*
X51425646Y-87270147D01*
X51573216Y-87171544D01*
X51737188Y-87103624D01*
X51886488Y-87073927D01*
X51911258Y-87069000D01*
X52088742Y-87069000D01*
X52113512Y-87073927D01*
G37*
G36*
X52113512Y-84533927D02*
G01*
X52262812Y-84563624D01*
X52426784Y-84631544D01*
X52574354Y-84730147D01*
X52699853Y-84855646D01*
X52798456Y-85003216D01*
X52866376Y-85167188D01*
X52901000Y-85341259D01*
X52901000Y-85518741D01*
X52866376Y-85692812D01*
X52798456Y-85856784D01*
X52699853Y-86004354D01*
X52574354Y-86129853D01*
X52426784Y-86228456D01*
X52262812Y-86296376D01*
X52113512Y-86326073D01*
X52088742Y-86331000D01*
X51911258Y-86331000D01*
X51886488Y-86326073D01*
X51737188Y-86296376D01*
X51573216Y-86228456D01*
X51425646Y-86129853D01*
X51300147Y-86004354D01*
X51201544Y-85856784D01*
X51133624Y-85692812D01*
X51099000Y-85518741D01*
X51099000Y-85341259D01*
X51133624Y-85167188D01*
X51201544Y-85003216D01*
X51300147Y-84855646D01*
X51425646Y-84730147D01*
X51573216Y-84631544D01*
X51737188Y-84563624D01*
X51886488Y-84533927D01*
X51911258Y-84529000D01*
X52088742Y-84529000D01*
X52113512Y-84533927D01*
G37*
G36*
X96113512Y-84533927D02*
G01*
X96262812Y-84563624D01*
X96426784Y-84631544D01*
X96574354Y-84730147D01*
X96699853Y-84855646D01*
X96798456Y-85003216D01*
X96866376Y-85167188D01*
X96901000Y-85341259D01*
X96901000Y-85518741D01*
X96866376Y-85692812D01*
X96798456Y-85856784D01*
X96699853Y-86004354D01*
X96574354Y-86129853D01*
X96426784Y-86228456D01*
X96262812Y-86296376D01*
X96113512Y-86326073D01*
X96088742Y-86331000D01*
X95911258Y-86331000D01*
X95886488Y-86326073D01*
X95737188Y-86296376D01*
X95573216Y-86228456D01*
X95425646Y-86129853D01*
X95300147Y-86004354D01*
X95201544Y-85856784D01*
X95133624Y-85692812D01*
X95099000Y-85518741D01*
X95099000Y-85341259D01*
X95133624Y-85167188D01*
X95201544Y-85003216D01*
X95300147Y-84855646D01*
X95425646Y-84730147D01*
X95573216Y-84631544D01*
X95737188Y-84563624D01*
X95886488Y-84533927D01*
X95911258Y-84529000D01*
X96088742Y-84529000D01*
X96113512Y-84533927D01*
G37*
G36*
X52113512Y-81993927D02*
G01*
X52262812Y-82023624D01*
X52426784Y-82091544D01*
X52574354Y-82190147D01*
X52699853Y-82315646D01*
X52798456Y-82463216D01*
X52866376Y-82627188D01*
X52901000Y-82801259D01*
X52901000Y-82978741D01*
X52866376Y-83152812D01*
X52798456Y-83316784D01*
X52699853Y-83464354D01*
X52574354Y-83589853D01*
X52426784Y-83688456D01*
X52262812Y-83756376D01*
X52113512Y-83786073D01*
X52088742Y-83791000D01*
X51911258Y-83791000D01*
X51886488Y-83786073D01*
X51737188Y-83756376D01*
X51573216Y-83688456D01*
X51425646Y-83589853D01*
X51300147Y-83464354D01*
X51201544Y-83316784D01*
X51133624Y-83152812D01*
X51099000Y-82978741D01*
X51099000Y-82801259D01*
X51133624Y-82627188D01*
X51201544Y-82463216D01*
X51300147Y-82315646D01*
X51425646Y-82190147D01*
X51573216Y-82091544D01*
X51737188Y-82023624D01*
X51886488Y-81993927D01*
X51911258Y-81989000D01*
X52088742Y-81989000D01*
X52113512Y-81993927D01*
G37*
G36*
X96113512Y-81993927D02*
G01*
X96262812Y-82023624D01*
X96426784Y-82091544D01*
X96574354Y-82190147D01*
X96699853Y-82315646D01*
X96798456Y-82463216D01*
X96866376Y-82627188D01*
X96901000Y-82801259D01*
X96901000Y-82978741D01*
X96866376Y-83152812D01*
X96798456Y-83316784D01*
X96699853Y-83464354D01*
X96574354Y-83589853D01*
X96426784Y-83688456D01*
X96262812Y-83756376D01*
X96113512Y-83786073D01*
X96088742Y-83791000D01*
X95911258Y-83791000D01*
X95886488Y-83786073D01*
X95737188Y-83756376D01*
X95573216Y-83688456D01*
X95425646Y-83589853D01*
X95300147Y-83464354D01*
X95201544Y-83316784D01*
X95133624Y-83152812D01*
X95099000Y-82978741D01*
X95099000Y-82801259D01*
X95133624Y-82627188D01*
X95201544Y-82463216D01*
X95300147Y-82315646D01*
X95425646Y-82190147D01*
X95573216Y-82091544D01*
X95737188Y-82023624D01*
X95886488Y-81993927D01*
X95911258Y-81989000D01*
X96088742Y-81989000D01*
X96113512Y-81993927D01*
G37*
G36*
X76911000Y-83431000D02*
G01*
X75309000Y-83431000D01*
X75309000Y-82329000D01*
X76911000Y-82329000D01*
X76911000Y-83431000D01*
G37*
G36*
X72011000Y-83431000D02*
G01*
X70409000Y-83431000D01*
X70409000Y-82329000D01*
X72011000Y-82329000D01*
X72011000Y-83431000D01*
G37*
G36*
X52113512Y-79453927D02*
G01*
X52262812Y-79483624D01*
X52426784Y-79551544D01*
X52574354Y-79650147D01*
X52699853Y-79775646D01*
X52798456Y-79923216D01*
X52866376Y-80087188D01*
X52901000Y-80261259D01*
X52901000Y-80438741D01*
X52866376Y-80612812D01*
X52798456Y-80776784D01*
X52699853Y-80924354D01*
X52574354Y-81049853D01*
X52426784Y-81148456D01*
X52262812Y-81216376D01*
X52113512Y-81246073D01*
X52088742Y-81251000D01*
X51911258Y-81251000D01*
X51886488Y-81246073D01*
X51737188Y-81216376D01*
X51573216Y-81148456D01*
X51425646Y-81049853D01*
X51300147Y-80924354D01*
X51201544Y-80776784D01*
X51133624Y-80612812D01*
X51099000Y-80438741D01*
X51099000Y-80261259D01*
X51133624Y-80087188D01*
X51201544Y-79923216D01*
X51300147Y-79775646D01*
X51425646Y-79650147D01*
X51573216Y-79551544D01*
X51737188Y-79483624D01*
X51886488Y-79453927D01*
X51911258Y-79449000D01*
X52088742Y-79449000D01*
X52113512Y-79453927D01*
G37*
G36*
X96113512Y-79453927D02*
G01*
X96262812Y-79483624D01*
X96426784Y-79551544D01*
X96574354Y-79650147D01*
X96699853Y-79775646D01*
X96798456Y-79923216D01*
X96866376Y-80087188D01*
X96901000Y-80261259D01*
X96901000Y-80438741D01*
X96866376Y-80612812D01*
X96798456Y-80776784D01*
X96699853Y-80924354D01*
X96574354Y-81049853D01*
X96426784Y-81148456D01*
X96262812Y-81216376D01*
X96113512Y-81246073D01*
X96088742Y-81251000D01*
X95911258Y-81251000D01*
X95886488Y-81246073D01*
X95737188Y-81216376D01*
X95573216Y-81148456D01*
X95425646Y-81049853D01*
X95300147Y-80924354D01*
X95201544Y-80776784D01*
X95133624Y-80612812D01*
X95099000Y-80438741D01*
X95099000Y-80261259D01*
X95133624Y-80087188D01*
X95201544Y-79923216D01*
X95300147Y-79775646D01*
X95425646Y-79650147D01*
X95573216Y-79551544D01*
X95737188Y-79483624D01*
X95886488Y-79453927D01*
X95911258Y-79449000D01*
X96088742Y-79449000D01*
X96113512Y-79453927D01*
G37*
G36*
X72011000Y-80231000D02*
G01*
X70409000Y-80231000D01*
X70409000Y-79129000D01*
X72011000Y-79129000D01*
X72011000Y-80231000D01*
G37*
G36*
X76911000Y-80231000D02*
G01*
X75309000Y-80231000D01*
X75309000Y-79129000D01*
X76911000Y-79129000D01*
X76911000Y-80231000D01*
G37*
G36*
X96113512Y-76913927D02*
G01*
X96262812Y-76943624D01*
X96426784Y-77011544D01*
X96574354Y-77110147D01*
X96699853Y-77235646D01*
X96798456Y-77383216D01*
X96866376Y-77547188D01*
X96901000Y-77721259D01*
X96901000Y-77898741D01*
X96866376Y-78072812D01*
X96798456Y-78236784D01*
X96699853Y-78384354D01*
X96574354Y-78509853D01*
X96426784Y-78608456D01*
X96262812Y-78676376D01*
X96113512Y-78706073D01*
X96088742Y-78711000D01*
X95911258Y-78711000D01*
X95886488Y-78706073D01*
X95737188Y-78676376D01*
X95573216Y-78608456D01*
X95425646Y-78509853D01*
X95300147Y-78384354D01*
X95201544Y-78236784D01*
X95133624Y-78072812D01*
X95099000Y-77898741D01*
X95099000Y-77721259D01*
X95133624Y-77547188D01*
X95201544Y-77383216D01*
X95300147Y-77235646D01*
X95425646Y-77110147D01*
X95573216Y-77011544D01*
X95737188Y-76943624D01*
X95886488Y-76913927D01*
X95911258Y-76909000D01*
X96088742Y-76909000D01*
X96113512Y-76913927D01*
G37*
G36*
X52113512Y-76913927D02*
G01*
X52262812Y-76943624D01*
X52426784Y-77011544D01*
X52574354Y-77110147D01*
X52699853Y-77235646D01*
X52798456Y-77383216D01*
X52866376Y-77547188D01*
X52901000Y-77721259D01*
X52901000Y-77898741D01*
X52866376Y-78072812D01*
X52798456Y-78236784D01*
X52699853Y-78384354D01*
X52574354Y-78509853D01*
X52426784Y-78608456D01*
X52262812Y-78676376D01*
X52113512Y-78706073D01*
X52088742Y-78711000D01*
X51911258Y-78711000D01*
X51886488Y-78706073D01*
X51737188Y-78676376D01*
X51573216Y-78608456D01*
X51425646Y-78509853D01*
X51300147Y-78384354D01*
X51201544Y-78236784D01*
X51133624Y-78072812D01*
X51099000Y-77898741D01*
X51099000Y-77721259D01*
X51133624Y-77547188D01*
X51201544Y-77383216D01*
X51300147Y-77235646D01*
X51425646Y-77110147D01*
X51573216Y-77011544D01*
X51737188Y-76943624D01*
X51886488Y-76913927D01*
X51911258Y-76909000D01*
X52088742Y-76909000D01*
X52113512Y-76913927D01*
G37*
G36*
X71056564Y-75239389D02*
G01*
X71247833Y-75318615D01*
X71247835Y-75318616D01*
X71419973Y-75433635D01*
X71566365Y-75580027D01*
X71644380Y-75696784D01*
X71681385Y-75752167D01*
X71760611Y-75943436D01*
X71801000Y-76146484D01*
X71801000Y-76353516D01*
X71760611Y-76556564D01*
X71681385Y-76747833D01*
X71681384Y-76747835D01*
X71566365Y-76919973D01*
X71419973Y-77066365D01*
X71247835Y-77181384D01*
X71247834Y-77181385D01*
X71247833Y-77181385D01*
X71056564Y-77260611D01*
X70853516Y-77301000D01*
X70646484Y-77301000D01*
X70443436Y-77260611D01*
X70252167Y-77181385D01*
X70252166Y-77181385D01*
X70252165Y-77181384D01*
X70080027Y-77066365D01*
X69933635Y-76919973D01*
X69818616Y-76747835D01*
X69818615Y-76747833D01*
X69739389Y-76556564D01*
X69699000Y-76353516D01*
X69699000Y-76146484D01*
X69739389Y-75943436D01*
X69818615Y-75752167D01*
X69855621Y-75696784D01*
X69933635Y-75580027D01*
X70080027Y-75433635D01*
X70252165Y-75318616D01*
X70252167Y-75318615D01*
X70443436Y-75239389D01*
X70646484Y-75199000D01*
X70853516Y-75199000D01*
X71056564Y-75239389D01*
G37*
G36*
X77556564Y-75239389D02*
G01*
X77747833Y-75318615D01*
X77747835Y-75318616D01*
X77919973Y-75433635D01*
X78066365Y-75580027D01*
X78144380Y-75696784D01*
X78181385Y-75752167D01*
X78260611Y-75943436D01*
X78301000Y-76146484D01*
X78301000Y-76353516D01*
X78260611Y-76556564D01*
X78181385Y-76747833D01*
X78181384Y-76747835D01*
X78066365Y-76919973D01*
X77919973Y-77066365D01*
X77747835Y-77181384D01*
X77747834Y-77181385D01*
X77747833Y-77181385D01*
X77556564Y-77260611D01*
X77353516Y-77301000D01*
X77146484Y-77301000D01*
X76943436Y-77260611D01*
X76752167Y-77181385D01*
X76752166Y-77181385D01*
X76752165Y-77181384D01*
X76580027Y-77066365D01*
X76433635Y-76919973D01*
X76318616Y-76747835D01*
X76318615Y-76747833D01*
X76239389Y-76556564D01*
X76199000Y-76353516D01*
X76199000Y-76146484D01*
X76239389Y-75943436D01*
X76318615Y-75752167D01*
X76355621Y-75696784D01*
X76433635Y-75580027D01*
X76580027Y-75433635D01*
X76752165Y-75318616D01*
X76752167Y-75318615D01*
X76943436Y-75239389D01*
X77146484Y-75199000D01*
X77353516Y-75199000D01*
X77556564Y-75239389D01*
G37*
G36*
X96113512Y-74373927D02*
G01*
X96262812Y-74403624D01*
X96426784Y-74471544D01*
X96574354Y-74570147D01*
X96699853Y-74695646D01*
X96798456Y-74843216D01*
X96866376Y-75007188D01*
X96901000Y-75181259D01*
X96901000Y-75358741D01*
X96866376Y-75532812D01*
X96798456Y-75696784D01*
X96699853Y-75844354D01*
X96574354Y-75969853D01*
X96426784Y-76068456D01*
X96262812Y-76136376D01*
X96113512Y-76166073D01*
X96088742Y-76171000D01*
X95911258Y-76171000D01*
X95886488Y-76166073D01*
X95737188Y-76136376D01*
X95573216Y-76068456D01*
X95425646Y-75969853D01*
X95300147Y-75844354D01*
X95201544Y-75696784D01*
X95133624Y-75532812D01*
X95099000Y-75358741D01*
X95099000Y-75181259D01*
X95133624Y-75007188D01*
X95201544Y-74843216D01*
X95300147Y-74695646D01*
X95425646Y-74570147D01*
X95573216Y-74471544D01*
X95737188Y-74403624D01*
X95886488Y-74373927D01*
X95911258Y-74369000D01*
X96088742Y-74369000D01*
X96113512Y-74373927D01*
G37*
G36*
X52113512Y-74373927D02*
G01*
X52262812Y-74403624D01*
X52426784Y-74471544D01*
X52574354Y-74570147D01*
X52699853Y-74695646D01*
X52798456Y-74843216D01*
X52866376Y-75007188D01*
X52901000Y-75181259D01*
X52901000Y-75358741D01*
X52866376Y-75532812D01*
X52798456Y-75696784D01*
X52699853Y-75844354D01*
X52574354Y-75969853D01*
X52426784Y-76068456D01*
X52262812Y-76136376D01*
X52113512Y-76166073D01*
X52088742Y-76171000D01*
X51911258Y-76171000D01*
X51886488Y-76166073D01*
X51737188Y-76136376D01*
X51573216Y-76068456D01*
X51425646Y-75969853D01*
X51300147Y-75844354D01*
X51201544Y-75696784D01*
X51133624Y-75532812D01*
X51099000Y-75358741D01*
X51099000Y-75181259D01*
X51133624Y-75007188D01*
X51201544Y-74843216D01*
X51300147Y-74695646D01*
X51425646Y-74570147D01*
X51573216Y-74471544D01*
X51737188Y-74403624D01*
X51886488Y-74373927D01*
X51911258Y-74369000D01*
X52088742Y-74369000D01*
X52113512Y-74373927D01*
G37*
G36*
X96113512Y-71833927D02*
G01*
X96262812Y-71863624D01*
X96426784Y-71931544D01*
X96574354Y-72030147D01*
X96699853Y-72155646D01*
X96798456Y-72303216D01*
X96866376Y-72467188D01*
X96901000Y-72641259D01*
X96901000Y-72818741D01*
X96866376Y-72992812D01*
X96798456Y-73156784D01*
X96699853Y-73304354D01*
X96574354Y-73429853D01*
X96426784Y-73528456D01*
X96262812Y-73596376D01*
X96113512Y-73626073D01*
X96088742Y-73631000D01*
X95911258Y-73631000D01*
X95886488Y-73626073D01*
X95737188Y-73596376D01*
X95573216Y-73528456D01*
X95425646Y-73429853D01*
X95300147Y-73304354D01*
X95201544Y-73156784D01*
X95133624Y-72992812D01*
X95099000Y-72818741D01*
X95099000Y-72641259D01*
X95133624Y-72467188D01*
X95201544Y-72303216D01*
X95300147Y-72155646D01*
X95425646Y-72030147D01*
X95573216Y-71931544D01*
X95737188Y-71863624D01*
X95886488Y-71833927D01*
X95911258Y-71829000D01*
X96088742Y-71829000D01*
X96113512Y-71833927D01*
G37*
G36*
X52113512Y-71833927D02*
G01*
X52262812Y-71863624D01*
X52426784Y-71931544D01*
X52574354Y-72030147D01*
X52699853Y-72155646D01*
X52798456Y-72303216D01*
X52866376Y-72467188D01*
X52901000Y-72641259D01*
X52901000Y-72818741D01*
X52866376Y-72992812D01*
X52798456Y-73156784D01*
X52699853Y-73304354D01*
X52574354Y-73429853D01*
X52426784Y-73528456D01*
X52262812Y-73596376D01*
X52113512Y-73626073D01*
X52088742Y-73631000D01*
X51911258Y-73631000D01*
X51886488Y-73626073D01*
X51737188Y-73596376D01*
X51573216Y-73528456D01*
X51425646Y-73429853D01*
X51300147Y-73304354D01*
X51201544Y-73156784D01*
X51133624Y-72992812D01*
X51099000Y-72818741D01*
X51099000Y-72641259D01*
X51133624Y-72467188D01*
X51201544Y-72303216D01*
X51300147Y-72155646D01*
X51425646Y-72030147D01*
X51573216Y-71931544D01*
X51737188Y-71863624D01*
X51886488Y-71833927D01*
X51911258Y-71829000D01*
X52088742Y-71829000D01*
X52113512Y-71833927D01*
G37*
G36*
X77556564Y-70739389D02*
G01*
X77747833Y-70818615D01*
X77747835Y-70818616D01*
X77919973Y-70933635D01*
X78066365Y-71080027D01*
X78181385Y-71252167D01*
X78260611Y-71443436D01*
X78301000Y-71646484D01*
X78301000Y-71853516D01*
X78260611Y-72056564D01*
X78181385Y-72247833D01*
X78181384Y-72247835D01*
X78066365Y-72419973D01*
X77919973Y-72566365D01*
X77747835Y-72681384D01*
X77747834Y-72681385D01*
X77747833Y-72681385D01*
X77556564Y-72760611D01*
X77353516Y-72801000D01*
X77146484Y-72801000D01*
X76943436Y-72760611D01*
X76752167Y-72681385D01*
X76752166Y-72681385D01*
X76752165Y-72681384D01*
X76580027Y-72566365D01*
X76433635Y-72419973D01*
X76318616Y-72247835D01*
X76318615Y-72247833D01*
X76239389Y-72056564D01*
X76199000Y-71853516D01*
X76199000Y-71646484D01*
X76239389Y-71443436D01*
X76318615Y-71252167D01*
X76433635Y-71080027D01*
X76580027Y-70933635D01*
X76752165Y-70818616D01*
X76752167Y-70818615D01*
X76943436Y-70739389D01*
X77146484Y-70699000D01*
X77353516Y-70699000D01*
X77556564Y-70739389D01*
G37*
G36*
X71056564Y-70739389D02*
G01*
X71247833Y-70818615D01*
X71247835Y-70818616D01*
X71419973Y-70933635D01*
X71566365Y-71080027D01*
X71681385Y-71252167D01*
X71760611Y-71443436D01*
X71801000Y-71646484D01*
X71801000Y-71853516D01*
X71760611Y-72056564D01*
X71681385Y-72247833D01*
X71681384Y-72247835D01*
X71566365Y-72419973D01*
X71419973Y-72566365D01*
X71247835Y-72681384D01*
X71247834Y-72681385D01*
X71247833Y-72681385D01*
X71056564Y-72760611D01*
X70853516Y-72801000D01*
X70646484Y-72801000D01*
X70443436Y-72760611D01*
X70252167Y-72681385D01*
X70252166Y-72681385D01*
X70252165Y-72681384D01*
X70080027Y-72566365D01*
X69933635Y-72419973D01*
X69818616Y-72247835D01*
X69818615Y-72247833D01*
X69739389Y-72056564D01*
X69699000Y-71853516D01*
X69699000Y-71646484D01*
X69739389Y-71443436D01*
X69818615Y-71252167D01*
X69933635Y-71080027D01*
X70080027Y-70933635D01*
X70252165Y-70818616D01*
X70252167Y-70818615D01*
X70443436Y-70739389D01*
X70646484Y-70699000D01*
X70853516Y-70699000D01*
X71056564Y-70739389D01*
G37*
G36*
X90758674Y-70253465D02*
G01*
X90796367Y-70264899D01*
X90831103Y-70283466D01*
X90861548Y-70308452D01*
X90886534Y-70338897D01*
X90905101Y-70373633D01*
X90916535Y-70411326D01*
X90921000Y-70456661D01*
X90921000Y-71293339D01*
X90916535Y-71338674D01*
X90905101Y-71376367D01*
X90886534Y-71411103D01*
X90861548Y-71441548D01*
X90831103Y-71466534D01*
X90796367Y-71485101D01*
X90758674Y-71496535D01*
X90713339Y-71501000D01*
X89626661Y-71501000D01*
X89581326Y-71496535D01*
X89543633Y-71485101D01*
X89508897Y-71466534D01*
X89478452Y-71441548D01*
X89453466Y-71411103D01*
X89434899Y-71376367D01*
X89423465Y-71338674D01*
X89419000Y-71293339D01*
X89419000Y-70456661D01*
X89423465Y-70411326D01*
X89434899Y-70373633D01*
X89453466Y-70338897D01*
X89478452Y-70308452D01*
X89508897Y-70283466D01*
X89543633Y-70264899D01*
X89581326Y-70253465D01*
X89626661Y-70249000D01*
X90713339Y-70249000D01*
X90758674Y-70253465D01*
G37*
G36*
X96113512Y-69293927D02*
G01*
X96262812Y-69323624D01*
X96426784Y-69391544D01*
X96574354Y-69490147D01*
X96699853Y-69615646D01*
X96798456Y-69763216D01*
X96866376Y-69927188D01*
X96901000Y-70101259D01*
X96901000Y-70278741D01*
X96866376Y-70452812D01*
X96798456Y-70616784D01*
X96699853Y-70764354D01*
X96574354Y-70889853D01*
X96426784Y-70988456D01*
X96262812Y-71056376D01*
X96113512Y-71086073D01*
X96088742Y-71091000D01*
X95911258Y-71091000D01*
X95886488Y-71086073D01*
X95737188Y-71056376D01*
X95573216Y-70988456D01*
X95425646Y-70889853D01*
X95300147Y-70764354D01*
X95201544Y-70616784D01*
X95133624Y-70452812D01*
X95099000Y-70278741D01*
X95099000Y-70101259D01*
X95133624Y-69927188D01*
X95201544Y-69763216D01*
X95300147Y-69615646D01*
X95425646Y-69490147D01*
X95573216Y-69391544D01*
X95737188Y-69323624D01*
X95886488Y-69293927D01*
X95911258Y-69289000D01*
X96088742Y-69289000D01*
X96113512Y-69293927D01*
G37*
G36*
X52113512Y-69293927D02*
G01*
X52262812Y-69323624D01*
X52426784Y-69391544D01*
X52574354Y-69490147D01*
X52699853Y-69615646D01*
X52798456Y-69763216D01*
X52866376Y-69927188D01*
X52901000Y-70101259D01*
X52901000Y-70278741D01*
X52866376Y-70452812D01*
X52798456Y-70616784D01*
X52699853Y-70764354D01*
X52574354Y-70889853D01*
X52426784Y-70988456D01*
X52262812Y-71056376D01*
X52113512Y-71086073D01*
X52088742Y-71091000D01*
X51911258Y-71091000D01*
X51886488Y-71086073D01*
X51737188Y-71056376D01*
X51573216Y-70988456D01*
X51425646Y-70889853D01*
X51300147Y-70764354D01*
X51201544Y-70616784D01*
X51133624Y-70452812D01*
X51099000Y-70278741D01*
X51099000Y-70101259D01*
X51133624Y-69927188D01*
X51201544Y-69763216D01*
X51300147Y-69615646D01*
X51425646Y-69490147D01*
X51573216Y-69391544D01*
X51737188Y-69323624D01*
X51886488Y-69293927D01*
X51911258Y-69289000D01*
X52088742Y-69289000D01*
X52113512Y-69293927D01*
G37*
G36*
X90758674Y-68203465D02*
G01*
X90796367Y-68214899D01*
X90831103Y-68233466D01*
X90861548Y-68258452D01*
X90886534Y-68288897D01*
X90905101Y-68323633D01*
X90916535Y-68361326D01*
X90921000Y-68406661D01*
X90921000Y-69243339D01*
X90916535Y-69288674D01*
X90905101Y-69326367D01*
X90886534Y-69361103D01*
X90861548Y-69391548D01*
X90831103Y-69416534D01*
X90796367Y-69435101D01*
X90758674Y-69446535D01*
X90713339Y-69451000D01*
X89626661Y-69451000D01*
X89581326Y-69446535D01*
X89543633Y-69435101D01*
X89508897Y-69416534D01*
X89478452Y-69391548D01*
X89453466Y-69361103D01*
X89434899Y-69326367D01*
X89423465Y-69288674D01*
X89419000Y-69243339D01*
X89419000Y-68406661D01*
X89423465Y-68361326D01*
X89434899Y-68323633D01*
X89453466Y-68288897D01*
X89478452Y-68258452D01*
X89508897Y-68233466D01*
X89543633Y-68214899D01*
X89581326Y-68203465D01*
X89626661Y-68199000D01*
X90713339Y-68199000D01*
X90758674Y-68203465D01*
G37*
G36*
X96113512Y-66753927D02*
G01*
X96262812Y-66783624D01*
X96426784Y-66851544D01*
X96574354Y-66950147D01*
X96699853Y-67075646D01*
X96798456Y-67223216D01*
X96866376Y-67387188D01*
X96901000Y-67561259D01*
X96901000Y-67738741D01*
X96866376Y-67912812D01*
X96798456Y-68076784D01*
X96699853Y-68224354D01*
X96574354Y-68349853D01*
X96426784Y-68448456D01*
X96262812Y-68516376D01*
X96113512Y-68546073D01*
X96088742Y-68551000D01*
X95911258Y-68551000D01*
X95886488Y-68546073D01*
X95737188Y-68516376D01*
X95573216Y-68448456D01*
X95425646Y-68349853D01*
X95300147Y-68224354D01*
X95201544Y-68076784D01*
X95133624Y-67912812D01*
X95099000Y-67738741D01*
X95099000Y-67561259D01*
X95133624Y-67387188D01*
X95201544Y-67223216D01*
X95300147Y-67075646D01*
X95425646Y-66950147D01*
X95573216Y-66851544D01*
X95737188Y-66783624D01*
X95886488Y-66753927D01*
X95911258Y-66749000D01*
X96088742Y-66749000D01*
X96113512Y-66753927D01*
G37*
G36*
X52113512Y-66753927D02*
G01*
X52262812Y-66783624D01*
X52426784Y-66851544D01*
X52574354Y-66950147D01*
X52699853Y-67075646D01*
X52798456Y-67223216D01*
X52866376Y-67387188D01*
X52901000Y-67561259D01*
X52901000Y-67738741D01*
X52866376Y-67912812D01*
X52798456Y-68076784D01*
X52699853Y-68224354D01*
X52574354Y-68349853D01*
X52426784Y-68448456D01*
X52262812Y-68516376D01*
X52113512Y-68546073D01*
X52088742Y-68551000D01*
X51911258Y-68551000D01*
X51886488Y-68546073D01*
X51737188Y-68516376D01*
X51573216Y-68448456D01*
X51425646Y-68349853D01*
X51300147Y-68224354D01*
X51201544Y-68076784D01*
X51133624Y-67912812D01*
X51099000Y-67738741D01*
X51099000Y-67561259D01*
X51133624Y-67387188D01*
X51201544Y-67223216D01*
X51300147Y-67075646D01*
X51425646Y-66950147D01*
X51573216Y-66851544D01*
X51737188Y-66783624D01*
X51886488Y-66753927D01*
X51911258Y-66749000D01*
X52088742Y-66749000D01*
X52113512Y-66753927D01*
G37*
G36*
X76911000Y-68191000D02*
G01*
X75309000Y-68191000D01*
X75309000Y-67089000D01*
X76911000Y-67089000D01*
X76911000Y-68191000D01*
G37*
G36*
X72011000Y-68191000D02*
G01*
X70409000Y-68191000D01*
X70409000Y-67089000D01*
X72011000Y-67089000D01*
X72011000Y-68191000D01*
G37*
G36*
X52113512Y-64213927D02*
G01*
X52262812Y-64243624D01*
X52426784Y-64311544D01*
X52574354Y-64410147D01*
X52699853Y-64535646D01*
X52798456Y-64683216D01*
X52866376Y-64847188D01*
X52901000Y-65021259D01*
X52901000Y-65198741D01*
X52866376Y-65372812D01*
X52798456Y-65536784D01*
X52699853Y-65684354D01*
X52574354Y-65809853D01*
X52426784Y-65908456D01*
X52262812Y-65976376D01*
X52113512Y-66006073D01*
X52088742Y-66011000D01*
X51911258Y-66011000D01*
X51886488Y-66006073D01*
X51737188Y-65976376D01*
X51573216Y-65908456D01*
X51425646Y-65809853D01*
X51300147Y-65684354D01*
X51201544Y-65536784D01*
X51133624Y-65372812D01*
X51099000Y-65198741D01*
X51099000Y-65021259D01*
X51133624Y-64847188D01*
X51201544Y-64683216D01*
X51300147Y-64535646D01*
X51425646Y-64410147D01*
X51573216Y-64311544D01*
X51737188Y-64243624D01*
X51886488Y-64213927D01*
X51911258Y-64209000D01*
X52088742Y-64209000D01*
X52113512Y-64213927D01*
G37*
G36*
X96113512Y-64213927D02*
G01*
X96262812Y-64243624D01*
X96426784Y-64311544D01*
X96574354Y-64410147D01*
X96699853Y-64535646D01*
X96798456Y-64683216D01*
X96866376Y-64847188D01*
X96901000Y-65021259D01*
X96901000Y-65198741D01*
X96866376Y-65372812D01*
X96798456Y-65536784D01*
X96699853Y-65684354D01*
X96574354Y-65809853D01*
X96426784Y-65908456D01*
X96262812Y-65976376D01*
X96113512Y-66006073D01*
X96088742Y-66011000D01*
X95911258Y-66011000D01*
X95886488Y-66006073D01*
X95737188Y-65976376D01*
X95573216Y-65908456D01*
X95425646Y-65809853D01*
X95300147Y-65684354D01*
X95201544Y-65536784D01*
X95133624Y-65372812D01*
X95099000Y-65198741D01*
X95099000Y-65021259D01*
X95133624Y-64847188D01*
X95201544Y-64683216D01*
X95300147Y-64535646D01*
X95425646Y-64410147D01*
X95573216Y-64311544D01*
X95737188Y-64243624D01*
X95886488Y-64213927D01*
X95911258Y-64209000D01*
X96088742Y-64209000D01*
X96113512Y-64213927D01*
G37*
G36*
X76911000Y-64991000D02*
G01*
X75309000Y-64991000D01*
X75309000Y-63889000D01*
X76911000Y-63889000D01*
X76911000Y-64991000D01*
G37*
G36*
X72011000Y-64991000D02*
G01*
X70409000Y-64991000D01*
X70409000Y-63889000D01*
X72011000Y-63889000D01*
X72011000Y-64991000D01*
G37*
G36*
X52113512Y-61673927D02*
G01*
X52262812Y-61703624D01*
X52426784Y-61771544D01*
X52574354Y-61870147D01*
X52699853Y-61995646D01*
X52798456Y-62143216D01*
X52866376Y-62307188D01*
X52901000Y-62481259D01*
X52901000Y-62658741D01*
X52866376Y-62832812D01*
X52798456Y-62996784D01*
X52699853Y-63144354D01*
X52574354Y-63269853D01*
X52426784Y-63368456D01*
X52262812Y-63436376D01*
X52113512Y-63466073D01*
X52088742Y-63471000D01*
X51911258Y-63471000D01*
X51886488Y-63466073D01*
X51737188Y-63436376D01*
X51573216Y-63368456D01*
X51425646Y-63269853D01*
X51300147Y-63144354D01*
X51201544Y-62996784D01*
X51133624Y-62832812D01*
X51099000Y-62658741D01*
X51099000Y-62481259D01*
X51133624Y-62307188D01*
X51201544Y-62143216D01*
X51300147Y-61995646D01*
X51425646Y-61870147D01*
X51573216Y-61771544D01*
X51737188Y-61703624D01*
X51886488Y-61673927D01*
X51911258Y-61669000D01*
X52088742Y-61669000D01*
X52113512Y-61673927D01*
G37*
G36*
X96113512Y-61673927D02*
G01*
X96262812Y-61703624D01*
X96426784Y-61771544D01*
X96574354Y-61870147D01*
X96699853Y-61995646D01*
X96798456Y-62143216D01*
X96866376Y-62307188D01*
X96901000Y-62481259D01*
X96901000Y-62658741D01*
X96866376Y-62832812D01*
X96798456Y-62996784D01*
X96699853Y-63144354D01*
X96574354Y-63269853D01*
X96426784Y-63368456D01*
X96262812Y-63436376D01*
X96113512Y-63466073D01*
X96088742Y-63471000D01*
X95911258Y-63471000D01*
X95886488Y-63466073D01*
X95737188Y-63436376D01*
X95573216Y-63368456D01*
X95425646Y-63269853D01*
X95300147Y-63144354D01*
X95201544Y-62996784D01*
X95133624Y-62832812D01*
X95099000Y-62658741D01*
X95099000Y-62481259D01*
X95133624Y-62307188D01*
X95201544Y-62143216D01*
X95300147Y-61995646D01*
X95425646Y-61870147D01*
X95573216Y-61771544D01*
X95737188Y-61703624D01*
X95886488Y-61673927D01*
X95911258Y-61669000D01*
X96088742Y-61669000D01*
X96113512Y-61673927D01*
G37*
G36*
X52113512Y-59133927D02*
G01*
X52262812Y-59163624D01*
X52426784Y-59231544D01*
X52574354Y-59330147D01*
X52699853Y-59455646D01*
X52798456Y-59603216D01*
X52866376Y-59767188D01*
X52901000Y-59941259D01*
X52901000Y-60118741D01*
X52866376Y-60292812D01*
X52798456Y-60456784D01*
X52699853Y-60604354D01*
X52574354Y-60729853D01*
X52426784Y-60828456D01*
X52262812Y-60896376D01*
X52113512Y-60926073D01*
X52088742Y-60931000D01*
X51911258Y-60931000D01*
X51886488Y-60926073D01*
X51737188Y-60896376D01*
X51573216Y-60828456D01*
X51425646Y-60729853D01*
X51300147Y-60604354D01*
X51201544Y-60456784D01*
X51133624Y-60292812D01*
X51099000Y-60118741D01*
X51099000Y-59941259D01*
X51133624Y-59767188D01*
X51201544Y-59603216D01*
X51300147Y-59455646D01*
X51425646Y-59330147D01*
X51573216Y-59231544D01*
X51737188Y-59163624D01*
X51886488Y-59133927D01*
X51911258Y-59129000D01*
X52088742Y-59129000D01*
X52113512Y-59133927D01*
G37*
G36*
X96113512Y-59133927D02*
G01*
X96262812Y-59163624D01*
X96426784Y-59231544D01*
X96574354Y-59330147D01*
X96699853Y-59455646D01*
X96798456Y-59603216D01*
X96866376Y-59767188D01*
X96901000Y-59941259D01*
X96901000Y-60118741D01*
X96866376Y-60292812D01*
X96798456Y-60456784D01*
X96699853Y-60604354D01*
X96574354Y-60729853D01*
X96426784Y-60828456D01*
X96262812Y-60896376D01*
X96113512Y-60926073D01*
X96088742Y-60931000D01*
X95911258Y-60931000D01*
X95886488Y-60926073D01*
X95737188Y-60896376D01*
X95573216Y-60828456D01*
X95425646Y-60729853D01*
X95300147Y-60604354D01*
X95201544Y-60456784D01*
X95133624Y-60292812D01*
X95099000Y-60118741D01*
X95099000Y-59941259D01*
X95133624Y-59767188D01*
X95201544Y-59603216D01*
X95300147Y-59455646D01*
X95425646Y-59330147D01*
X95573216Y-59231544D01*
X95737188Y-59163624D01*
X95886488Y-59133927D01*
X95911258Y-59129000D01*
X96088742Y-59129000D01*
X96113512Y-59133927D01*
G37*
G36*
X82051000Y-58551000D02*
G01*
X81049000Y-58551000D01*
X81049000Y-57649000D01*
X82051000Y-57649000D01*
X82051000Y-58551000D01*
G37*
G36*
X96113512Y-56593927D02*
G01*
X96262812Y-56623624D01*
X96426784Y-56691544D01*
X96574354Y-56790147D01*
X96699853Y-56915646D01*
X96798456Y-57063216D01*
X96866376Y-57227188D01*
X96901000Y-57401259D01*
X96901000Y-57578741D01*
X96866376Y-57752812D01*
X96798456Y-57916784D01*
X96699853Y-58064354D01*
X96574354Y-58189853D01*
X96426784Y-58288456D01*
X96262812Y-58356376D01*
X96113512Y-58386073D01*
X96088742Y-58391000D01*
X95911258Y-58391000D01*
X95886488Y-58386073D01*
X95737188Y-58356376D01*
X95573216Y-58288456D01*
X95425646Y-58189853D01*
X95300147Y-58064354D01*
X95201544Y-57916784D01*
X95133624Y-57752812D01*
X95099000Y-57578741D01*
X95099000Y-57401259D01*
X95133624Y-57227188D01*
X95201544Y-57063216D01*
X95300147Y-56915646D01*
X95425646Y-56790147D01*
X95573216Y-56691544D01*
X95737188Y-56623624D01*
X95886488Y-56593927D01*
X95911258Y-56589000D01*
X96088742Y-56589000D01*
X96113512Y-56593927D01*
G37*
G36*
X52113512Y-56593927D02*
G01*
X52262812Y-56623624D01*
X52426784Y-56691544D01*
X52574354Y-56790147D01*
X52699853Y-56915646D01*
X52798456Y-57063216D01*
X52866376Y-57227188D01*
X52901000Y-57401259D01*
X52901000Y-57578741D01*
X52866376Y-57752812D01*
X52798456Y-57916784D01*
X52699853Y-58064354D01*
X52574354Y-58189853D01*
X52426784Y-58288456D01*
X52262812Y-58356376D01*
X52113512Y-58386073D01*
X52088742Y-58391000D01*
X51911258Y-58391000D01*
X51886488Y-58386073D01*
X51737188Y-58356376D01*
X51573216Y-58288456D01*
X51425646Y-58189853D01*
X51300147Y-58064354D01*
X51201544Y-57916784D01*
X51133624Y-57752812D01*
X51099000Y-57578741D01*
X51099000Y-57401259D01*
X51133624Y-57227188D01*
X51201544Y-57063216D01*
X51300147Y-56915646D01*
X51425646Y-56790147D01*
X51573216Y-56691544D01*
X51737188Y-56623624D01*
X51886488Y-56593927D01*
X51911258Y-56589000D01*
X52088742Y-56589000D01*
X52113512Y-56593927D01*
G37*
G36*
X84051000Y-57601000D02*
G01*
X83049000Y-57601000D01*
X83049000Y-56699000D01*
X84051000Y-56699000D01*
X84051000Y-57601000D01*
G37*
G36*
X82051000Y-56651000D02*
G01*
X81049000Y-56651000D01*
X81049000Y-55749000D01*
X82051000Y-55749000D01*
X82051000Y-56651000D01*
G37*
G36*
X76418674Y-55133465D02*
G01*
X76456367Y-55144899D01*
X76491103Y-55163466D01*
X76521548Y-55188452D01*
X76546534Y-55218897D01*
X76565101Y-55253633D01*
X76576535Y-55291326D01*
X76581000Y-55336661D01*
X76581000Y-56423339D01*
X76576535Y-56468674D01*
X76565101Y-56506367D01*
X76546534Y-56541103D01*
X76521548Y-56571548D01*
X76491103Y-56596534D01*
X76456367Y-56615101D01*
X76418674Y-56626535D01*
X76373339Y-56631000D01*
X75536661Y-56631000D01*
X75491326Y-56626535D01*
X75453633Y-56615101D01*
X75418897Y-56596534D01*
X75388452Y-56571548D01*
X75363466Y-56541103D01*
X75344899Y-56506367D01*
X75333465Y-56468674D01*
X75329000Y-56423339D01*
X75329000Y-55336661D01*
X75333465Y-55291326D01*
X75344899Y-55253633D01*
X75363466Y-55218897D01*
X75388452Y-55188452D01*
X75418897Y-55163466D01*
X75453633Y-55144899D01*
X75491326Y-55133465D01*
X75536661Y-55129000D01*
X76373339Y-55129000D01*
X76418674Y-55133465D01*
G37*
G36*
X66748674Y-55133465D02*
G01*
X66786367Y-55144899D01*
X66821103Y-55163466D01*
X66851548Y-55188452D01*
X66876534Y-55218897D01*
X66895101Y-55253633D01*
X66906535Y-55291326D01*
X66911000Y-55336661D01*
X66911000Y-56423339D01*
X66906535Y-56468674D01*
X66895101Y-56506367D01*
X66876534Y-56541103D01*
X66851548Y-56571548D01*
X66821103Y-56596534D01*
X66786367Y-56615101D01*
X66748674Y-56626535D01*
X66703339Y-56631000D01*
X65866661Y-56631000D01*
X65821326Y-56626535D01*
X65783633Y-56615101D01*
X65748897Y-56596534D01*
X65718452Y-56571548D01*
X65693466Y-56541103D01*
X65674899Y-56506367D01*
X65663465Y-56468674D01*
X65659000Y-56423339D01*
X65659000Y-55336661D01*
X65663465Y-55291326D01*
X65674899Y-55253633D01*
X65693466Y-55218897D01*
X65718452Y-55188452D01*
X65748897Y-55163466D01*
X65783633Y-55144899D01*
X65821326Y-55133465D01*
X65866661Y-55129000D01*
X66703339Y-55129000D01*
X66748674Y-55133465D01*
G37*
G36*
X68798674Y-55133465D02*
G01*
X68836367Y-55144899D01*
X68871103Y-55163466D01*
X68901548Y-55188452D01*
X68926534Y-55218897D01*
X68945101Y-55253633D01*
X68956535Y-55291326D01*
X68961000Y-55336661D01*
X68961000Y-56423339D01*
X68956535Y-56468674D01*
X68945101Y-56506367D01*
X68926534Y-56541103D01*
X68901548Y-56571548D01*
X68871103Y-56596534D01*
X68836367Y-56615101D01*
X68798674Y-56626535D01*
X68753339Y-56631000D01*
X67916661Y-56631000D01*
X67871326Y-56626535D01*
X67833633Y-56615101D01*
X67798897Y-56596534D01*
X67768452Y-56571548D01*
X67743466Y-56541103D01*
X67724899Y-56506367D01*
X67713465Y-56468674D01*
X67709000Y-56423339D01*
X67709000Y-55336661D01*
X67713465Y-55291326D01*
X67724899Y-55253633D01*
X67743466Y-55218897D01*
X67768452Y-55188452D01*
X67798897Y-55163466D01*
X67833633Y-55144899D01*
X67871326Y-55133465D01*
X67916661Y-55129000D01*
X68753339Y-55129000D01*
X68798674Y-55133465D01*
G37*
G36*
X74368674Y-55133465D02*
G01*
X74406367Y-55144899D01*
X74441103Y-55163466D01*
X74471548Y-55188452D01*
X74496534Y-55218897D01*
X74515101Y-55253633D01*
X74526535Y-55291326D01*
X74531000Y-55336661D01*
X74531000Y-56423339D01*
X74526535Y-56468674D01*
X74515101Y-56506367D01*
X74496534Y-56541103D01*
X74471548Y-56571548D01*
X74441103Y-56596534D01*
X74406367Y-56615101D01*
X74368674Y-56626535D01*
X74323339Y-56631000D01*
X73486661Y-56631000D01*
X73441326Y-56626535D01*
X73403633Y-56615101D01*
X73368897Y-56596534D01*
X73338452Y-56571548D01*
X73313466Y-56541103D01*
X73294899Y-56506367D01*
X73283465Y-56468674D01*
X73279000Y-56423339D01*
X73279000Y-55336661D01*
X73283465Y-55291326D01*
X73294899Y-55253633D01*
X73313466Y-55218897D01*
X73338452Y-55188452D01*
X73368897Y-55163466D01*
X73403633Y-55144899D01*
X73441326Y-55133465D01*
X73486661Y-55129000D01*
X74323339Y-55129000D01*
X74368674Y-55133465D01*
G37*
G36*
X96901000Y-55851000D02*
G01*
X95099000Y-55851000D01*
X95099000Y-54049000D01*
X96901000Y-54049000D01*
X96901000Y-55851000D01*
G37*
G36*
X52901000Y-55851000D02*
G01*
X51099000Y-55851000D01*
X51099000Y-54049000D01*
X52901000Y-54049000D01*
X52901000Y-55851000D01*
G37*
G36*
X47701000Y-46601000D02*
G01*
X46099000Y-46601000D01*
X46099000Y-45499000D01*
X47701000Y-45499000D01*
X47701000Y-46601000D01*
G37*
G36*
X42801000Y-46601000D02*
G01*
X41199000Y-46601000D01*
X41199000Y-45499000D01*
X42801000Y-45499000D01*
X42801000Y-46601000D01*
G37*
G36*
X107391000Y-46601000D02*
G01*
X105789000Y-46601000D01*
X105789000Y-45499000D01*
X107391000Y-45499000D01*
X107391000Y-46601000D01*
G37*
G36*
X102491000Y-46601000D02*
G01*
X100889000Y-46601000D01*
X100889000Y-45499000D01*
X102491000Y-45499000D01*
X102491000Y-46601000D01*
G37*
G36*
X102491000Y-43401000D02*
G01*
X100889000Y-43401000D01*
X100889000Y-42299000D01*
X102491000Y-42299000D01*
X102491000Y-43401000D01*
G37*
G36*
X42801000Y-43401000D02*
G01*
X41199000Y-43401000D01*
X41199000Y-42299000D01*
X42801000Y-42299000D01*
X42801000Y-43401000D01*
G37*
G36*
X107391000Y-43401000D02*
G01*
X105789000Y-43401000D01*
X105789000Y-42299000D01*
X107391000Y-42299000D01*
X107391000Y-43401000D01*
G37*
G36*
X47701000Y-43401000D02*
G01*
X46099000Y-43401000D01*
X46099000Y-42299000D01*
X47701000Y-42299000D01*
X47701000Y-43401000D01*
G37*
G36*
X115191000Y-32631000D02*
G01*
X113589000Y-32631000D01*
X113589000Y-31529000D01*
X115191000Y-31529000D01*
X115191000Y-32631000D01*
G37*
G36*
X35001000Y-32631000D02*
G01*
X33399000Y-32631000D01*
X33399000Y-31529000D01*
X35001000Y-31529000D01*
X35001000Y-32631000D01*
G37*
G36*
X30101000Y-32631000D02*
G01*
X28499000Y-32631000D01*
X28499000Y-31529000D01*
X30101000Y-31529000D01*
X30101000Y-32631000D01*
G37*
G36*
X120091000Y-32631000D02*
G01*
X118489000Y-32631000D01*
X118489000Y-31529000D01*
X120091000Y-31529000D01*
X120091000Y-32631000D01*
G37*
G36*
X115191000Y-29431000D02*
G01*
X113589000Y-29431000D01*
X113589000Y-28329000D01*
X115191000Y-28329000D01*
X115191000Y-29431000D01*
G37*
G36*
X120091000Y-29431000D02*
G01*
X118489000Y-29431000D01*
X118489000Y-28329000D01*
X120091000Y-28329000D01*
X120091000Y-29431000D01*
G37*
G36*
X30101000Y-29431000D02*
G01*
X28499000Y-29431000D01*
X28499000Y-28329000D01*
X30101000Y-28329000D01*
X30101000Y-29431000D01*
G37*
G36*
X35001000Y-29431000D02*
G01*
X33399000Y-29431000D01*
X33399000Y-28329000D01*
X35001000Y-28329000D01*
X35001000Y-29431000D01*
G37*
M02*
