G04 #@! TF.GenerationSoftware,KiCad,Pcbnew,5.1.5+dfsg1-2build2*
G04 #@! TF.CreationDate,2021-03-08T11:08:27-05:00*
G04 #@! TF.ProjectId,leveling_package,6c657665-6c69-46e6-975f-7061636b6167,rev?*
G04 #@! TF.SameCoordinates,Original*
G04 #@! TF.FileFunction,Soldermask,Bot*
G04 #@! TF.FilePolarity,Negative*
%FSLAX46Y46*%
G04 Gerber Fmt 4.6, Leading zero omitted, Abs format (unit mm)*
G04 Created by KiCad (PCBNEW 5.1.5+dfsg1-2build2) date 2021-03-08 11:08:27*
%MOMM*%
%LPD*%
G04 APERTURE LIST*
%ADD10C,0.100000*%
G04 APERTURE END LIST*
D10*
G36*
X52113512Y-92153927D02*
G01*
X52262812Y-92183624D01*
X52426784Y-92251544D01*
X52574354Y-92350147D01*
X52699853Y-92475646D01*
X52798456Y-92623216D01*
X52866376Y-92787188D01*
X52901000Y-92961259D01*
X52901000Y-93138741D01*
X52866376Y-93312812D01*
X52798456Y-93476784D01*
X52699853Y-93624354D01*
X52574354Y-93749853D01*
X52426784Y-93848456D01*
X52262812Y-93916376D01*
X52113512Y-93946073D01*
X52088742Y-93951000D01*
X51911258Y-93951000D01*
X51886488Y-93946073D01*
X51737188Y-93916376D01*
X51573216Y-93848456D01*
X51425646Y-93749853D01*
X51300147Y-93624354D01*
X51201544Y-93476784D01*
X51133624Y-93312812D01*
X51099000Y-93138741D01*
X51099000Y-92961259D01*
X51133624Y-92787188D01*
X51201544Y-92623216D01*
X51300147Y-92475646D01*
X51425646Y-92350147D01*
X51573216Y-92251544D01*
X51737188Y-92183624D01*
X51886488Y-92153927D01*
X51911258Y-92149000D01*
X52088742Y-92149000D01*
X52113512Y-92153927D01*
G37*
G36*
X98673512Y-92153927D02*
G01*
X98822812Y-92183624D01*
X98986784Y-92251544D01*
X99134354Y-92350147D01*
X99259853Y-92475646D01*
X99358456Y-92623216D01*
X99426376Y-92787188D01*
X99461000Y-92961259D01*
X99461000Y-93138741D01*
X99426376Y-93312812D01*
X99358456Y-93476784D01*
X99259853Y-93624354D01*
X99134354Y-93749853D01*
X98986784Y-93848456D01*
X98822812Y-93916376D01*
X98673512Y-93946073D01*
X98648742Y-93951000D01*
X98471258Y-93951000D01*
X98446488Y-93946073D01*
X98297188Y-93916376D01*
X98133216Y-93848456D01*
X97985646Y-93749853D01*
X97860147Y-93624354D01*
X97761544Y-93476784D01*
X97693624Y-93312812D01*
X97659000Y-93138741D01*
X97659000Y-92961259D01*
X97693624Y-92787188D01*
X97761544Y-92623216D01*
X97860147Y-92475646D01*
X97985646Y-92350147D01*
X98133216Y-92251544D01*
X98297188Y-92183624D01*
X98446488Y-92153927D01*
X98471258Y-92149000D01*
X98648742Y-92149000D01*
X98673512Y-92153927D01*
G37*
G36*
X49573512Y-92153927D02*
G01*
X49722812Y-92183624D01*
X49886784Y-92251544D01*
X50034354Y-92350147D01*
X50159853Y-92475646D01*
X50258456Y-92623216D01*
X50326376Y-92787188D01*
X50361000Y-92961259D01*
X50361000Y-93138741D01*
X50326376Y-93312812D01*
X50258456Y-93476784D01*
X50159853Y-93624354D01*
X50034354Y-93749853D01*
X49886784Y-93848456D01*
X49722812Y-93916376D01*
X49573512Y-93946073D01*
X49548742Y-93951000D01*
X49371258Y-93951000D01*
X49346488Y-93946073D01*
X49197188Y-93916376D01*
X49033216Y-93848456D01*
X48885646Y-93749853D01*
X48760147Y-93624354D01*
X48661544Y-93476784D01*
X48593624Y-93312812D01*
X48559000Y-93138741D01*
X48559000Y-92961259D01*
X48593624Y-92787188D01*
X48661544Y-92623216D01*
X48760147Y-92475646D01*
X48885646Y-92350147D01*
X49033216Y-92251544D01*
X49197188Y-92183624D01*
X49346488Y-92153927D01*
X49371258Y-92149000D01*
X49548742Y-92149000D01*
X49573512Y-92153927D01*
G37*
G36*
X96113512Y-92153927D02*
G01*
X96262812Y-92183624D01*
X96426784Y-92251544D01*
X96574354Y-92350147D01*
X96699853Y-92475646D01*
X96798456Y-92623216D01*
X96866376Y-92787188D01*
X96901000Y-92961259D01*
X96901000Y-93138741D01*
X96866376Y-93312812D01*
X96798456Y-93476784D01*
X96699853Y-93624354D01*
X96574354Y-93749853D01*
X96426784Y-93848456D01*
X96262812Y-93916376D01*
X96113512Y-93946073D01*
X96088742Y-93951000D01*
X95911258Y-93951000D01*
X95886488Y-93946073D01*
X95737188Y-93916376D01*
X95573216Y-93848456D01*
X95425646Y-93749853D01*
X95300147Y-93624354D01*
X95201544Y-93476784D01*
X95133624Y-93312812D01*
X95099000Y-93138741D01*
X95099000Y-92961259D01*
X95133624Y-92787188D01*
X95201544Y-92623216D01*
X95300147Y-92475646D01*
X95425646Y-92350147D01*
X95573216Y-92251544D01*
X95737188Y-92183624D01*
X95886488Y-92153927D01*
X95911258Y-92149000D01*
X96088742Y-92149000D01*
X96113512Y-92153927D01*
G37*
G36*
X52113512Y-89613927D02*
G01*
X52262812Y-89643624D01*
X52426784Y-89711544D01*
X52574354Y-89810147D01*
X52699853Y-89935646D01*
X52798456Y-90083216D01*
X52866376Y-90247188D01*
X52901000Y-90421259D01*
X52901000Y-90598741D01*
X52866376Y-90772812D01*
X52798456Y-90936784D01*
X52699853Y-91084354D01*
X52574354Y-91209853D01*
X52426784Y-91308456D01*
X52262812Y-91376376D01*
X52113512Y-91406073D01*
X52088742Y-91411000D01*
X51911258Y-91411000D01*
X51886488Y-91406073D01*
X51737188Y-91376376D01*
X51573216Y-91308456D01*
X51425646Y-91209853D01*
X51300147Y-91084354D01*
X51201544Y-90936784D01*
X51133624Y-90772812D01*
X51099000Y-90598741D01*
X51099000Y-90421259D01*
X51133624Y-90247188D01*
X51201544Y-90083216D01*
X51300147Y-89935646D01*
X51425646Y-89810147D01*
X51573216Y-89711544D01*
X51737188Y-89643624D01*
X51886488Y-89613927D01*
X51911258Y-89609000D01*
X52088742Y-89609000D01*
X52113512Y-89613927D01*
G37*
G36*
X49573512Y-89613927D02*
G01*
X49722812Y-89643624D01*
X49886784Y-89711544D01*
X50034354Y-89810147D01*
X50159853Y-89935646D01*
X50258456Y-90083216D01*
X50326376Y-90247188D01*
X50361000Y-90421259D01*
X50361000Y-90598741D01*
X50326376Y-90772812D01*
X50258456Y-90936784D01*
X50159853Y-91084354D01*
X50034354Y-91209853D01*
X49886784Y-91308456D01*
X49722812Y-91376376D01*
X49573512Y-91406073D01*
X49548742Y-91411000D01*
X49371258Y-91411000D01*
X49346488Y-91406073D01*
X49197188Y-91376376D01*
X49033216Y-91308456D01*
X48885646Y-91209853D01*
X48760147Y-91084354D01*
X48661544Y-90936784D01*
X48593624Y-90772812D01*
X48559000Y-90598741D01*
X48559000Y-90421259D01*
X48593624Y-90247188D01*
X48661544Y-90083216D01*
X48760147Y-89935646D01*
X48885646Y-89810147D01*
X49033216Y-89711544D01*
X49197188Y-89643624D01*
X49346488Y-89613927D01*
X49371258Y-89609000D01*
X49548742Y-89609000D01*
X49573512Y-89613927D01*
G37*
G36*
X96113512Y-89613927D02*
G01*
X96262812Y-89643624D01*
X96426784Y-89711544D01*
X96574354Y-89810147D01*
X96699853Y-89935646D01*
X96798456Y-90083216D01*
X96866376Y-90247188D01*
X96901000Y-90421259D01*
X96901000Y-90598741D01*
X96866376Y-90772812D01*
X96798456Y-90936784D01*
X96699853Y-91084354D01*
X96574354Y-91209853D01*
X96426784Y-91308456D01*
X96262812Y-91376376D01*
X96113512Y-91406073D01*
X96088742Y-91411000D01*
X95911258Y-91411000D01*
X95886488Y-91406073D01*
X95737188Y-91376376D01*
X95573216Y-91308456D01*
X95425646Y-91209853D01*
X95300147Y-91084354D01*
X95201544Y-90936784D01*
X95133624Y-90772812D01*
X95099000Y-90598741D01*
X95099000Y-90421259D01*
X95133624Y-90247188D01*
X95201544Y-90083216D01*
X95300147Y-89935646D01*
X95425646Y-89810147D01*
X95573216Y-89711544D01*
X95737188Y-89643624D01*
X95886488Y-89613927D01*
X95911258Y-89609000D01*
X96088742Y-89609000D01*
X96113512Y-89613927D01*
G37*
G36*
X98673512Y-89613927D02*
G01*
X98822812Y-89643624D01*
X98986784Y-89711544D01*
X99134354Y-89810147D01*
X99259853Y-89935646D01*
X99358456Y-90083216D01*
X99426376Y-90247188D01*
X99461000Y-90421259D01*
X99461000Y-90598741D01*
X99426376Y-90772812D01*
X99358456Y-90936784D01*
X99259853Y-91084354D01*
X99134354Y-91209853D01*
X98986784Y-91308456D01*
X98822812Y-91376376D01*
X98673512Y-91406073D01*
X98648742Y-91411000D01*
X98471258Y-91411000D01*
X98446488Y-91406073D01*
X98297188Y-91376376D01*
X98133216Y-91308456D01*
X97985646Y-91209853D01*
X97860147Y-91084354D01*
X97761544Y-90936784D01*
X97693624Y-90772812D01*
X97659000Y-90598741D01*
X97659000Y-90421259D01*
X97693624Y-90247188D01*
X97761544Y-90083216D01*
X97860147Y-89935646D01*
X97985646Y-89810147D01*
X98133216Y-89711544D01*
X98297188Y-89643624D01*
X98446488Y-89613927D01*
X98471258Y-89609000D01*
X98648742Y-89609000D01*
X98673512Y-89613927D01*
G37*
G36*
X52113512Y-87073927D02*
G01*
X52262812Y-87103624D01*
X52426784Y-87171544D01*
X52574354Y-87270147D01*
X52699853Y-87395646D01*
X52798456Y-87543216D01*
X52866376Y-87707188D01*
X52901000Y-87881259D01*
X52901000Y-88058741D01*
X52866376Y-88232812D01*
X52798456Y-88396784D01*
X52699853Y-88544354D01*
X52574354Y-88669853D01*
X52426784Y-88768456D01*
X52262812Y-88836376D01*
X52113512Y-88866073D01*
X52088742Y-88871000D01*
X51911258Y-88871000D01*
X51886488Y-88866073D01*
X51737188Y-88836376D01*
X51573216Y-88768456D01*
X51425646Y-88669853D01*
X51300147Y-88544354D01*
X51201544Y-88396784D01*
X51133624Y-88232812D01*
X51099000Y-88058741D01*
X51099000Y-87881259D01*
X51133624Y-87707188D01*
X51201544Y-87543216D01*
X51300147Y-87395646D01*
X51425646Y-87270147D01*
X51573216Y-87171544D01*
X51737188Y-87103624D01*
X51886488Y-87073927D01*
X51911258Y-87069000D01*
X52088742Y-87069000D01*
X52113512Y-87073927D01*
G37*
G36*
X98673512Y-87073927D02*
G01*
X98822812Y-87103624D01*
X98986784Y-87171544D01*
X99134354Y-87270147D01*
X99259853Y-87395646D01*
X99358456Y-87543216D01*
X99426376Y-87707188D01*
X99461000Y-87881259D01*
X99461000Y-88058741D01*
X99426376Y-88232812D01*
X99358456Y-88396784D01*
X99259853Y-88544354D01*
X99134354Y-88669853D01*
X98986784Y-88768456D01*
X98822812Y-88836376D01*
X98673512Y-88866073D01*
X98648742Y-88871000D01*
X98471258Y-88871000D01*
X98446488Y-88866073D01*
X98297188Y-88836376D01*
X98133216Y-88768456D01*
X97985646Y-88669853D01*
X97860147Y-88544354D01*
X97761544Y-88396784D01*
X97693624Y-88232812D01*
X97659000Y-88058741D01*
X97659000Y-87881259D01*
X97693624Y-87707188D01*
X97761544Y-87543216D01*
X97860147Y-87395646D01*
X97985646Y-87270147D01*
X98133216Y-87171544D01*
X98297188Y-87103624D01*
X98446488Y-87073927D01*
X98471258Y-87069000D01*
X98648742Y-87069000D01*
X98673512Y-87073927D01*
G37*
G36*
X96113512Y-87073927D02*
G01*
X96262812Y-87103624D01*
X96426784Y-87171544D01*
X96574354Y-87270147D01*
X96699853Y-87395646D01*
X96798456Y-87543216D01*
X96866376Y-87707188D01*
X96901000Y-87881259D01*
X96901000Y-88058741D01*
X96866376Y-88232812D01*
X96798456Y-88396784D01*
X96699853Y-88544354D01*
X96574354Y-88669853D01*
X96426784Y-88768456D01*
X96262812Y-88836376D01*
X96113512Y-88866073D01*
X96088742Y-88871000D01*
X95911258Y-88871000D01*
X95886488Y-88866073D01*
X95737188Y-88836376D01*
X95573216Y-88768456D01*
X95425646Y-88669853D01*
X95300147Y-88544354D01*
X95201544Y-88396784D01*
X95133624Y-88232812D01*
X95099000Y-88058741D01*
X95099000Y-87881259D01*
X95133624Y-87707188D01*
X95201544Y-87543216D01*
X95300147Y-87395646D01*
X95425646Y-87270147D01*
X95573216Y-87171544D01*
X95737188Y-87103624D01*
X95886488Y-87073927D01*
X95911258Y-87069000D01*
X96088742Y-87069000D01*
X96113512Y-87073927D01*
G37*
G36*
X49573512Y-87073927D02*
G01*
X49722812Y-87103624D01*
X49886784Y-87171544D01*
X50034354Y-87270147D01*
X50159853Y-87395646D01*
X50258456Y-87543216D01*
X50326376Y-87707188D01*
X50361000Y-87881259D01*
X50361000Y-88058741D01*
X50326376Y-88232812D01*
X50258456Y-88396784D01*
X50159853Y-88544354D01*
X50034354Y-88669853D01*
X49886784Y-88768456D01*
X49722812Y-88836376D01*
X49573512Y-88866073D01*
X49548742Y-88871000D01*
X49371258Y-88871000D01*
X49346488Y-88866073D01*
X49197188Y-88836376D01*
X49033216Y-88768456D01*
X48885646Y-88669853D01*
X48760147Y-88544354D01*
X48661544Y-88396784D01*
X48593624Y-88232812D01*
X48559000Y-88058741D01*
X48559000Y-87881259D01*
X48593624Y-87707188D01*
X48661544Y-87543216D01*
X48760147Y-87395646D01*
X48885646Y-87270147D01*
X49033216Y-87171544D01*
X49197188Y-87103624D01*
X49346488Y-87073927D01*
X49371258Y-87069000D01*
X49548742Y-87069000D01*
X49573512Y-87073927D01*
G37*
G36*
X49573512Y-84533927D02*
G01*
X49722812Y-84563624D01*
X49886784Y-84631544D01*
X50034354Y-84730147D01*
X50159853Y-84855646D01*
X50258456Y-85003216D01*
X50326376Y-85167188D01*
X50361000Y-85341259D01*
X50361000Y-85518741D01*
X50326376Y-85692812D01*
X50258456Y-85856784D01*
X50159853Y-86004354D01*
X50034354Y-86129853D01*
X49886784Y-86228456D01*
X49722812Y-86296376D01*
X49573512Y-86326073D01*
X49548742Y-86331000D01*
X49371258Y-86331000D01*
X49346488Y-86326073D01*
X49197188Y-86296376D01*
X49033216Y-86228456D01*
X48885646Y-86129853D01*
X48760147Y-86004354D01*
X48661544Y-85856784D01*
X48593624Y-85692812D01*
X48559000Y-85518741D01*
X48559000Y-85341259D01*
X48593624Y-85167188D01*
X48661544Y-85003216D01*
X48760147Y-84855646D01*
X48885646Y-84730147D01*
X49033216Y-84631544D01*
X49197188Y-84563624D01*
X49346488Y-84533927D01*
X49371258Y-84529000D01*
X49548742Y-84529000D01*
X49573512Y-84533927D01*
G37*
G36*
X96113512Y-84533927D02*
G01*
X96262812Y-84563624D01*
X96426784Y-84631544D01*
X96574354Y-84730147D01*
X96699853Y-84855646D01*
X96798456Y-85003216D01*
X96866376Y-85167188D01*
X96901000Y-85341259D01*
X96901000Y-85518741D01*
X96866376Y-85692812D01*
X96798456Y-85856784D01*
X96699853Y-86004354D01*
X96574354Y-86129853D01*
X96426784Y-86228456D01*
X96262812Y-86296376D01*
X96113512Y-86326073D01*
X96088742Y-86331000D01*
X95911258Y-86331000D01*
X95886488Y-86326073D01*
X95737188Y-86296376D01*
X95573216Y-86228456D01*
X95425646Y-86129853D01*
X95300147Y-86004354D01*
X95201544Y-85856784D01*
X95133624Y-85692812D01*
X95099000Y-85518741D01*
X95099000Y-85341259D01*
X95133624Y-85167188D01*
X95201544Y-85003216D01*
X95300147Y-84855646D01*
X95425646Y-84730147D01*
X95573216Y-84631544D01*
X95737188Y-84563624D01*
X95886488Y-84533927D01*
X95911258Y-84529000D01*
X96088742Y-84529000D01*
X96113512Y-84533927D01*
G37*
G36*
X98673512Y-84533927D02*
G01*
X98822812Y-84563624D01*
X98986784Y-84631544D01*
X99134354Y-84730147D01*
X99259853Y-84855646D01*
X99358456Y-85003216D01*
X99426376Y-85167188D01*
X99461000Y-85341259D01*
X99461000Y-85518741D01*
X99426376Y-85692812D01*
X99358456Y-85856784D01*
X99259853Y-86004354D01*
X99134354Y-86129853D01*
X98986784Y-86228456D01*
X98822812Y-86296376D01*
X98673512Y-86326073D01*
X98648742Y-86331000D01*
X98471258Y-86331000D01*
X98446488Y-86326073D01*
X98297188Y-86296376D01*
X98133216Y-86228456D01*
X97985646Y-86129853D01*
X97860147Y-86004354D01*
X97761544Y-85856784D01*
X97693624Y-85692812D01*
X97659000Y-85518741D01*
X97659000Y-85341259D01*
X97693624Y-85167188D01*
X97761544Y-85003216D01*
X97860147Y-84855646D01*
X97985646Y-84730147D01*
X98133216Y-84631544D01*
X98297188Y-84563624D01*
X98446488Y-84533927D01*
X98471258Y-84529000D01*
X98648742Y-84529000D01*
X98673512Y-84533927D01*
G37*
G36*
X52113512Y-84533927D02*
G01*
X52262812Y-84563624D01*
X52426784Y-84631544D01*
X52574354Y-84730147D01*
X52699853Y-84855646D01*
X52798456Y-85003216D01*
X52866376Y-85167188D01*
X52901000Y-85341259D01*
X52901000Y-85518741D01*
X52866376Y-85692812D01*
X52798456Y-85856784D01*
X52699853Y-86004354D01*
X52574354Y-86129853D01*
X52426784Y-86228456D01*
X52262812Y-86296376D01*
X52113512Y-86326073D01*
X52088742Y-86331000D01*
X51911258Y-86331000D01*
X51886488Y-86326073D01*
X51737188Y-86296376D01*
X51573216Y-86228456D01*
X51425646Y-86129853D01*
X51300147Y-86004354D01*
X51201544Y-85856784D01*
X51133624Y-85692812D01*
X51099000Y-85518741D01*
X51099000Y-85341259D01*
X51133624Y-85167188D01*
X51201544Y-85003216D01*
X51300147Y-84855646D01*
X51425646Y-84730147D01*
X51573216Y-84631544D01*
X51737188Y-84563624D01*
X51886488Y-84533927D01*
X51911258Y-84529000D01*
X52088742Y-84529000D01*
X52113512Y-84533927D01*
G37*
G36*
X96113512Y-81993927D02*
G01*
X96262812Y-82023624D01*
X96426784Y-82091544D01*
X96574354Y-82190147D01*
X96699853Y-82315646D01*
X96798456Y-82463216D01*
X96866376Y-82627188D01*
X96901000Y-82801259D01*
X96901000Y-82978741D01*
X96866376Y-83152812D01*
X96798456Y-83316784D01*
X96699853Y-83464354D01*
X96574354Y-83589853D01*
X96426784Y-83688456D01*
X96262812Y-83756376D01*
X96113512Y-83786073D01*
X96088742Y-83791000D01*
X95911258Y-83791000D01*
X95886488Y-83786073D01*
X95737188Y-83756376D01*
X95573216Y-83688456D01*
X95425646Y-83589853D01*
X95300147Y-83464354D01*
X95201544Y-83316784D01*
X95133624Y-83152812D01*
X95099000Y-82978741D01*
X95099000Y-82801259D01*
X95133624Y-82627188D01*
X95201544Y-82463216D01*
X95300147Y-82315646D01*
X95425646Y-82190147D01*
X95573216Y-82091544D01*
X95737188Y-82023624D01*
X95886488Y-81993927D01*
X95911258Y-81989000D01*
X96088742Y-81989000D01*
X96113512Y-81993927D01*
G37*
G36*
X98673512Y-81993927D02*
G01*
X98822812Y-82023624D01*
X98986784Y-82091544D01*
X99134354Y-82190147D01*
X99259853Y-82315646D01*
X99358456Y-82463216D01*
X99426376Y-82627188D01*
X99461000Y-82801259D01*
X99461000Y-82978741D01*
X99426376Y-83152812D01*
X99358456Y-83316784D01*
X99259853Y-83464354D01*
X99134354Y-83589853D01*
X98986784Y-83688456D01*
X98822812Y-83756376D01*
X98673512Y-83786073D01*
X98648742Y-83791000D01*
X98471258Y-83791000D01*
X98446488Y-83786073D01*
X98297188Y-83756376D01*
X98133216Y-83688456D01*
X97985646Y-83589853D01*
X97860147Y-83464354D01*
X97761544Y-83316784D01*
X97693624Y-83152812D01*
X97659000Y-82978741D01*
X97659000Y-82801259D01*
X97693624Y-82627188D01*
X97761544Y-82463216D01*
X97860147Y-82315646D01*
X97985646Y-82190147D01*
X98133216Y-82091544D01*
X98297188Y-82023624D01*
X98446488Y-81993927D01*
X98471258Y-81989000D01*
X98648742Y-81989000D01*
X98673512Y-81993927D01*
G37*
G36*
X52113512Y-81993927D02*
G01*
X52262812Y-82023624D01*
X52426784Y-82091544D01*
X52574354Y-82190147D01*
X52699853Y-82315646D01*
X52798456Y-82463216D01*
X52866376Y-82627188D01*
X52901000Y-82801259D01*
X52901000Y-82978741D01*
X52866376Y-83152812D01*
X52798456Y-83316784D01*
X52699853Y-83464354D01*
X52574354Y-83589853D01*
X52426784Y-83688456D01*
X52262812Y-83756376D01*
X52113512Y-83786073D01*
X52088742Y-83791000D01*
X51911258Y-83791000D01*
X51886488Y-83786073D01*
X51737188Y-83756376D01*
X51573216Y-83688456D01*
X51425646Y-83589853D01*
X51300147Y-83464354D01*
X51201544Y-83316784D01*
X51133624Y-83152812D01*
X51099000Y-82978741D01*
X51099000Y-82801259D01*
X51133624Y-82627188D01*
X51201544Y-82463216D01*
X51300147Y-82315646D01*
X51425646Y-82190147D01*
X51573216Y-82091544D01*
X51737188Y-82023624D01*
X51886488Y-81993927D01*
X51911258Y-81989000D01*
X52088742Y-81989000D01*
X52113512Y-81993927D01*
G37*
G36*
X49573512Y-81993927D02*
G01*
X49722812Y-82023624D01*
X49886784Y-82091544D01*
X50034354Y-82190147D01*
X50159853Y-82315646D01*
X50258456Y-82463216D01*
X50326376Y-82627188D01*
X50361000Y-82801259D01*
X50361000Y-82978741D01*
X50326376Y-83152812D01*
X50258456Y-83316784D01*
X50159853Y-83464354D01*
X50034354Y-83589853D01*
X49886784Y-83688456D01*
X49722812Y-83756376D01*
X49573512Y-83786073D01*
X49548742Y-83791000D01*
X49371258Y-83791000D01*
X49346488Y-83786073D01*
X49197188Y-83756376D01*
X49033216Y-83688456D01*
X48885646Y-83589853D01*
X48760147Y-83464354D01*
X48661544Y-83316784D01*
X48593624Y-83152812D01*
X48559000Y-82978741D01*
X48559000Y-82801259D01*
X48593624Y-82627188D01*
X48661544Y-82463216D01*
X48760147Y-82315646D01*
X48885646Y-82190147D01*
X49033216Y-82091544D01*
X49197188Y-82023624D01*
X49346488Y-81993927D01*
X49371258Y-81989000D01*
X49548742Y-81989000D01*
X49573512Y-81993927D01*
G37*
G36*
X52113512Y-79453927D02*
G01*
X52262812Y-79483624D01*
X52426784Y-79551544D01*
X52574354Y-79650147D01*
X52699853Y-79775646D01*
X52798456Y-79923216D01*
X52866376Y-80087188D01*
X52901000Y-80261259D01*
X52901000Y-80438741D01*
X52866376Y-80612812D01*
X52798456Y-80776784D01*
X52699853Y-80924354D01*
X52574354Y-81049853D01*
X52426784Y-81148456D01*
X52262812Y-81216376D01*
X52113512Y-81246073D01*
X52088742Y-81251000D01*
X51911258Y-81251000D01*
X51886488Y-81246073D01*
X51737188Y-81216376D01*
X51573216Y-81148456D01*
X51425646Y-81049853D01*
X51300147Y-80924354D01*
X51201544Y-80776784D01*
X51133624Y-80612812D01*
X51099000Y-80438741D01*
X51099000Y-80261259D01*
X51133624Y-80087188D01*
X51201544Y-79923216D01*
X51300147Y-79775646D01*
X51425646Y-79650147D01*
X51573216Y-79551544D01*
X51737188Y-79483624D01*
X51886488Y-79453927D01*
X51911258Y-79449000D01*
X52088742Y-79449000D01*
X52113512Y-79453927D01*
G37*
G36*
X49573512Y-79453927D02*
G01*
X49722812Y-79483624D01*
X49886784Y-79551544D01*
X50034354Y-79650147D01*
X50159853Y-79775646D01*
X50258456Y-79923216D01*
X50326376Y-80087188D01*
X50361000Y-80261259D01*
X50361000Y-80438741D01*
X50326376Y-80612812D01*
X50258456Y-80776784D01*
X50159853Y-80924354D01*
X50034354Y-81049853D01*
X49886784Y-81148456D01*
X49722812Y-81216376D01*
X49573512Y-81246073D01*
X49548742Y-81251000D01*
X49371258Y-81251000D01*
X49346488Y-81246073D01*
X49197188Y-81216376D01*
X49033216Y-81148456D01*
X48885646Y-81049853D01*
X48760147Y-80924354D01*
X48661544Y-80776784D01*
X48593624Y-80612812D01*
X48559000Y-80438741D01*
X48559000Y-80261259D01*
X48593624Y-80087188D01*
X48661544Y-79923216D01*
X48760147Y-79775646D01*
X48885646Y-79650147D01*
X49033216Y-79551544D01*
X49197188Y-79483624D01*
X49346488Y-79453927D01*
X49371258Y-79449000D01*
X49548742Y-79449000D01*
X49573512Y-79453927D01*
G37*
G36*
X96113512Y-79453927D02*
G01*
X96262812Y-79483624D01*
X96426784Y-79551544D01*
X96574354Y-79650147D01*
X96699853Y-79775646D01*
X96798456Y-79923216D01*
X96866376Y-80087188D01*
X96901000Y-80261259D01*
X96901000Y-80438741D01*
X96866376Y-80612812D01*
X96798456Y-80776784D01*
X96699853Y-80924354D01*
X96574354Y-81049853D01*
X96426784Y-81148456D01*
X96262812Y-81216376D01*
X96113512Y-81246073D01*
X96088742Y-81251000D01*
X95911258Y-81251000D01*
X95886488Y-81246073D01*
X95737188Y-81216376D01*
X95573216Y-81148456D01*
X95425646Y-81049853D01*
X95300147Y-80924354D01*
X95201544Y-80776784D01*
X95133624Y-80612812D01*
X95099000Y-80438741D01*
X95099000Y-80261259D01*
X95133624Y-80087188D01*
X95201544Y-79923216D01*
X95300147Y-79775646D01*
X95425646Y-79650147D01*
X95573216Y-79551544D01*
X95737188Y-79483624D01*
X95886488Y-79453927D01*
X95911258Y-79449000D01*
X96088742Y-79449000D01*
X96113512Y-79453927D01*
G37*
G36*
X98673512Y-79453927D02*
G01*
X98822812Y-79483624D01*
X98986784Y-79551544D01*
X99134354Y-79650147D01*
X99259853Y-79775646D01*
X99358456Y-79923216D01*
X99426376Y-80087188D01*
X99461000Y-80261259D01*
X99461000Y-80438741D01*
X99426376Y-80612812D01*
X99358456Y-80776784D01*
X99259853Y-80924354D01*
X99134354Y-81049853D01*
X98986784Y-81148456D01*
X98822812Y-81216376D01*
X98673512Y-81246073D01*
X98648742Y-81251000D01*
X98471258Y-81251000D01*
X98446488Y-81246073D01*
X98297188Y-81216376D01*
X98133216Y-81148456D01*
X97985646Y-81049853D01*
X97860147Y-80924354D01*
X97761544Y-80776784D01*
X97693624Y-80612812D01*
X97659000Y-80438741D01*
X97659000Y-80261259D01*
X97693624Y-80087188D01*
X97761544Y-79923216D01*
X97860147Y-79775646D01*
X97985646Y-79650147D01*
X98133216Y-79551544D01*
X98297188Y-79483624D01*
X98446488Y-79453927D01*
X98471258Y-79449000D01*
X98648742Y-79449000D01*
X98673512Y-79453927D01*
G37*
G36*
X52113512Y-76913927D02*
G01*
X52262812Y-76943624D01*
X52426784Y-77011544D01*
X52574354Y-77110147D01*
X52699853Y-77235646D01*
X52798456Y-77383216D01*
X52866376Y-77547188D01*
X52901000Y-77721259D01*
X52901000Y-77898741D01*
X52866376Y-78072812D01*
X52798456Y-78236784D01*
X52699853Y-78384354D01*
X52574354Y-78509853D01*
X52426784Y-78608456D01*
X52262812Y-78676376D01*
X52113512Y-78706073D01*
X52088742Y-78711000D01*
X51911258Y-78711000D01*
X51886488Y-78706073D01*
X51737188Y-78676376D01*
X51573216Y-78608456D01*
X51425646Y-78509853D01*
X51300147Y-78384354D01*
X51201544Y-78236784D01*
X51133624Y-78072812D01*
X51099000Y-77898741D01*
X51099000Y-77721259D01*
X51133624Y-77547188D01*
X51201544Y-77383216D01*
X51300147Y-77235646D01*
X51425646Y-77110147D01*
X51573216Y-77011544D01*
X51737188Y-76943624D01*
X51886488Y-76913927D01*
X51911258Y-76909000D01*
X52088742Y-76909000D01*
X52113512Y-76913927D01*
G37*
G36*
X98673512Y-76913927D02*
G01*
X98822812Y-76943624D01*
X98986784Y-77011544D01*
X99134354Y-77110147D01*
X99259853Y-77235646D01*
X99358456Y-77383216D01*
X99426376Y-77547188D01*
X99461000Y-77721259D01*
X99461000Y-77898741D01*
X99426376Y-78072812D01*
X99358456Y-78236784D01*
X99259853Y-78384354D01*
X99134354Y-78509853D01*
X98986784Y-78608456D01*
X98822812Y-78676376D01*
X98673512Y-78706073D01*
X98648742Y-78711000D01*
X98471258Y-78711000D01*
X98446488Y-78706073D01*
X98297188Y-78676376D01*
X98133216Y-78608456D01*
X97985646Y-78509853D01*
X97860147Y-78384354D01*
X97761544Y-78236784D01*
X97693624Y-78072812D01*
X97659000Y-77898741D01*
X97659000Y-77721259D01*
X97693624Y-77547188D01*
X97761544Y-77383216D01*
X97860147Y-77235646D01*
X97985646Y-77110147D01*
X98133216Y-77011544D01*
X98297188Y-76943624D01*
X98446488Y-76913927D01*
X98471258Y-76909000D01*
X98648742Y-76909000D01*
X98673512Y-76913927D01*
G37*
G36*
X96113512Y-76913927D02*
G01*
X96262812Y-76943624D01*
X96426784Y-77011544D01*
X96574354Y-77110147D01*
X96699853Y-77235646D01*
X96798456Y-77383216D01*
X96866376Y-77547188D01*
X96901000Y-77721259D01*
X96901000Y-77898741D01*
X96866376Y-78072812D01*
X96798456Y-78236784D01*
X96699853Y-78384354D01*
X96574354Y-78509853D01*
X96426784Y-78608456D01*
X96262812Y-78676376D01*
X96113512Y-78706073D01*
X96088742Y-78711000D01*
X95911258Y-78711000D01*
X95886488Y-78706073D01*
X95737188Y-78676376D01*
X95573216Y-78608456D01*
X95425646Y-78509853D01*
X95300147Y-78384354D01*
X95201544Y-78236784D01*
X95133624Y-78072812D01*
X95099000Y-77898741D01*
X95099000Y-77721259D01*
X95133624Y-77547188D01*
X95201544Y-77383216D01*
X95300147Y-77235646D01*
X95425646Y-77110147D01*
X95573216Y-77011544D01*
X95737188Y-76943624D01*
X95886488Y-76913927D01*
X95911258Y-76909000D01*
X96088742Y-76909000D01*
X96113512Y-76913927D01*
G37*
G36*
X49573512Y-76913927D02*
G01*
X49722812Y-76943624D01*
X49886784Y-77011544D01*
X50034354Y-77110147D01*
X50159853Y-77235646D01*
X50258456Y-77383216D01*
X50326376Y-77547188D01*
X50361000Y-77721259D01*
X50361000Y-77898741D01*
X50326376Y-78072812D01*
X50258456Y-78236784D01*
X50159853Y-78384354D01*
X50034354Y-78509853D01*
X49886784Y-78608456D01*
X49722812Y-78676376D01*
X49573512Y-78706073D01*
X49548742Y-78711000D01*
X49371258Y-78711000D01*
X49346488Y-78706073D01*
X49197188Y-78676376D01*
X49033216Y-78608456D01*
X48885646Y-78509853D01*
X48760147Y-78384354D01*
X48661544Y-78236784D01*
X48593624Y-78072812D01*
X48559000Y-77898741D01*
X48559000Y-77721259D01*
X48593624Y-77547188D01*
X48661544Y-77383216D01*
X48760147Y-77235646D01*
X48885646Y-77110147D01*
X49033216Y-77011544D01*
X49197188Y-76943624D01*
X49346488Y-76913927D01*
X49371258Y-76909000D01*
X49548742Y-76909000D01*
X49573512Y-76913927D01*
G37*
G36*
X77556564Y-75239389D02*
G01*
X77747833Y-75318615D01*
X77747835Y-75318616D01*
X77919973Y-75433635D01*
X78066365Y-75580027D01*
X78144380Y-75696784D01*
X78181385Y-75752167D01*
X78260611Y-75943436D01*
X78301000Y-76146484D01*
X78301000Y-76353516D01*
X78260611Y-76556564D01*
X78181385Y-76747833D01*
X78181384Y-76747835D01*
X78066365Y-76919973D01*
X77919973Y-77066365D01*
X77747835Y-77181384D01*
X77747834Y-77181385D01*
X77747833Y-77181385D01*
X77556564Y-77260611D01*
X77353516Y-77301000D01*
X77146484Y-77301000D01*
X76943436Y-77260611D01*
X76752167Y-77181385D01*
X76752166Y-77181385D01*
X76752165Y-77181384D01*
X76580027Y-77066365D01*
X76433635Y-76919973D01*
X76318616Y-76747835D01*
X76318615Y-76747833D01*
X76239389Y-76556564D01*
X76199000Y-76353516D01*
X76199000Y-76146484D01*
X76239389Y-75943436D01*
X76318615Y-75752167D01*
X76355621Y-75696784D01*
X76433635Y-75580027D01*
X76580027Y-75433635D01*
X76752165Y-75318616D01*
X76752167Y-75318615D01*
X76943436Y-75239389D01*
X77146484Y-75199000D01*
X77353516Y-75199000D01*
X77556564Y-75239389D01*
G37*
G36*
X71056564Y-75239389D02*
G01*
X71247833Y-75318615D01*
X71247835Y-75318616D01*
X71419973Y-75433635D01*
X71566365Y-75580027D01*
X71644380Y-75696784D01*
X71681385Y-75752167D01*
X71760611Y-75943436D01*
X71801000Y-76146484D01*
X71801000Y-76353516D01*
X71760611Y-76556564D01*
X71681385Y-76747833D01*
X71681384Y-76747835D01*
X71566365Y-76919973D01*
X71419973Y-77066365D01*
X71247835Y-77181384D01*
X71247834Y-77181385D01*
X71247833Y-77181385D01*
X71056564Y-77260611D01*
X70853516Y-77301000D01*
X70646484Y-77301000D01*
X70443436Y-77260611D01*
X70252167Y-77181385D01*
X70252166Y-77181385D01*
X70252165Y-77181384D01*
X70080027Y-77066365D01*
X69933635Y-76919973D01*
X69818616Y-76747835D01*
X69818615Y-76747833D01*
X69739389Y-76556564D01*
X69699000Y-76353516D01*
X69699000Y-76146484D01*
X69739389Y-75943436D01*
X69818615Y-75752167D01*
X69855621Y-75696784D01*
X69933635Y-75580027D01*
X70080027Y-75433635D01*
X70252165Y-75318616D01*
X70252167Y-75318615D01*
X70443436Y-75239389D01*
X70646484Y-75199000D01*
X70853516Y-75199000D01*
X71056564Y-75239389D01*
G37*
G36*
X49573512Y-74373927D02*
G01*
X49722812Y-74403624D01*
X49886784Y-74471544D01*
X50034354Y-74570147D01*
X50159853Y-74695646D01*
X50258456Y-74843216D01*
X50326376Y-75007188D01*
X50361000Y-75181259D01*
X50361000Y-75358741D01*
X50326376Y-75532812D01*
X50258456Y-75696784D01*
X50159853Y-75844354D01*
X50034354Y-75969853D01*
X49886784Y-76068456D01*
X49722812Y-76136376D01*
X49573512Y-76166073D01*
X49548742Y-76171000D01*
X49371258Y-76171000D01*
X49346488Y-76166073D01*
X49197188Y-76136376D01*
X49033216Y-76068456D01*
X48885646Y-75969853D01*
X48760147Y-75844354D01*
X48661544Y-75696784D01*
X48593624Y-75532812D01*
X48559000Y-75358741D01*
X48559000Y-75181259D01*
X48593624Y-75007188D01*
X48661544Y-74843216D01*
X48760147Y-74695646D01*
X48885646Y-74570147D01*
X49033216Y-74471544D01*
X49197188Y-74403624D01*
X49346488Y-74373927D01*
X49371258Y-74369000D01*
X49548742Y-74369000D01*
X49573512Y-74373927D01*
G37*
G36*
X98673512Y-74373927D02*
G01*
X98822812Y-74403624D01*
X98986784Y-74471544D01*
X99134354Y-74570147D01*
X99259853Y-74695646D01*
X99358456Y-74843216D01*
X99426376Y-75007188D01*
X99461000Y-75181259D01*
X99461000Y-75358741D01*
X99426376Y-75532812D01*
X99358456Y-75696784D01*
X99259853Y-75844354D01*
X99134354Y-75969853D01*
X98986784Y-76068456D01*
X98822812Y-76136376D01*
X98673512Y-76166073D01*
X98648742Y-76171000D01*
X98471258Y-76171000D01*
X98446488Y-76166073D01*
X98297188Y-76136376D01*
X98133216Y-76068456D01*
X97985646Y-75969853D01*
X97860147Y-75844354D01*
X97761544Y-75696784D01*
X97693624Y-75532812D01*
X97659000Y-75358741D01*
X97659000Y-75181259D01*
X97693624Y-75007188D01*
X97761544Y-74843216D01*
X97860147Y-74695646D01*
X97985646Y-74570147D01*
X98133216Y-74471544D01*
X98297188Y-74403624D01*
X98446488Y-74373927D01*
X98471258Y-74369000D01*
X98648742Y-74369000D01*
X98673512Y-74373927D01*
G37*
G36*
X96113512Y-74373927D02*
G01*
X96262812Y-74403624D01*
X96426784Y-74471544D01*
X96574354Y-74570147D01*
X96699853Y-74695646D01*
X96798456Y-74843216D01*
X96866376Y-75007188D01*
X96901000Y-75181259D01*
X96901000Y-75358741D01*
X96866376Y-75532812D01*
X96798456Y-75696784D01*
X96699853Y-75844354D01*
X96574354Y-75969853D01*
X96426784Y-76068456D01*
X96262812Y-76136376D01*
X96113512Y-76166073D01*
X96088742Y-76171000D01*
X95911258Y-76171000D01*
X95886488Y-76166073D01*
X95737188Y-76136376D01*
X95573216Y-76068456D01*
X95425646Y-75969853D01*
X95300147Y-75844354D01*
X95201544Y-75696784D01*
X95133624Y-75532812D01*
X95099000Y-75358741D01*
X95099000Y-75181259D01*
X95133624Y-75007188D01*
X95201544Y-74843216D01*
X95300147Y-74695646D01*
X95425646Y-74570147D01*
X95573216Y-74471544D01*
X95737188Y-74403624D01*
X95886488Y-74373927D01*
X95911258Y-74369000D01*
X96088742Y-74369000D01*
X96113512Y-74373927D01*
G37*
G36*
X52113512Y-74373927D02*
G01*
X52262812Y-74403624D01*
X52426784Y-74471544D01*
X52574354Y-74570147D01*
X52699853Y-74695646D01*
X52798456Y-74843216D01*
X52866376Y-75007188D01*
X52901000Y-75181259D01*
X52901000Y-75358741D01*
X52866376Y-75532812D01*
X52798456Y-75696784D01*
X52699853Y-75844354D01*
X52574354Y-75969853D01*
X52426784Y-76068456D01*
X52262812Y-76136376D01*
X52113512Y-76166073D01*
X52088742Y-76171000D01*
X51911258Y-76171000D01*
X51886488Y-76166073D01*
X51737188Y-76136376D01*
X51573216Y-76068456D01*
X51425646Y-75969853D01*
X51300147Y-75844354D01*
X51201544Y-75696784D01*
X51133624Y-75532812D01*
X51099000Y-75358741D01*
X51099000Y-75181259D01*
X51133624Y-75007188D01*
X51201544Y-74843216D01*
X51300147Y-74695646D01*
X51425646Y-74570147D01*
X51573216Y-74471544D01*
X51737188Y-74403624D01*
X51886488Y-74373927D01*
X51911258Y-74369000D01*
X52088742Y-74369000D01*
X52113512Y-74373927D01*
G37*
G36*
X96113512Y-71833927D02*
G01*
X96262812Y-71863624D01*
X96426784Y-71931544D01*
X96574354Y-72030147D01*
X96699853Y-72155646D01*
X96798456Y-72303216D01*
X96866376Y-72467188D01*
X96901000Y-72641259D01*
X96901000Y-72818741D01*
X96866376Y-72992812D01*
X96798456Y-73156784D01*
X96699853Y-73304354D01*
X96574354Y-73429853D01*
X96426784Y-73528456D01*
X96262812Y-73596376D01*
X96113512Y-73626073D01*
X96088742Y-73631000D01*
X95911258Y-73631000D01*
X95886488Y-73626073D01*
X95737188Y-73596376D01*
X95573216Y-73528456D01*
X95425646Y-73429853D01*
X95300147Y-73304354D01*
X95201544Y-73156784D01*
X95133624Y-72992812D01*
X95099000Y-72818741D01*
X95099000Y-72641259D01*
X95133624Y-72467188D01*
X95201544Y-72303216D01*
X95300147Y-72155646D01*
X95425646Y-72030147D01*
X95573216Y-71931544D01*
X95737188Y-71863624D01*
X95886488Y-71833927D01*
X95911258Y-71829000D01*
X96088742Y-71829000D01*
X96113512Y-71833927D01*
G37*
G36*
X52113512Y-71833927D02*
G01*
X52262812Y-71863624D01*
X52426784Y-71931544D01*
X52574354Y-72030147D01*
X52699853Y-72155646D01*
X52798456Y-72303216D01*
X52866376Y-72467188D01*
X52901000Y-72641259D01*
X52901000Y-72818741D01*
X52866376Y-72992812D01*
X52798456Y-73156784D01*
X52699853Y-73304354D01*
X52574354Y-73429853D01*
X52426784Y-73528456D01*
X52262812Y-73596376D01*
X52113512Y-73626073D01*
X52088742Y-73631000D01*
X51911258Y-73631000D01*
X51886488Y-73626073D01*
X51737188Y-73596376D01*
X51573216Y-73528456D01*
X51425646Y-73429853D01*
X51300147Y-73304354D01*
X51201544Y-73156784D01*
X51133624Y-72992812D01*
X51099000Y-72818741D01*
X51099000Y-72641259D01*
X51133624Y-72467188D01*
X51201544Y-72303216D01*
X51300147Y-72155646D01*
X51425646Y-72030147D01*
X51573216Y-71931544D01*
X51737188Y-71863624D01*
X51886488Y-71833927D01*
X51911258Y-71829000D01*
X52088742Y-71829000D01*
X52113512Y-71833927D01*
G37*
G36*
X49573512Y-71833927D02*
G01*
X49722812Y-71863624D01*
X49886784Y-71931544D01*
X50034354Y-72030147D01*
X50159853Y-72155646D01*
X50258456Y-72303216D01*
X50326376Y-72467188D01*
X50361000Y-72641259D01*
X50361000Y-72818741D01*
X50326376Y-72992812D01*
X50258456Y-73156784D01*
X50159853Y-73304354D01*
X50034354Y-73429853D01*
X49886784Y-73528456D01*
X49722812Y-73596376D01*
X49573512Y-73626073D01*
X49548742Y-73631000D01*
X49371258Y-73631000D01*
X49346488Y-73626073D01*
X49197188Y-73596376D01*
X49033216Y-73528456D01*
X48885646Y-73429853D01*
X48760147Y-73304354D01*
X48661544Y-73156784D01*
X48593624Y-72992812D01*
X48559000Y-72818741D01*
X48559000Y-72641259D01*
X48593624Y-72467188D01*
X48661544Y-72303216D01*
X48760147Y-72155646D01*
X48885646Y-72030147D01*
X49033216Y-71931544D01*
X49197188Y-71863624D01*
X49346488Y-71833927D01*
X49371258Y-71829000D01*
X49548742Y-71829000D01*
X49573512Y-71833927D01*
G37*
G36*
X98673512Y-71833927D02*
G01*
X98822812Y-71863624D01*
X98986784Y-71931544D01*
X99134354Y-72030147D01*
X99259853Y-72155646D01*
X99358456Y-72303216D01*
X99426376Y-72467188D01*
X99461000Y-72641259D01*
X99461000Y-72818741D01*
X99426376Y-72992812D01*
X99358456Y-73156784D01*
X99259853Y-73304354D01*
X99134354Y-73429853D01*
X98986784Y-73528456D01*
X98822812Y-73596376D01*
X98673512Y-73626073D01*
X98648742Y-73631000D01*
X98471258Y-73631000D01*
X98446488Y-73626073D01*
X98297188Y-73596376D01*
X98133216Y-73528456D01*
X97985646Y-73429853D01*
X97860147Y-73304354D01*
X97761544Y-73156784D01*
X97693624Y-72992812D01*
X97659000Y-72818741D01*
X97659000Y-72641259D01*
X97693624Y-72467188D01*
X97761544Y-72303216D01*
X97860147Y-72155646D01*
X97985646Y-72030147D01*
X98133216Y-71931544D01*
X98297188Y-71863624D01*
X98446488Y-71833927D01*
X98471258Y-71829000D01*
X98648742Y-71829000D01*
X98673512Y-71833927D01*
G37*
G36*
X71056564Y-70739389D02*
G01*
X71247833Y-70818615D01*
X71247835Y-70818616D01*
X71419973Y-70933635D01*
X71566365Y-71080027D01*
X71681385Y-71252167D01*
X71760611Y-71443436D01*
X71801000Y-71646484D01*
X71801000Y-71853516D01*
X71760611Y-72056564D01*
X71681385Y-72247833D01*
X71681384Y-72247835D01*
X71566365Y-72419973D01*
X71419973Y-72566365D01*
X71247835Y-72681384D01*
X71247834Y-72681385D01*
X71247833Y-72681385D01*
X71056564Y-72760611D01*
X70853516Y-72801000D01*
X70646484Y-72801000D01*
X70443436Y-72760611D01*
X70252167Y-72681385D01*
X70252166Y-72681385D01*
X70252165Y-72681384D01*
X70080027Y-72566365D01*
X69933635Y-72419973D01*
X69818616Y-72247835D01*
X69818615Y-72247833D01*
X69739389Y-72056564D01*
X69699000Y-71853516D01*
X69699000Y-71646484D01*
X69739389Y-71443436D01*
X69818615Y-71252167D01*
X69933635Y-71080027D01*
X70080027Y-70933635D01*
X70252165Y-70818616D01*
X70252167Y-70818615D01*
X70443436Y-70739389D01*
X70646484Y-70699000D01*
X70853516Y-70699000D01*
X71056564Y-70739389D01*
G37*
G36*
X77556564Y-70739389D02*
G01*
X77747833Y-70818615D01*
X77747835Y-70818616D01*
X77919973Y-70933635D01*
X78066365Y-71080027D01*
X78181385Y-71252167D01*
X78260611Y-71443436D01*
X78301000Y-71646484D01*
X78301000Y-71853516D01*
X78260611Y-72056564D01*
X78181385Y-72247833D01*
X78181384Y-72247835D01*
X78066365Y-72419973D01*
X77919973Y-72566365D01*
X77747835Y-72681384D01*
X77747834Y-72681385D01*
X77747833Y-72681385D01*
X77556564Y-72760611D01*
X77353516Y-72801000D01*
X77146484Y-72801000D01*
X76943436Y-72760611D01*
X76752167Y-72681385D01*
X76752166Y-72681385D01*
X76752165Y-72681384D01*
X76580027Y-72566365D01*
X76433635Y-72419973D01*
X76318616Y-72247835D01*
X76318615Y-72247833D01*
X76239389Y-72056564D01*
X76199000Y-71853516D01*
X76199000Y-71646484D01*
X76239389Y-71443436D01*
X76318615Y-71252167D01*
X76433635Y-71080027D01*
X76580027Y-70933635D01*
X76752165Y-70818616D01*
X76752167Y-70818615D01*
X76943436Y-70739389D01*
X77146484Y-70699000D01*
X77353516Y-70699000D01*
X77556564Y-70739389D01*
G37*
G36*
X49573512Y-69293927D02*
G01*
X49722812Y-69323624D01*
X49886784Y-69391544D01*
X50034354Y-69490147D01*
X50159853Y-69615646D01*
X50258456Y-69763216D01*
X50326376Y-69927188D01*
X50361000Y-70101259D01*
X50361000Y-70278741D01*
X50326376Y-70452812D01*
X50258456Y-70616784D01*
X50159853Y-70764354D01*
X50034354Y-70889853D01*
X49886784Y-70988456D01*
X49722812Y-71056376D01*
X49573512Y-71086073D01*
X49548742Y-71091000D01*
X49371258Y-71091000D01*
X49346488Y-71086073D01*
X49197188Y-71056376D01*
X49033216Y-70988456D01*
X48885646Y-70889853D01*
X48760147Y-70764354D01*
X48661544Y-70616784D01*
X48593624Y-70452812D01*
X48559000Y-70278741D01*
X48559000Y-70101259D01*
X48593624Y-69927188D01*
X48661544Y-69763216D01*
X48760147Y-69615646D01*
X48885646Y-69490147D01*
X49033216Y-69391544D01*
X49197188Y-69323624D01*
X49346488Y-69293927D01*
X49371258Y-69289000D01*
X49548742Y-69289000D01*
X49573512Y-69293927D01*
G37*
G36*
X98673512Y-69293927D02*
G01*
X98822812Y-69323624D01*
X98986784Y-69391544D01*
X99134354Y-69490147D01*
X99259853Y-69615646D01*
X99358456Y-69763216D01*
X99426376Y-69927188D01*
X99461000Y-70101259D01*
X99461000Y-70278741D01*
X99426376Y-70452812D01*
X99358456Y-70616784D01*
X99259853Y-70764354D01*
X99134354Y-70889853D01*
X98986784Y-70988456D01*
X98822812Y-71056376D01*
X98673512Y-71086073D01*
X98648742Y-71091000D01*
X98471258Y-71091000D01*
X98446488Y-71086073D01*
X98297188Y-71056376D01*
X98133216Y-70988456D01*
X97985646Y-70889853D01*
X97860147Y-70764354D01*
X97761544Y-70616784D01*
X97693624Y-70452812D01*
X97659000Y-70278741D01*
X97659000Y-70101259D01*
X97693624Y-69927188D01*
X97761544Y-69763216D01*
X97860147Y-69615646D01*
X97985646Y-69490147D01*
X98133216Y-69391544D01*
X98297188Y-69323624D01*
X98446488Y-69293927D01*
X98471258Y-69289000D01*
X98648742Y-69289000D01*
X98673512Y-69293927D01*
G37*
G36*
X96113512Y-69293927D02*
G01*
X96262812Y-69323624D01*
X96426784Y-69391544D01*
X96574354Y-69490147D01*
X96699853Y-69615646D01*
X96798456Y-69763216D01*
X96866376Y-69927188D01*
X96901000Y-70101259D01*
X96901000Y-70278741D01*
X96866376Y-70452812D01*
X96798456Y-70616784D01*
X96699853Y-70764354D01*
X96574354Y-70889853D01*
X96426784Y-70988456D01*
X96262812Y-71056376D01*
X96113512Y-71086073D01*
X96088742Y-71091000D01*
X95911258Y-71091000D01*
X95886488Y-71086073D01*
X95737188Y-71056376D01*
X95573216Y-70988456D01*
X95425646Y-70889853D01*
X95300147Y-70764354D01*
X95201544Y-70616784D01*
X95133624Y-70452812D01*
X95099000Y-70278741D01*
X95099000Y-70101259D01*
X95133624Y-69927188D01*
X95201544Y-69763216D01*
X95300147Y-69615646D01*
X95425646Y-69490147D01*
X95573216Y-69391544D01*
X95737188Y-69323624D01*
X95886488Y-69293927D01*
X95911258Y-69289000D01*
X96088742Y-69289000D01*
X96113512Y-69293927D01*
G37*
G36*
X52113512Y-69293927D02*
G01*
X52262812Y-69323624D01*
X52426784Y-69391544D01*
X52574354Y-69490147D01*
X52699853Y-69615646D01*
X52798456Y-69763216D01*
X52866376Y-69927188D01*
X52901000Y-70101259D01*
X52901000Y-70278741D01*
X52866376Y-70452812D01*
X52798456Y-70616784D01*
X52699853Y-70764354D01*
X52574354Y-70889853D01*
X52426784Y-70988456D01*
X52262812Y-71056376D01*
X52113512Y-71086073D01*
X52088742Y-71091000D01*
X51911258Y-71091000D01*
X51886488Y-71086073D01*
X51737188Y-71056376D01*
X51573216Y-70988456D01*
X51425646Y-70889853D01*
X51300147Y-70764354D01*
X51201544Y-70616784D01*
X51133624Y-70452812D01*
X51099000Y-70278741D01*
X51099000Y-70101259D01*
X51133624Y-69927188D01*
X51201544Y-69763216D01*
X51300147Y-69615646D01*
X51425646Y-69490147D01*
X51573216Y-69391544D01*
X51737188Y-69323624D01*
X51886488Y-69293927D01*
X51911258Y-69289000D01*
X52088742Y-69289000D01*
X52113512Y-69293927D01*
G37*
G36*
X52113512Y-66753927D02*
G01*
X52262812Y-66783624D01*
X52426784Y-66851544D01*
X52574354Y-66950147D01*
X52699853Y-67075646D01*
X52798456Y-67223216D01*
X52866376Y-67387188D01*
X52901000Y-67561259D01*
X52901000Y-67738741D01*
X52866376Y-67912812D01*
X52798456Y-68076784D01*
X52699853Y-68224354D01*
X52574354Y-68349853D01*
X52426784Y-68448456D01*
X52262812Y-68516376D01*
X52113512Y-68546073D01*
X52088742Y-68551000D01*
X51911258Y-68551000D01*
X51886488Y-68546073D01*
X51737188Y-68516376D01*
X51573216Y-68448456D01*
X51425646Y-68349853D01*
X51300147Y-68224354D01*
X51201544Y-68076784D01*
X51133624Y-67912812D01*
X51099000Y-67738741D01*
X51099000Y-67561259D01*
X51133624Y-67387188D01*
X51201544Y-67223216D01*
X51300147Y-67075646D01*
X51425646Y-66950147D01*
X51573216Y-66851544D01*
X51737188Y-66783624D01*
X51886488Y-66753927D01*
X51911258Y-66749000D01*
X52088742Y-66749000D01*
X52113512Y-66753927D01*
G37*
G36*
X49573512Y-66753927D02*
G01*
X49722812Y-66783624D01*
X49886784Y-66851544D01*
X50034354Y-66950147D01*
X50159853Y-67075646D01*
X50258456Y-67223216D01*
X50326376Y-67387188D01*
X50361000Y-67561259D01*
X50361000Y-67738741D01*
X50326376Y-67912812D01*
X50258456Y-68076784D01*
X50159853Y-68224354D01*
X50034354Y-68349853D01*
X49886784Y-68448456D01*
X49722812Y-68516376D01*
X49573512Y-68546073D01*
X49548742Y-68551000D01*
X49371258Y-68551000D01*
X49346488Y-68546073D01*
X49197188Y-68516376D01*
X49033216Y-68448456D01*
X48885646Y-68349853D01*
X48760147Y-68224354D01*
X48661544Y-68076784D01*
X48593624Y-67912812D01*
X48559000Y-67738741D01*
X48559000Y-67561259D01*
X48593624Y-67387188D01*
X48661544Y-67223216D01*
X48760147Y-67075646D01*
X48885646Y-66950147D01*
X49033216Y-66851544D01*
X49197188Y-66783624D01*
X49346488Y-66753927D01*
X49371258Y-66749000D01*
X49548742Y-66749000D01*
X49573512Y-66753927D01*
G37*
G36*
X96113512Y-66753927D02*
G01*
X96262812Y-66783624D01*
X96426784Y-66851544D01*
X96574354Y-66950147D01*
X96699853Y-67075646D01*
X96798456Y-67223216D01*
X96866376Y-67387188D01*
X96901000Y-67561259D01*
X96901000Y-67738741D01*
X96866376Y-67912812D01*
X96798456Y-68076784D01*
X96699853Y-68224354D01*
X96574354Y-68349853D01*
X96426784Y-68448456D01*
X96262812Y-68516376D01*
X96113512Y-68546073D01*
X96088742Y-68551000D01*
X95911258Y-68551000D01*
X95886488Y-68546073D01*
X95737188Y-68516376D01*
X95573216Y-68448456D01*
X95425646Y-68349853D01*
X95300147Y-68224354D01*
X95201544Y-68076784D01*
X95133624Y-67912812D01*
X95099000Y-67738741D01*
X95099000Y-67561259D01*
X95133624Y-67387188D01*
X95201544Y-67223216D01*
X95300147Y-67075646D01*
X95425646Y-66950147D01*
X95573216Y-66851544D01*
X95737188Y-66783624D01*
X95886488Y-66753927D01*
X95911258Y-66749000D01*
X96088742Y-66749000D01*
X96113512Y-66753927D01*
G37*
G36*
X98673512Y-66753927D02*
G01*
X98822812Y-66783624D01*
X98986784Y-66851544D01*
X99134354Y-66950147D01*
X99259853Y-67075646D01*
X99358456Y-67223216D01*
X99426376Y-67387188D01*
X99461000Y-67561259D01*
X99461000Y-67738741D01*
X99426376Y-67912812D01*
X99358456Y-68076784D01*
X99259853Y-68224354D01*
X99134354Y-68349853D01*
X98986784Y-68448456D01*
X98822812Y-68516376D01*
X98673512Y-68546073D01*
X98648742Y-68551000D01*
X98471258Y-68551000D01*
X98446488Y-68546073D01*
X98297188Y-68516376D01*
X98133216Y-68448456D01*
X97985646Y-68349853D01*
X97860147Y-68224354D01*
X97761544Y-68076784D01*
X97693624Y-67912812D01*
X97659000Y-67738741D01*
X97659000Y-67561259D01*
X97693624Y-67387188D01*
X97761544Y-67223216D01*
X97860147Y-67075646D01*
X97985646Y-66950147D01*
X98133216Y-66851544D01*
X98297188Y-66783624D01*
X98446488Y-66753927D01*
X98471258Y-66749000D01*
X98648742Y-66749000D01*
X98673512Y-66753927D01*
G37*
G36*
X52113512Y-64213927D02*
G01*
X52262812Y-64243624D01*
X52426784Y-64311544D01*
X52574354Y-64410147D01*
X52699853Y-64535646D01*
X52798456Y-64683216D01*
X52866376Y-64847188D01*
X52901000Y-65021259D01*
X52901000Y-65198741D01*
X52866376Y-65372812D01*
X52798456Y-65536784D01*
X52699853Y-65684354D01*
X52574354Y-65809853D01*
X52426784Y-65908456D01*
X52262812Y-65976376D01*
X52113512Y-66006073D01*
X52088742Y-66011000D01*
X51911258Y-66011000D01*
X51886488Y-66006073D01*
X51737188Y-65976376D01*
X51573216Y-65908456D01*
X51425646Y-65809853D01*
X51300147Y-65684354D01*
X51201544Y-65536784D01*
X51133624Y-65372812D01*
X51099000Y-65198741D01*
X51099000Y-65021259D01*
X51133624Y-64847188D01*
X51201544Y-64683216D01*
X51300147Y-64535646D01*
X51425646Y-64410147D01*
X51573216Y-64311544D01*
X51737188Y-64243624D01*
X51886488Y-64213927D01*
X51911258Y-64209000D01*
X52088742Y-64209000D01*
X52113512Y-64213927D01*
G37*
G36*
X96113512Y-64213927D02*
G01*
X96262812Y-64243624D01*
X96426784Y-64311544D01*
X96574354Y-64410147D01*
X96699853Y-64535646D01*
X96798456Y-64683216D01*
X96866376Y-64847188D01*
X96901000Y-65021259D01*
X96901000Y-65198741D01*
X96866376Y-65372812D01*
X96798456Y-65536784D01*
X96699853Y-65684354D01*
X96574354Y-65809853D01*
X96426784Y-65908456D01*
X96262812Y-65976376D01*
X96113512Y-66006073D01*
X96088742Y-66011000D01*
X95911258Y-66011000D01*
X95886488Y-66006073D01*
X95737188Y-65976376D01*
X95573216Y-65908456D01*
X95425646Y-65809853D01*
X95300147Y-65684354D01*
X95201544Y-65536784D01*
X95133624Y-65372812D01*
X95099000Y-65198741D01*
X95099000Y-65021259D01*
X95133624Y-64847188D01*
X95201544Y-64683216D01*
X95300147Y-64535646D01*
X95425646Y-64410147D01*
X95573216Y-64311544D01*
X95737188Y-64243624D01*
X95886488Y-64213927D01*
X95911258Y-64209000D01*
X96088742Y-64209000D01*
X96113512Y-64213927D01*
G37*
G36*
X98673512Y-64213927D02*
G01*
X98822812Y-64243624D01*
X98986784Y-64311544D01*
X99134354Y-64410147D01*
X99259853Y-64535646D01*
X99358456Y-64683216D01*
X99426376Y-64847188D01*
X99461000Y-65021259D01*
X99461000Y-65198741D01*
X99426376Y-65372812D01*
X99358456Y-65536784D01*
X99259853Y-65684354D01*
X99134354Y-65809853D01*
X98986784Y-65908456D01*
X98822812Y-65976376D01*
X98673512Y-66006073D01*
X98648742Y-66011000D01*
X98471258Y-66011000D01*
X98446488Y-66006073D01*
X98297188Y-65976376D01*
X98133216Y-65908456D01*
X97985646Y-65809853D01*
X97860147Y-65684354D01*
X97761544Y-65536784D01*
X97693624Y-65372812D01*
X97659000Y-65198741D01*
X97659000Y-65021259D01*
X97693624Y-64847188D01*
X97761544Y-64683216D01*
X97860147Y-64535646D01*
X97985646Y-64410147D01*
X98133216Y-64311544D01*
X98297188Y-64243624D01*
X98446488Y-64213927D01*
X98471258Y-64209000D01*
X98648742Y-64209000D01*
X98673512Y-64213927D01*
G37*
G36*
X49573512Y-64213927D02*
G01*
X49722812Y-64243624D01*
X49886784Y-64311544D01*
X50034354Y-64410147D01*
X50159853Y-64535646D01*
X50258456Y-64683216D01*
X50326376Y-64847188D01*
X50361000Y-65021259D01*
X50361000Y-65198741D01*
X50326376Y-65372812D01*
X50258456Y-65536784D01*
X50159853Y-65684354D01*
X50034354Y-65809853D01*
X49886784Y-65908456D01*
X49722812Y-65976376D01*
X49573512Y-66006073D01*
X49548742Y-66011000D01*
X49371258Y-66011000D01*
X49346488Y-66006073D01*
X49197188Y-65976376D01*
X49033216Y-65908456D01*
X48885646Y-65809853D01*
X48760147Y-65684354D01*
X48661544Y-65536784D01*
X48593624Y-65372812D01*
X48559000Y-65198741D01*
X48559000Y-65021259D01*
X48593624Y-64847188D01*
X48661544Y-64683216D01*
X48760147Y-64535646D01*
X48885646Y-64410147D01*
X49033216Y-64311544D01*
X49197188Y-64243624D01*
X49346488Y-64213927D01*
X49371258Y-64209000D01*
X49548742Y-64209000D01*
X49573512Y-64213927D01*
G37*
G36*
X96113512Y-61673927D02*
G01*
X96262812Y-61703624D01*
X96426784Y-61771544D01*
X96574354Y-61870147D01*
X96699853Y-61995646D01*
X96798456Y-62143216D01*
X96866376Y-62307188D01*
X96901000Y-62481259D01*
X96901000Y-62658741D01*
X96866376Y-62832812D01*
X96798456Y-62996784D01*
X96699853Y-63144354D01*
X96574354Y-63269853D01*
X96426784Y-63368456D01*
X96262812Y-63436376D01*
X96113512Y-63466073D01*
X96088742Y-63471000D01*
X95911258Y-63471000D01*
X95886488Y-63466073D01*
X95737188Y-63436376D01*
X95573216Y-63368456D01*
X95425646Y-63269853D01*
X95300147Y-63144354D01*
X95201544Y-62996784D01*
X95133624Y-62832812D01*
X95099000Y-62658741D01*
X95099000Y-62481259D01*
X95133624Y-62307188D01*
X95201544Y-62143216D01*
X95300147Y-61995646D01*
X95425646Y-61870147D01*
X95573216Y-61771544D01*
X95737188Y-61703624D01*
X95886488Y-61673927D01*
X95911258Y-61669000D01*
X96088742Y-61669000D01*
X96113512Y-61673927D01*
G37*
G36*
X52113512Y-61673927D02*
G01*
X52262812Y-61703624D01*
X52426784Y-61771544D01*
X52574354Y-61870147D01*
X52699853Y-61995646D01*
X52798456Y-62143216D01*
X52866376Y-62307188D01*
X52901000Y-62481259D01*
X52901000Y-62658741D01*
X52866376Y-62832812D01*
X52798456Y-62996784D01*
X52699853Y-63144354D01*
X52574354Y-63269853D01*
X52426784Y-63368456D01*
X52262812Y-63436376D01*
X52113512Y-63466073D01*
X52088742Y-63471000D01*
X51911258Y-63471000D01*
X51886488Y-63466073D01*
X51737188Y-63436376D01*
X51573216Y-63368456D01*
X51425646Y-63269853D01*
X51300147Y-63144354D01*
X51201544Y-62996784D01*
X51133624Y-62832812D01*
X51099000Y-62658741D01*
X51099000Y-62481259D01*
X51133624Y-62307188D01*
X51201544Y-62143216D01*
X51300147Y-61995646D01*
X51425646Y-61870147D01*
X51573216Y-61771544D01*
X51737188Y-61703624D01*
X51886488Y-61673927D01*
X51911258Y-61669000D01*
X52088742Y-61669000D01*
X52113512Y-61673927D01*
G37*
G36*
X98673512Y-61673927D02*
G01*
X98822812Y-61703624D01*
X98986784Y-61771544D01*
X99134354Y-61870147D01*
X99259853Y-61995646D01*
X99358456Y-62143216D01*
X99426376Y-62307188D01*
X99461000Y-62481259D01*
X99461000Y-62658741D01*
X99426376Y-62832812D01*
X99358456Y-62996784D01*
X99259853Y-63144354D01*
X99134354Y-63269853D01*
X98986784Y-63368456D01*
X98822812Y-63436376D01*
X98673512Y-63466073D01*
X98648742Y-63471000D01*
X98471258Y-63471000D01*
X98446488Y-63466073D01*
X98297188Y-63436376D01*
X98133216Y-63368456D01*
X97985646Y-63269853D01*
X97860147Y-63144354D01*
X97761544Y-62996784D01*
X97693624Y-62832812D01*
X97659000Y-62658741D01*
X97659000Y-62481259D01*
X97693624Y-62307188D01*
X97761544Y-62143216D01*
X97860147Y-61995646D01*
X97985646Y-61870147D01*
X98133216Y-61771544D01*
X98297188Y-61703624D01*
X98446488Y-61673927D01*
X98471258Y-61669000D01*
X98648742Y-61669000D01*
X98673512Y-61673927D01*
G37*
G36*
X49573512Y-61673927D02*
G01*
X49722812Y-61703624D01*
X49886784Y-61771544D01*
X50034354Y-61870147D01*
X50159853Y-61995646D01*
X50258456Y-62143216D01*
X50326376Y-62307188D01*
X50361000Y-62481259D01*
X50361000Y-62658741D01*
X50326376Y-62832812D01*
X50258456Y-62996784D01*
X50159853Y-63144354D01*
X50034354Y-63269853D01*
X49886784Y-63368456D01*
X49722812Y-63436376D01*
X49573512Y-63466073D01*
X49548742Y-63471000D01*
X49371258Y-63471000D01*
X49346488Y-63466073D01*
X49197188Y-63436376D01*
X49033216Y-63368456D01*
X48885646Y-63269853D01*
X48760147Y-63144354D01*
X48661544Y-62996784D01*
X48593624Y-62832812D01*
X48559000Y-62658741D01*
X48559000Y-62481259D01*
X48593624Y-62307188D01*
X48661544Y-62143216D01*
X48760147Y-61995646D01*
X48885646Y-61870147D01*
X49033216Y-61771544D01*
X49197188Y-61703624D01*
X49346488Y-61673927D01*
X49371258Y-61669000D01*
X49548742Y-61669000D01*
X49573512Y-61673927D01*
G37*
G36*
X49573512Y-59133927D02*
G01*
X49722812Y-59163624D01*
X49886784Y-59231544D01*
X50034354Y-59330147D01*
X50159853Y-59455646D01*
X50258456Y-59603216D01*
X50326376Y-59767188D01*
X50361000Y-59941259D01*
X50361000Y-60118741D01*
X50326376Y-60292812D01*
X50258456Y-60456784D01*
X50159853Y-60604354D01*
X50034354Y-60729853D01*
X49886784Y-60828456D01*
X49722812Y-60896376D01*
X49573512Y-60926073D01*
X49548742Y-60931000D01*
X49371258Y-60931000D01*
X49346488Y-60926073D01*
X49197188Y-60896376D01*
X49033216Y-60828456D01*
X48885646Y-60729853D01*
X48760147Y-60604354D01*
X48661544Y-60456784D01*
X48593624Y-60292812D01*
X48559000Y-60118741D01*
X48559000Y-59941259D01*
X48593624Y-59767188D01*
X48661544Y-59603216D01*
X48760147Y-59455646D01*
X48885646Y-59330147D01*
X49033216Y-59231544D01*
X49197188Y-59163624D01*
X49346488Y-59133927D01*
X49371258Y-59129000D01*
X49548742Y-59129000D01*
X49573512Y-59133927D01*
G37*
G36*
X52113512Y-59133927D02*
G01*
X52262812Y-59163624D01*
X52426784Y-59231544D01*
X52574354Y-59330147D01*
X52699853Y-59455646D01*
X52798456Y-59603216D01*
X52866376Y-59767188D01*
X52901000Y-59941259D01*
X52901000Y-60118741D01*
X52866376Y-60292812D01*
X52798456Y-60456784D01*
X52699853Y-60604354D01*
X52574354Y-60729853D01*
X52426784Y-60828456D01*
X52262812Y-60896376D01*
X52113512Y-60926073D01*
X52088742Y-60931000D01*
X51911258Y-60931000D01*
X51886488Y-60926073D01*
X51737188Y-60896376D01*
X51573216Y-60828456D01*
X51425646Y-60729853D01*
X51300147Y-60604354D01*
X51201544Y-60456784D01*
X51133624Y-60292812D01*
X51099000Y-60118741D01*
X51099000Y-59941259D01*
X51133624Y-59767188D01*
X51201544Y-59603216D01*
X51300147Y-59455646D01*
X51425646Y-59330147D01*
X51573216Y-59231544D01*
X51737188Y-59163624D01*
X51886488Y-59133927D01*
X51911258Y-59129000D01*
X52088742Y-59129000D01*
X52113512Y-59133927D01*
G37*
G36*
X96113512Y-59133927D02*
G01*
X96262812Y-59163624D01*
X96426784Y-59231544D01*
X96574354Y-59330147D01*
X96699853Y-59455646D01*
X96798456Y-59603216D01*
X96866376Y-59767188D01*
X96901000Y-59941259D01*
X96901000Y-60118741D01*
X96866376Y-60292812D01*
X96798456Y-60456784D01*
X96699853Y-60604354D01*
X96574354Y-60729853D01*
X96426784Y-60828456D01*
X96262812Y-60896376D01*
X96113512Y-60926073D01*
X96088742Y-60931000D01*
X95911258Y-60931000D01*
X95886488Y-60926073D01*
X95737188Y-60896376D01*
X95573216Y-60828456D01*
X95425646Y-60729853D01*
X95300147Y-60604354D01*
X95201544Y-60456784D01*
X95133624Y-60292812D01*
X95099000Y-60118741D01*
X95099000Y-59941259D01*
X95133624Y-59767188D01*
X95201544Y-59603216D01*
X95300147Y-59455646D01*
X95425646Y-59330147D01*
X95573216Y-59231544D01*
X95737188Y-59163624D01*
X95886488Y-59133927D01*
X95911258Y-59129000D01*
X96088742Y-59129000D01*
X96113512Y-59133927D01*
G37*
G36*
X98673512Y-59133927D02*
G01*
X98822812Y-59163624D01*
X98986784Y-59231544D01*
X99134354Y-59330147D01*
X99259853Y-59455646D01*
X99358456Y-59603216D01*
X99426376Y-59767188D01*
X99461000Y-59941259D01*
X99461000Y-60118741D01*
X99426376Y-60292812D01*
X99358456Y-60456784D01*
X99259853Y-60604354D01*
X99134354Y-60729853D01*
X98986784Y-60828456D01*
X98822812Y-60896376D01*
X98673512Y-60926073D01*
X98648742Y-60931000D01*
X98471258Y-60931000D01*
X98446488Y-60926073D01*
X98297188Y-60896376D01*
X98133216Y-60828456D01*
X97985646Y-60729853D01*
X97860147Y-60604354D01*
X97761544Y-60456784D01*
X97693624Y-60292812D01*
X97659000Y-60118741D01*
X97659000Y-59941259D01*
X97693624Y-59767188D01*
X97761544Y-59603216D01*
X97860147Y-59455646D01*
X97985646Y-59330147D01*
X98133216Y-59231544D01*
X98297188Y-59163624D01*
X98446488Y-59133927D01*
X98471258Y-59129000D01*
X98648742Y-59129000D01*
X98673512Y-59133927D01*
G37*
G36*
X52113512Y-56593927D02*
G01*
X52262812Y-56623624D01*
X52426784Y-56691544D01*
X52574354Y-56790147D01*
X52699853Y-56915646D01*
X52798456Y-57063216D01*
X52866376Y-57227188D01*
X52901000Y-57401259D01*
X52901000Y-57578741D01*
X52866376Y-57752812D01*
X52798456Y-57916784D01*
X52699853Y-58064354D01*
X52574354Y-58189853D01*
X52426784Y-58288456D01*
X52262812Y-58356376D01*
X52113512Y-58386073D01*
X52088742Y-58391000D01*
X51911258Y-58391000D01*
X51886488Y-58386073D01*
X51737188Y-58356376D01*
X51573216Y-58288456D01*
X51425646Y-58189853D01*
X51300147Y-58064354D01*
X51201544Y-57916784D01*
X51133624Y-57752812D01*
X51099000Y-57578741D01*
X51099000Y-57401259D01*
X51133624Y-57227188D01*
X51201544Y-57063216D01*
X51300147Y-56915646D01*
X51425646Y-56790147D01*
X51573216Y-56691544D01*
X51737188Y-56623624D01*
X51886488Y-56593927D01*
X51911258Y-56589000D01*
X52088742Y-56589000D01*
X52113512Y-56593927D01*
G37*
G36*
X49573512Y-56593927D02*
G01*
X49722812Y-56623624D01*
X49886784Y-56691544D01*
X50034354Y-56790147D01*
X50159853Y-56915646D01*
X50258456Y-57063216D01*
X50326376Y-57227188D01*
X50361000Y-57401259D01*
X50361000Y-57578741D01*
X50326376Y-57752812D01*
X50258456Y-57916784D01*
X50159853Y-58064354D01*
X50034354Y-58189853D01*
X49886784Y-58288456D01*
X49722812Y-58356376D01*
X49573512Y-58386073D01*
X49548742Y-58391000D01*
X49371258Y-58391000D01*
X49346488Y-58386073D01*
X49197188Y-58356376D01*
X49033216Y-58288456D01*
X48885646Y-58189853D01*
X48760147Y-58064354D01*
X48661544Y-57916784D01*
X48593624Y-57752812D01*
X48559000Y-57578741D01*
X48559000Y-57401259D01*
X48593624Y-57227188D01*
X48661544Y-57063216D01*
X48760147Y-56915646D01*
X48885646Y-56790147D01*
X49033216Y-56691544D01*
X49197188Y-56623624D01*
X49346488Y-56593927D01*
X49371258Y-56589000D01*
X49548742Y-56589000D01*
X49573512Y-56593927D01*
G37*
G36*
X96113512Y-56593927D02*
G01*
X96262812Y-56623624D01*
X96426784Y-56691544D01*
X96574354Y-56790147D01*
X96699853Y-56915646D01*
X96798456Y-57063216D01*
X96866376Y-57227188D01*
X96901000Y-57401259D01*
X96901000Y-57578741D01*
X96866376Y-57752812D01*
X96798456Y-57916784D01*
X96699853Y-58064354D01*
X96574354Y-58189853D01*
X96426784Y-58288456D01*
X96262812Y-58356376D01*
X96113512Y-58386073D01*
X96088742Y-58391000D01*
X95911258Y-58391000D01*
X95886488Y-58386073D01*
X95737188Y-58356376D01*
X95573216Y-58288456D01*
X95425646Y-58189853D01*
X95300147Y-58064354D01*
X95201544Y-57916784D01*
X95133624Y-57752812D01*
X95099000Y-57578741D01*
X95099000Y-57401259D01*
X95133624Y-57227188D01*
X95201544Y-57063216D01*
X95300147Y-56915646D01*
X95425646Y-56790147D01*
X95573216Y-56691544D01*
X95737188Y-56623624D01*
X95886488Y-56593927D01*
X95911258Y-56589000D01*
X96088742Y-56589000D01*
X96113512Y-56593927D01*
G37*
G36*
X98673512Y-56593927D02*
G01*
X98822812Y-56623624D01*
X98986784Y-56691544D01*
X99134354Y-56790147D01*
X99259853Y-56915646D01*
X99358456Y-57063216D01*
X99426376Y-57227188D01*
X99461000Y-57401259D01*
X99461000Y-57578741D01*
X99426376Y-57752812D01*
X99358456Y-57916784D01*
X99259853Y-58064354D01*
X99134354Y-58189853D01*
X98986784Y-58288456D01*
X98822812Y-58356376D01*
X98673512Y-58386073D01*
X98648742Y-58391000D01*
X98471258Y-58391000D01*
X98446488Y-58386073D01*
X98297188Y-58356376D01*
X98133216Y-58288456D01*
X97985646Y-58189853D01*
X97860147Y-58064354D01*
X97761544Y-57916784D01*
X97693624Y-57752812D01*
X97659000Y-57578741D01*
X97659000Y-57401259D01*
X97693624Y-57227188D01*
X97761544Y-57063216D01*
X97860147Y-56915646D01*
X97985646Y-56790147D01*
X98133216Y-56691544D01*
X98297188Y-56623624D01*
X98446488Y-56593927D01*
X98471258Y-56589000D01*
X98648742Y-56589000D01*
X98673512Y-56593927D01*
G37*
G36*
X96901000Y-55851000D02*
G01*
X95099000Y-55851000D01*
X95099000Y-54049000D01*
X96901000Y-54049000D01*
X96901000Y-55851000D01*
G37*
G36*
X99461000Y-55851000D02*
G01*
X97659000Y-55851000D01*
X97659000Y-54049000D01*
X99461000Y-54049000D01*
X99461000Y-55851000D01*
G37*
G36*
X52901000Y-55851000D02*
G01*
X51099000Y-55851000D01*
X51099000Y-54049000D01*
X52901000Y-54049000D01*
X52901000Y-55851000D01*
G37*
G36*
X50361000Y-55851000D02*
G01*
X48559000Y-55851000D01*
X48559000Y-54049000D01*
X50361000Y-54049000D01*
X50361000Y-55851000D01*
G37*
M02*
