M48
; DRILL file {KiCad 5.1.5+dfsg1-2build2} date lun 08 mar 2021 11:08:23
; FORMAT={-:-/ absolute / metric / decimal}
; #@! TF.CreationDate,2021-03-08T11:08:23-05:00
; #@! TF.GenerationSoftware,Kicad,Pcbnew,5.1.5+dfsg1-2build2
; #@! TF.FileFunction,Plated,1,2,PTH
FMAT,2
METRIC
T1C0.400
T2C1.000
T3C1.100
%
G90
G05
T1
X48.26Y-52.07
X55.88Y-52.07
X55.88Y-78.74
X55.88Y-87.63
X57.15Y-58.42
X62.23Y-72.39
X67.31Y-72.39
X73.66Y-62.23
X73.66Y-87.63
X73.66Y-92.71
X77.47Y-58.42
X81.28Y-68.58
X81.28Y-78.74
X83.82Y-62.23
X85.09Y-68.58
X87.63Y-95.25
X87.63Y-99.06
X91.44Y-52.07
X100.238Y-95.25
T2
X49.46Y-54.95
X49.46Y-57.49
X49.46Y-60.03
X49.46Y-62.57
X49.46Y-65.11
X49.46Y-67.65
X49.46Y-70.19
X49.46Y-72.73
X49.46Y-75.27
X49.46Y-77.81
X49.46Y-80.35
X49.46Y-82.89
X49.46Y-85.43
X49.46Y-87.97
X49.46Y-90.51
X49.46Y-93.05
X96.0Y-54.95
X96.0Y-57.49
X96.0Y-60.03
X96.0Y-62.57
X96.0Y-65.11
X96.0Y-67.65
X96.0Y-70.19
X96.0Y-72.73
X96.0Y-75.27
X96.0Y-77.81
X96.0Y-80.35
X96.0Y-82.89
X96.0Y-85.43
X96.0Y-87.97
X96.0Y-90.51
X96.0Y-93.05
X52.0Y-54.95
X52.0Y-57.49
X52.0Y-60.03
X52.0Y-62.57
X52.0Y-65.11
X52.0Y-67.65
X52.0Y-70.19
X52.0Y-72.73
X52.0Y-75.27
X52.0Y-77.81
X52.0Y-80.35
X52.0Y-82.89
X52.0Y-85.43
X52.0Y-87.97
X52.0Y-90.51
X52.0Y-93.05
X98.56Y-54.95
X98.56Y-57.49
X98.56Y-60.03
X98.56Y-62.57
X98.56Y-65.11
X98.56Y-67.65
X98.56Y-70.19
X98.56Y-72.73
X98.56Y-75.27
X98.56Y-77.81
X98.56Y-80.35
X98.56Y-82.89
X98.56Y-85.43
X98.56Y-87.97
X98.56Y-90.51
X98.56Y-93.05
T3
X70.75Y-71.75
X70.75Y-76.25
X77.25Y-71.75
X77.25Y-76.25
T0
M30
